  0
SECTION
  2
HEADER
  9
$ACADVER
  1
AC1014
  9
$HANDSEED
  5
FFFF
  9
$MEASUREMENT
 70
     1
  0
ENDSEC
  0
SECTION
  2
TABLES
  0
TABLE
  2
VPORT
  5
8
330
0
100
AcDbSymbolTable
 70
     4
  0
VPORT
  5
2E
330
8
100
AcDbSymbolTableRecord
100
AcDbViewportTableRecord
  2
*ACTIVE
 70
     0
 10
0.0
 20
0.0
 11
1.0
 21
1.0
 12
210.0
 22
148.5
 13
0.0
 23
0.0
 14
10.0
 24
10.0
 15
10.0
 25
10.0
 16
0.0
 26
0.0
 36
1.0
 17
0.0
 27
0.0
 37
0.0
 40
341.0
 41
1.24
 42
50.0
 43
0.0
 44
0.0
 50
0.0
 51
0.0
 71
     0
 72
   100
 73
     1
 74
     3
 75
     0
 76
     0
 77
     0
 78
     0
  0
ENDTAB
  0
TABLE
  2
LTYPE
  5
5
330
0
100
AcDbSymbolTable
 70
     1
  0
LTYPE
  5
14
330
5
100
AcDbSymbolTableRecord
100
AcDbLinetypeTableRecord
  2
BYBLOCK
 70
     0
  3

 72
    65
 73
     0
 40
0.0
  0
LTYPE
  5
15
330
5
100
AcDbSymbolTableRecord
100
AcDbLinetypeTableRecord
  2
BYLAYER
 70
     0
  3

 72
    65
 73
     0
 40
0.0
  0
LTYPE
  5
16
330
5
100
AcDbSymbolTableRecord
100
AcDbLinetypeTableRecord
  2
CONTINUOUS
 70
     0
  3
Solid line
 72
    65
 73
     0
 40
0.0
  0
ENDTAB
  0
TABLE
  2
LAYER
  5
2
100
AcDbSymbolTable
 70
1
  0
LAYER
  5
50
100
AcDbSymbolTableRecord
100
AcDbLayerTableRecord
  2
0
 70
0
  6
CONTINUOUS
  0
ENDTAB
  0
TABLE
  2
STYLE
  5
3
330
0
100
AcDbSymbolTable
 70
     1
  0
STYLE
  5
11
330
3
100
AcDbSymbolTableRecord
100
AcDbTextStyleTableRecord
  2
STANDARD
 70
     0
 40
0.0
 41
1.0
 50
0.0
 71
     0
 42
2.5
  3
txt
  4

  0
ENDTAB
  0
TABLE
  2
VIEW
  5
6
330
0
100
AcDbSymbolTable
 70
     0
  0
ENDTAB
  0
TABLE
  2
UCS
  5
7
330
0
100
AcDbSymbolTable
 70
     0
  0
ENDTAB
  0
TABLE
  2
APPID
  5
9
330
0
100
AcDbSymbolTable
 70
     2
  0
APPID
  5
12
330
9
100
AcDbSymbolTableRecord
100
AcDbRegAppTableRecord
  2
ACAD
 70
     0
  0
ENDTAB
  0
TABLE
  2
DIMSTYLE
  5
A
330
0
100
AcDbSymbolTable
 70
     1
  0
DIMSTYLE
105
27
330
A
100
AcDbSymbolTableRecord
100
AcDbDimStyleTableRecord
  2
ISO-25
 70
     0
  3

  4

  5

  6

  7

 40
1.0
 41
2.5
 42
0.625
 43
3.75
 44
1.25
 45
0.0
 46
0.0
 47
0.0
 48
0.0
140
2.5
141
2.5
142
0.0
143
0.03937007874016
144
1.0
145
0.0
146
1.0
147
0.625
 71
     0
 72
     0
 73
     0
 74
     0
 75
     0
 76
     0
 77
     1
 78
     8
170
     0
171
     3
172
     1
173
     0
174
     0
175
     0
176
     0
177
     0
178
     0
270
     2
271
     2
272
     2
273
     2
274
     3
340
11
275
     0
280
     0
281
     0
282
     0
283
     0
284
     8
285
     0
286
     0
287
     3
288
     0
  0
ENDTAB
  0
TABLE
  2
BLOCK_RECORD
  5
1
330
0
100
AcDbSymbolTable
 70
     1
  0
BLOCK_RECORD
  5
1F
330
1
100
AcDbSymbolTableRecord
100
AcDbBlockTableRecord
  2
*MODEL_SPACE
  0
BLOCK_RECORD
  5
1B
330
1
100
AcDbSymbolTableRecord
100
AcDbBlockTableRecord
  2
*PAPER_SPACE
  0
ENDTAB
  0
ENDSEC
  0
SECTION
  2
BLOCKS
  0
BLOCK
  5
20
330
1F
100
AcDbEntity
  8
0
100
AcDbBlockBegin
  2
*MODEL_SPACE
 70
     0
 10
0.0
 20
0.0
 30
0.0
  3
*MODEL_SPACE
  1

  0
ENDBLK
  5
21
330
1F
100
AcDbEntity
  8
0
100
AcDbBlockEnd
  0
BLOCK
  5
1C
330
1B
100
AcDbEntity
 67
     1
  8
0
100
AcDbBlockBegin
  2
*PAPER_SPACE
  1

  0
ENDBLK
  5
1D
330
1B
100
AcDbEntity
 67
     1
  8
0
100
AcDbBlockEnd
  0
ENDSEC
  0
SECTION
  2
ENTITIES
  0
LWPOLYLINE
  5
100
100
AcDbEntity
  8
0
 62
1
100
AcDbPolyline
 90
2
 70
0
 10
537.619360
 20
179.015193
 30
0.0
 10
537.045592
 20
-8.606496
 30
0.0
  0
LWPOLYLINE
  5
101
100
AcDbEntity
  8
0
 62
1
100
AcDbPolyline
 90
5
 70
0
 10
537.619360
 20
31.557168
 30
0.0
 10
377.538472
 20
32.130936
 30
0.0
 10
377.538472
 20
64.261864
 30
0.0
 10
169.261176
 20
63.688096
 30
0.0
 10
169.834944
 20
-4.590136
 30
0.0
  0
LWPOLYLINE
  5
102
100
AcDbEntity
  8
0
 62
1
100
AcDbPolyline
 90
8
 70
0
 10
317.292968
 20
-4.016368
 30
0.0
 10
317.292968
 20
32.130936
 30
0.0
 10
309.260240
 20
31.557168
 30
0.0
 10
309.260240
 20
16.065464
 30
0.0
 10
293.194776
 20
15.491696
 30
0.0
 10
293.194776
 20
31.557168
 30
0.0
 10
201.392112
 20
31.557168
 30
0.0
 10
201.965880
 20
64.261864
 30
0.0
  0
LWPOLYLINE
  5
103
100
AcDbEntity
  8
0
 62
1
100
AcDbPolyline
 90
2
 70
0
 10
301.801272
 20
16.065464
 30
0.0
 10
301.227504
 20
64.835632
 30
0.0
  0
LWPOLYLINE
  5
104
100
AcDbEntity
  8
0
 62
1
100
AcDbPolyline
 90
13
 70
0
 10
153.769480
 20
-3.442600
 30
0.0
 10
153.195712
 20
31.557168
 30
0.0
 10
100.409176
 20
31.557168
 30
0.0
 10
100.982944
 20
48.196400
 30
0.0
 10
153.195712
 20
48.196400
 30
0.0
 10
154.343248
 20
127.949962
 30
0.0
 10
137.704008
 20
127.949962
 30
0.0
 10
137.130248
 20
160.080894
 30
0.0
 10
92.950216
 20
159.507127
 30
0.0
 10
91.802680
 20
144.015428
 30
0.0
 10
84.343712
 20
143.441662
 30
0.0
 10
84.917480
 20
180.736493
 30
0.0
 10
84.343712
 20
-4.016368
 30
0.0
  0
LWPOLYLINE
  5
105
100
AcDbEntity
  8
0
 62
1
100
AcDbPolyline
 90
5
 70
1
 10
569.750296
 20
175.572594
 30
0.0
 10
0.000000
 20
175.572594
 30
0.0
 10
0.000000
 20
-1.147534
 30
0.0
 10
569.750296
 20
-1.147534
 30
0.0
 10
569.750296
 20
175.572594
 30
0.0
  0
LWPOLYLINE
  5
106
100
AcDbEntity
  8
0
 62
1
100
AcDbPolyline
 90
6
 70
0
 10
538.193128
 20
144.015428
 30
0.0
 10
376.964704
 20
144.015428
 30
0.0
 10
377.538472
 20
111.884496
 30
0.0
 10
201.392112
 20
111.884496
 30
0.0
 10
201.392112
 20
127.376195
 30
0.0
 10
152.621944
 20
127.376195
 30
0.0
  0
LWPOLYLINE
  5
107
100
AcDbEntity
  8
0
 62
1
100
AcDbPolyline
 90
6
 70
0
 10
521.553896
 20
30.409632
 30
0.0
 10
521.553896
 20
128.523729
 30
0.0
 10
505.488432
 20
127.949962
 30
0.0
 10
505.488432
 20
95.819032
 30
0.0
 10
489.422968
 20
95.819032
 30
0.0
 10
489.422968
 20
144.015428
 30
0.0
  0
LWPOLYLINE
  5
108
100
AcDbEntity
  8
0
 62
1
100
AcDbPolyline
 90
4
 70
0
 10
505.488432
 20
30.409632
 30
0.0
 10
505.488432
 20
80.327328
 30
0.0
 10
489.996728
 20
79.179800
 30
0.0
 10
489.996728
 20
96.392797
 30
0.0
  0
LWPOLYLINE
  5
109
100
AcDbEntity
  8
0
 62
1
100
AcDbPolyline
 90
7
 70
0
 10
317.292968
 20
110.736962
 30
0.0
 10
317.292968
 20
159.507127
 30
0.0
 10
301.801272
 20
160.080894
 30
0.0
 10
301.801272
 20
143.441662
 30
0.0
 10
293.768536
 20
143.441662
 30
0.0
 10
293.768536
 20
159.507127
 30
0.0
 10
135.982712
 20
159.507127
 30
0.0
  0
LWPOLYLINE
  5
10a
100
AcDbEntity
  8
0
 62
1
100
AcDbPolyline
 90
6
 70
0
 10
309.834008
 20
160.080894
 30
0.0
 10
309.260240
 20
127.949962
 30
0.0
 10
285.735808
 20
126.802429
 30
0.0
 10
285.162040
 20
144.015428
 30
0.0
 10
201.392112
 20
144.015428
 30
0.0
 10
200.818344
 20
127.949962
 30
0.0
  0
LWPOLYLINE
  5
10b
100
AcDbEntity
  8
0
 62
1
100
AcDbPolyline
 90
2
 70
0
 10
217.457576
 20
144.015428
 30
0.0
 10
217.457576
 20
111.884496
 30
0.0
  0
LWPOLYLINE
  5
10c
100
AcDbEntity
  8
0
 62
1
100
AcDbPolyline
 90
2
 70
0
 10
218.031344
 20
64.835632
 30
0.0
 10
218.031344
 20
30.409632
 30
0.0
  0
LWPOLYLINE
  5
10d
100
AcDbEntity
  8
0
 62
1
100
AcDbPolyline
 90
3
 70
0
 10
100.982944
 20
160.654661
 30
0.0
 10
100.409176
 20
63.688096
 30
0.0
 10
154.343248
 20
63.688096
 30
0.0
  0
LWPOLYLINE
  5
10e
100
AcDbEntity
  8
0
 62
1
100
AcDbPolyline
 90
2
 70
0
 10
154.917008
 20
79.753560
 30
0.0
 10
100.409176
 20
79.753560
 30
0.0
  0
LWPOLYLINE
  5
10f
100
AcDbEntity
  8
0
 62
1
100
AcDbPolyline
 90
2
 70
0
 10
137.704008
 20
33.278464
 30
0.0
 10
137.704008
 20
-2.868832
 30
0.0
  0
SPLINE
  5
110
100
AcDbEntity
  8
0
 62
7
100
AcDbSpline
 70
8
 71
3
 72
8
 73
4
 74
0
 40
0
 40
0
 40
0
 40
0
 40
1
 40
1
 40
1
 40
1
 10
90.277272
 20
151.761273
 30
0.0
 10
90.277272
 20
151.332554
 30
0.0
 10
90.048553
 20
150.936402
 30
0.0
 10
89.677272
 20
150.722042
 30
0.0
  0
SPLINE
  5
111
100
AcDbEntity
  8
0
 62
7
100
AcDbSpline
 70
8
 71
3
 72
8
 73
4
 74
0
 40
0
 40
0
 40
0
 40
0
 40
1
 40
1
 40
1
 40
1
 10
89.677272
 20
150.722042
 30
0.0
 10
89.305991
 20
150.507683
 30
0.0
 10
88.848553
 20
150.507683
 30
0.0
 10
88.477272
 20
150.722042
 30
0.0
  0
SPLINE
  5
112
100
AcDbEntity
  8
0
 62
7
100
AcDbSpline
 70
8
 71
3
 72
8
 73
4
 74
0
 40
0
 40
0
 40
0
 40
0
 40
1
 40
1
 40
1
 40
1
 10
88.477272
 20
150.722042
 30
0.0
 10
88.105991
 20
150.936402
 30
0.0
 10
87.877272
 20
151.332554
 30
0.0
 10
87.877272
 20
151.761273
 30
0.0
  0
SPLINE
  5
113
100
AcDbEntity
  8
0
 62
7
100
AcDbSpline
 70
8
 71
3
 72
8
 73
4
 74
0
 40
0
 40
0
 40
0
 40
0
 40
1
 40
1
 40
1
 40
1
 10
87.877272
 20
151.761273
 30
0.0
 10
87.877272
 20
152.189992
 30
0.0
 10
88.105991
 20
152.586144
 30
0.0
 10
88.477272
 20
152.800503
 30
0.0
  0
SPLINE
  5
114
100
AcDbEntity
  8
0
 62
7
100
AcDbSpline
 70
8
 71
3
 72
8
 73
4
 74
0
 40
0
 40
0
 40
0
 40
0
 40
1
 40
1
 40
1
 40
1
 10
88.477272
 20
152.800503
 30
0.0
 10
88.848553
 20
153.014863
 30
0.0
 10
89.305991
 20
153.014863
 30
0.0
 10
89.677272
 20
152.800503
 30
0.0
  0
SPLINE
  5
115
100
AcDbEntity
  8
0
 62
7
100
AcDbSpline
 70
8
 71
3
 72
8
 73
4
 74
0
 40
0
 40
0
 40
0
 40
0
 40
1
 40
1
 40
1
 40
1
 10
89.677272
 20
152.800503
 30
0.0
 10
90.048553
 20
152.586144
 30
0.0
 10
90.277272
 20
152.189992
 30
0.0
 10
90.277272
 20
151.761273
 30
0.0
  0
LWPOLYLINE
  5
116
100
AcDbEntity
  8
0
 62
7
100
AcDbPolyline
 90
2
 70
1
 10
88.790384
 20
151.904715
 30
0.0
 10
88.790384
 20
151.904715
 30
0.0
  0
SPLINE
  5
117
100
AcDbEntity
  8
0
 62
7
100
AcDbSpline
 70
8
 71
3
 72
8
 73
4
 74
0
 40
0
 40
0
 40
0
 40
0
 40
1
 40
1
 40
1
 40
1
 10
98.023120
 20
152.048157
 30
0.0
 10
98.023120
 20
151.619438
 30
0.0
 10
97.794401
 20
151.223286
 30
0.0
 10
97.423120
 20
151.008926
 30
0.0
  0
SPLINE
  5
118
100
AcDbEntity
  8
0
 62
7
100
AcDbSpline
 70
8
 71
3
 72
8
 73
4
 74
0
 40
0
 40
0
 40
0
 40
0
 40
1
 40
1
 40
1
 40
1
 10
97.423120
 20
151.008926
 30
0.0
 10
97.051839
 20
150.794567
 30
0.0
 10
96.594401
 20
150.794567
 30
0.0
 10
96.223120
 20
151.008926
 30
0.0
  0
SPLINE
  5
119
100
AcDbEntity
  8
0
 62
7
100
AcDbSpline
 70
8
 71
3
 72
8
 73
4
 74
0
 40
0
 40
0
 40
0
 40
0
 40
1
 40
1
 40
1
 40
1
 10
96.223120
 20
151.008926
 30
0.0
 10
95.851839
 20
151.223286
 30
0.0
 10
95.623120
 20
151.619438
 30
0.0
 10
95.623120
 20
152.048157
 30
0.0
  0
SPLINE
  5
11a
100
AcDbEntity
  8
0
 62
7
100
AcDbSpline
 70
8
 71
3
 72
8
 73
4
 74
0
 40
0
 40
0
 40
0
 40
0
 40
1
 40
1
 40
1
 40
1
 10
95.623120
 20
152.048157
 30
0.0
 10
95.623120
 20
152.476876
 30
0.0
 10
95.851839
 20
152.873028
 30
0.0
 10
96.223120
 20
153.087387
 30
0.0
  0
SPLINE
  5
11b
100
AcDbEntity
  8
0
 62
7
100
AcDbSpline
 70
8
 71
3
 72
8
 73
4
 74
0
 40
0
 40
0
 40
0
 40
0
 40
1
 40
1
 40
1
 40
1
 10
96.223120
 20
153.087387
 30
0.0
 10
96.594401
 20
153.301747
 30
0.0
 10
97.051839
 20
153.301747
 30
0.0
 10
97.423120
 20
153.087387
 30
0.0
  0
SPLINE
  5
11c
100
AcDbEntity
  8
0
 62
7
100
AcDbSpline
 70
8
 71
3
 72
8
 73
4
 74
0
 40
0
 40
0
 40
0
 40
0
 40
1
 40
1
 40
1
 40
1
 10
97.423120
 20
153.087387
 30
0.0
 10
97.794401
 20
152.873028
 30
0.0
 10
98.023120
 20
152.476876
 30
0.0
 10
98.023120
 20
152.048157
 30
0.0
  0
LWPOLYLINE
  5
11d
100
AcDbEntity
  8
0
 62
7
100
AcDbPolyline
 90
2
 70
1
 10
90.277272
 20
151.761273
 30
0.0
 10
90.277272
 20
151.761273
 30
0.0
  0
SPLINE
  5
11e
100
AcDbEntity
  8
0
 62
7
100
AcDbSpline
 70
8
 71
3
 72
8
 73
4
 74
0
 40
0
 40
0
 40
0
 40
0
 40
1
 40
1
 40
1
 40
1
 10
106.199288
 20
152.048157
 30
0.0
 10
106.199288
 20
151.619438
 30
0.0
 10
105.970569
 20
151.223286
 30
0.0
 10
105.599288
 20
151.008926
 30
0.0
  0
SPLINE
  5
11f
100
AcDbEntity
  8
0
 62
7
100
AcDbSpline
 70
8
 71
3
 72
8
 73
4
 74
0
 40
0
 40
0
 40
0
 40
0
 40
1
 40
1
 40
1
 40
1
 10
105.599288
 20
151.008926
 30
0.0
 10
105.228007
 20
150.794567
 30
0.0
 10
104.770569
 20
150.794567
 30
0.0
 10
104.399288
 20
151.008926
 30
0.0
  0
SPLINE
  5
120
100
AcDbEntity
  8
0
 62
7
100
AcDbSpline
 70
8
 71
3
 72
8
 73
4
 74
0
 40
0
 40
0
 40
0
 40
0
 40
1
 40
1
 40
1
 40
1
 10
104.399288
 20
151.008926
 30
0.0
 10
104.028007
 20
151.223286
 30
0.0
 10
103.799288
 20
151.619438
 30
0.0
 10
103.799288
 20
152.048157
 30
0.0
  0
SPLINE
  5
121
100
AcDbEntity
  8
0
 62
7
100
AcDbSpline
 70
8
 71
3
 72
8
 73
4
 74
0
 40
0
 40
0
 40
0
 40
0
 40
1
 40
1
 40
1
 40
1
 10
103.799288
 20
152.048157
 30
0.0
 10
103.799288
 20
152.476876
 30
0.0
 10
104.028007
 20
152.873028
 30
0.0
 10
104.399288
 20
153.087387
 30
0.0
  0
SPLINE
  5
122
100
AcDbEntity
  8
0
 62
7
100
AcDbSpline
 70
8
 71
3
 72
8
 73
4
 74
0
 40
0
 40
0
 40
0
 40
0
 40
1
 40
1
 40
1
 40
1
 10
104.399288
 20
153.087387
 30
0.0
 10
104.770569
 20
153.301747
 30
0.0
 10
105.228007
 20
153.301747
 30
0.0
 10
105.599288
 20
153.087387
 30
0.0
  0
SPLINE
  5
123
100
AcDbEntity
  8
0
 62
7
100
AcDbSpline
 70
8
 71
3
 72
8
 73
4
 74
0
 40
0
 40
0
 40
0
 40
0
 40
1
 40
1
 40
1
 40
1
 10
105.599288
 20
153.087387
 30
0.0
 10
105.970569
 20
152.873028
 30
0.0
 10
106.199288
 20
152.476876
 30
0.0
 10
106.199288
 20
152.048157
 30
0.0
  0
LWPOLYLINE
  5
124
100
AcDbEntity
  8
0
 62
7
100
AcDbPolyline
 90
2
 70
1
 10
98.023120
 20
152.048157
 30
0.0
 10
98.023120
 20
152.048157
 30
0.0
  0
SPLINE
  5
125
100
AcDbEntity
  8
0
 62
7
100
AcDbSpline
 70
8
 71
3
 72
8
 73
4
 74
0
 40
0
 40
0
 40
0
 40
0
 40
1
 40
1
 40
1
 40
1
 10
162.715304
 20
135.839249
 30
0.0
 10
162.715304
 20
135.410530
 30
0.0
 10
162.486585
 20
135.014378
 30
0.0
 10
162.115304
 20
134.800018
 30
0.0
  0
SPLINE
  5
126
100
AcDbEntity
  8
0
 62
7
100
AcDbSpline
 70
8
 71
3
 72
8
 73
4
 74
0
 40
0
 40
0
 40
0
 40
0
 40
1
 40
1
 40
1
 40
1
 10
162.115304
 20
134.800018
 30
0.0
 10
161.744023
 20
134.585659
 30
0.0
 10
161.286585
 20
134.585659
 30
0.0
 10
160.915304
 20
134.800018
 30
0.0
  0
SPLINE
  5
127
100
AcDbEntity
  8
0
 62
7
100
AcDbSpline
 70
8
 71
3
 72
8
 73
4
 74
0
 40
0
 40
0
 40
0
 40
0
 40
1
 40
1
 40
1
 40
1
 10
160.915304
 20
134.800018
 30
0.0
 10
160.544023
 20
135.014378
 30
0.0
 10
160.315304
 20
135.410530
 30
0.0
 10
160.315304
 20
135.839249
 30
0.0
  0
SPLINE
  5
128
100
AcDbEntity
  8
0
 62
7
100
AcDbSpline
 70
8
 71
3
 72
8
 73
4
 74
0
 40
0
 40
0
 40
0
 40
0
 40
1
 40
1
 40
1
 40
1
 10
160.315304
 20
135.839249
 30
0.0
 10
160.315304
 20
136.267968
 30
0.0
 10
160.544023
 20
136.664120
 30
0.0
 10
160.915304
 20
136.878479
 30
0.0
  0
SPLINE
  5
129
100
AcDbEntity
  8
0
 62
7
100
AcDbSpline
 70
8
 71
3
 72
8
 73
4
 74
0
 40
0
 40
0
 40
0
 40
0
 40
1
 40
1
 40
1
 40
1
 10
160.915304
 20
136.878479
 30
0.0
 10
161.286585
 20
137.092839
 30
0.0
 10
161.744023
 20
137.092839
 30
0.0
 10
162.115304
 20
136.878479
 30
0.0
  0
SPLINE
  5
12a
100
AcDbEntity
  8
0
 62
7
100
AcDbSpline
 70
8
 71
3
 72
8
 73
4
 74
0
 40
0
 40
0
 40
0
 40
0
 40
1
 40
1
 40
1
 40
1
 10
162.115304
 20
136.878479
 30
0.0
 10
162.486585
 20
136.664120
 30
0.0
 10
162.715304
 20
136.267968
 30
0.0
 10
162.715304
 20
135.839249
 30
0.0
  0
LWPOLYLINE
  5
12b
100
AcDbEntity
  8
0
 62
7
100
AcDbPolyline
 90
2
 70
1
 10
106.199288
 20
152.048157
 30
0.0
 10
106.199288
 20
152.048157
 30
0.0
  0
SPLINE
  5
12c
100
AcDbEntity
  8
0
 62
7
100
AcDbSpline
 70
8
 71
3
 72
8
 73
4
 74
0
 40
0
 40
0
 40
0
 40
0
 40
1
 40
1
 40
1
 40
1
 10
146.649840
 20
131.105676
 30
0.0
 10
146.649840
 20
130.676957
 30
0.0
 10
146.421121
 20
130.280805
 30
0.0
 10
146.049840
 20
130.066446
 30
0.0
  0
SPLINE
  5
12d
100
AcDbEntity
  8
0
 62
7
100
AcDbSpline
 70
8
 71
3
 72
8
 73
4
 74
0
 40
0
 40
0
 40
0
 40
0
 40
1
 40
1
 40
1
 40
1
 10
146.049840
 20
130.066446
 30
0.0
 10
145.678559
 20
129.852086
 30
0.0
 10
145.221121
 20
129.852086
 30
0.0
 10
144.849840
 20
130.066446
 30
0.0
  0
SPLINE
  5
12e
100
AcDbEntity
  8
0
 62
7
100
AcDbSpline
 70
8
 71
3
 72
8
 73
4
 74
0
 40
0
 40
0
 40
0
 40
0
 40
1
 40
1
 40
1
 40
1
 10
144.849840
 20
130.066446
 30
0.0
 10
144.478559
 20
130.280805
 30
0.0
 10
144.249840
 20
130.676957
 30
0.0
 10
144.249840
 20
131.105676
 30
0.0
  0
SPLINE
  5
12f
100
AcDbEntity
  8
0
 62
7
100
AcDbSpline
 70
8
 71
3
 72
8
 73
4
 74
0
 40
0
 40
0
 40
0
 40
0
 40
1
 40
1
 40
1
 40
1
 10
144.249840
 20
131.105676
 30
0.0
 10
144.249840
 20
131.534395
 30
0.0
 10
144.478559
 20
131.930547
 30
0.0
 10
144.849840
 20
132.144906
 30
0.0
  0
SPLINE
  5
130
100
AcDbEntity
  8
0
 62
7
100
AcDbSpline
 70
8
 71
3
 72
8
 73
4
 74
0
 40
0
 40
0
 40
0
 40
0
 40
1
 40
1
 40
1
 40
1
 10
144.849840
 20
132.144906
 30
0.0
 10
145.221121
 20
132.359266
 30
0.0
 10
145.678559
 20
132.359266
 30
0.0
 10
146.049840
 20
132.144906
 30
0.0
  0
SPLINE
  5
131
100
AcDbEntity
  8
0
 62
7
100
AcDbSpline
 70
8
 71
3
 72
8
 73
4
 74
0
 40
0
 40
0
 40
0
 40
0
 40
1
 40
1
 40
1
 40
1
 10
146.049840
 20
132.144906
 30
0.0
 10
146.421121
 20
131.930547
 30
0.0
 10
146.649840
 20
131.534395
 30
0.0
 10
146.649840
 20
131.105676
 30
0.0
  0
LWPOLYLINE
  5
132
100
AcDbEntity
  8
0
 62
7
100
AcDbPolyline
 90
2
 70
1
 10
162.715304
 20
135.839249
 30
0.0
 10
162.715304
 20
135.839249
 30
0.0
  0
SPLINE
  5
133
100
AcDbEntity
  8
0
 62
7
100
AcDbSpline
 70
8
 71
3
 72
8
 73
4
 74
0
 40
0
 40
0
 40
0
 40
0
 40
1
 40
1
 40
1
 40
1
 10
178.924216
 20
131.249118
 30
0.0
 10
178.924216
 20
130.820400
 30
0.0
 10
178.695497
 20
130.424247
 30
0.0
 10
178.324216
 20
130.209888
 30
0.0
  0
SPLINE
  5
134
100
AcDbEntity
  8
0
 62
7
100
AcDbSpline
 70
8
 71
3
 72
8
 73
4
 74
0
 40
0
 40
0
 40
0
 40
0
 40
1
 40
1
 40
1
 40
1
 10
178.324216
 20
130.209888
 30
0.0
 10
177.952935
 20
129.995529
 30
0.0
 10
177.495497
 20
129.995529
 30
0.0
 10
177.124216
 20
130.209888
 30
0.0
  0
SPLINE
  5
135
100
AcDbEntity
  8
0
 62
7
100
AcDbSpline
 70
8
 71
3
 72
8
 73
4
 74
0
 40
0
 40
0
 40
0
 40
0
 40
1
 40
1
 40
1
 40
1
 10
177.124216
 20
130.209888
 30
0.0
 10
176.752935
 20
130.424247
 30
0.0
 10
176.524216
 20
130.820400
 30
0.0
 10
176.524216
 20
131.249118
 30
0.0
  0
SPLINE
  5
136
100
AcDbEntity
  8
0
 62
7
100
AcDbSpline
 70
8
 71
3
 72
8
 73
4
 74
0
 40
0
 40
0
 40
0
 40
0
 40
1
 40
1
 40
1
 40
1
 10
176.524216
 20
131.249118
 30
0.0
 10
176.524216
 20
131.677837
 30
0.0
 10
176.752935
 20
132.073990
 30
0.0
 10
177.124216
 20
132.288349
 30
0.0
  0
SPLINE
  5
137
100
AcDbEntity
  8
0
 62
7
100
AcDbSpline
 70
8
 71
3
 72
8
 73
4
 74
0
 40
0
 40
0
 40
0
 40
0
 40
1
 40
1
 40
1
 40
1
 10
177.124216
 20
132.288349
 30
0.0
 10
177.495497
 20
132.502708
 30
0.0
 10
177.952935
 20
132.502708
 30
0.0
 10
178.324216
 20
132.288349
 30
0.0
  0
SPLINE
  5
138
100
AcDbEntity
  8
0
 62
7
100
AcDbSpline
 70
8
 71
3
 72
8
 73
4
 74
0
 40
0
 40
0
 40
0
 40
0
 40
1
 40
1
 40
1
 40
1
 10
178.324216
 20
132.288349
 30
0.0
 10
178.695497
 20
132.073990
 30
0.0
 10
178.924216
 20
131.677837
 30
0.0
 10
178.924216
 20
131.249118
 30
0.0
  0
LWPOLYLINE
  5
139
100
AcDbEntity
  8
0
 62
7
100
AcDbPolyline
 90
2
 70
1
 10
146.649840
 20
131.105676
 30
0.0
 10
146.649840
 20
131.105676
 30
0.0
  0
SPLINE
  5
13a
100
AcDbEntity
  8
0
 62
7
100
AcDbSpline
 70
8
 71
3
 72
8
 73
4
 74
0
 40
0
 40
0
 40
0
 40
0
 40
1
 40
1
 40
1
 40
1
 10
178.924216
 20
123.216382
 30
0.0
 10
178.924216
 20
122.787663
 30
0.0
 10
178.695497
 20
122.391510
 30
0.0
 10
178.324216
 20
122.177151
 30
0.0
  0
SPLINE
  5
13b
100
AcDbEntity
  8
0
 62
7
100
AcDbSpline
 70
8
 71
3
 72
8
 73
4
 74
0
 40
0
 40
0
 40
0
 40
0
 40
1
 40
1
 40
1
 40
1
 10
178.324216
 20
122.177151
 30
0.0
 10
177.952935
 20
121.962792
 30
0.0
 10
177.495497
 20
121.962792
 30
0.0
 10
177.124216
 20
122.177151
 30
0.0
  0
SPLINE
  5
13c
100
AcDbEntity
  8
0
 62
7
100
AcDbSpline
 70
8
 71
3
 72
8
 73
4
 74
0
 40
0
 40
0
 40
0
 40
0
 40
1
 40
1
 40
1
 40
1
 10
177.124216
 20
122.177151
 30
0.0
 10
176.752935
 20
122.391510
 30
0.0
 10
176.524216
 20
122.787663
 30
0.0
 10
176.524216
 20
123.216382
 30
0.0
  0
SPLINE
  5
13d
100
AcDbEntity
  8
0
 62
7
100
AcDbSpline
 70
8
 71
3
 72
8
 73
4
 74
0
 40
0
 40
0
 40
0
 40
0
 40
1
 40
1
 40
1
 40
1
 10
176.524216
 20
123.216382
 30
0.0
 10
176.524216
 20
123.645100
 30
0.0
 10
176.752935
 20
124.041253
 30
0.0
 10
177.124216
 20
124.255612
 30
0.0
  0
SPLINE
  5
13e
100
AcDbEntity
  8
0
 62
7
100
AcDbSpline
 70
8
 71
3
 72
8
 73
4
 74
0
 40
0
 40
0
 40
0
 40
0
 40
1
 40
1
 40
1
 40
1
 10
177.124216
 20
124.255612
 30
0.0
 10
177.495497
 20
124.469971
 30
0.0
 10
177.952935
 20
124.469971
 30
0.0
 10
178.324216
 20
124.255612
 30
0.0
  0
SPLINE
  5
13f
100
AcDbEntity
  8
0
 62
7
100
AcDbSpline
 70
8
 71
3
 72
8
 73
4
 74
0
 40
0
 40
0
 40
0
 40
0
 40
1
 40
1
 40
1
 40
1
 10
178.324216
 20
124.255612
 30
0.0
 10
178.695497
 20
124.041253
 30
0.0
 10
178.924216
 20
123.645100
 30
0.0
 10
178.924216
 20
123.216382
 30
0.0
  0
LWPOLYLINE
  5
140
100
AcDbEntity
  8
0
 62
7
100
AcDbPolyline
 90
2
 70
1
 10
178.924216
 20
131.249118
 30
0.0
 10
178.924216
 20
131.249118
 30
0.0
  0
SPLINE
  5
141
100
AcDbEntity
  8
0
 62
7
100
AcDbSpline
 70
8
 71
3
 72
8
 73
4
 74
0
 40
0
 40
0
 40
0
 40
0
 40
1
 40
1
 40
1
 40
1
 10
163.002200
 20
119.917224
 30
0.0
 10
163.002200
 20
119.488505
 30
0.0
 10
162.773481
 20
119.092353
 30
0.0
 10
162.402200
 20
118.877994
 30
0.0
  0
SPLINE
  5
142
100
AcDbEntity
  8
0
 62
7
100
AcDbSpline
 70
8
 71
3
 72
8
 73
4
 74
0
 40
0
 40
0
 40
0
 40
0
 40
1
 40
1
 40
1
 40
1
 10
162.402200
 20
118.877994
 30
0.0
 10
162.030919
 20
118.663634
 30
0.0
 10
161.573481
 20
118.663634
 30
0.0
 10
161.202200
 20
118.877994
 30
0.0
  0
SPLINE
  5
143
100
AcDbEntity
  8
0
 62
7
100
AcDbSpline
 70
8
 71
3
 72
8
 73
4
 74
0
 40
0
 40
0
 40
0
 40
0
 40
1
 40
1
 40
1
 40
1
 10
161.202200
 20
118.877994
 30
0.0
 10
160.830919
 20
119.092353
 30
0.0
 10
160.602200
 20
119.488505
 30
0.0
 10
160.602200
 20
119.917224
 30
0.0
  0
SPLINE
  5
144
100
AcDbEntity
  8
0
 62
7
100
AcDbSpline
 70
8
 71
3
 72
8
 73
4
 74
0
 40
0
 40
0
 40
0
 40
0
 40
1
 40
1
 40
1
 40
1
 10
160.602200
 20
119.917224
 30
0.0
 10
160.602200
 20
120.345943
 30
0.0
 10
160.830919
 20
120.742095
 30
0.0
 10
161.202200
 20
120.956454
 30
0.0
  0
SPLINE
  5
145
100
AcDbEntity
  8
0
 62
7
100
AcDbSpline
 70
8
 71
3
 72
8
 73
4
 74
0
 40
0
 40
0
 40
0
 40
0
 40
1
 40
1
 40
1
 40
1
 10
161.202200
 20
120.956454
 30
0.0
 10
161.573481
 20
121.170814
 30
0.0
 10
162.030919
 20
121.170814
 30
0.0
 10
162.402200
 20
120.956454
 30
0.0
  0
SPLINE
  5
146
100
AcDbEntity
  8
0
 62
7
100
AcDbSpline
 70
8
 71
3
 72
8
 73
4
 74
0
 40
0
 40
0
 40
0
 40
0
 40
1
 40
1
 40
1
 40
1
 10
162.402200
 20
120.956454
 30
0.0
 10
162.773481
 20
120.742095
 30
0.0
 10
163.002200
 20
120.345943
 30
0.0
 10
163.002200
 20
119.917224
 30
0.0
  0
LWPOLYLINE
  5
147
100
AcDbEntity
  8
0
 62
7
100
AcDbPolyline
 90
2
 70
1
 10
178.924216
 20
123.216382
 30
0.0
 10
178.924216
 20
123.216382
 30
0.0
  0
SPLINE
  5
148
100
AcDbEntity
  8
0
 62
7
100
AcDbSpline
 70
8
 71
3
 72
8
 73
4
 74
0
 40
0
 40
0
 40
0
 40
0
 40
1
 40
1
 40
1
 40
1
 10
158.842384
 20
108.011566
 30
0.0
 10
158.842384
 20
107.582848
 30
0.0
 10
158.613665
 20
107.186695
 30
0.0
 10
158.242384
 20
106.972336
 30
0.0
  0
SPLINE
  5
149
100
AcDbEntity
  8
0
 62
7
100
AcDbSpline
 70
8
 71
3
 72
8
 73
4
 74
0
 40
0
 40
0
 40
0
 40
0
 40
1
 40
1
 40
1
 40
1
 10
158.242384
 20
106.972336
 30
0.0
 10
157.871103
 20
106.757977
 30
0.0
 10
157.413665
 20
106.757977
 30
0.0
 10
157.042384
 20
106.972336
 30
0.0
  0
SPLINE
  5
14a
100
AcDbEntity
  8
0
 62
7
100
AcDbSpline
 70
8
 71
3
 72
8
 73
4
 74
0
 40
0
 40
0
 40
0
 40
0
 40
1
 40
1
 40
1
 40
1
 10
157.042384
 20
106.972336
 30
0.0
 10
156.671103
 20
107.186695
 30
0.0
 10
156.442384
 20
107.582848
 30
0.0
 10
156.442384
 20
108.011566
 30
0.0
  0
SPLINE
  5
14b
100
AcDbEntity
  8
0
 62
7
100
AcDbSpline
 70
8
 71
3
 72
8
 73
4
 74
0
 40
0
 40
0
 40
0
 40
0
 40
1
 40
1
 40
1
 40
1
 10
156.442384
 20
108.011566
 30
0.0
 10
156.442384
 20
108.440285
 30
0.0
 10
156.671103
 20
108.836438
 30
0.0
 10
157.042384
 20
109.050797
 30
0.0
  0
SPLINE
  5
14c
100
AcDbEntity
  8
0
 62
7
100
AcDbSpline
 70
8
 71
3
 72
8
 73
4
 74
0
 40
0
 40
0
 40
0
 40
0
 40
1
 40
1
 40
1
 40
1
 10
157.042384
 20
109.050797
 30
0.0
 10
157.413665
 20
109.265156
 30
0.0
 10
157.871103
 20
109.265156
 30
0.0
 10
158.242384
 20
109.050797
 30
0.0
  0
SPLINE
  5
14d
100
AcDbEntity
  8
0
 62
7
100
AcDbSpline
 70
8
 71
3
 72
8
 73
4
 74
0
 40
0
 40
0
 40
0
 40
0
 40
1
 40
1
 40
1
 40
1
 10
158.242384
 20
109.050797
 30
0.0
 10
158.613665
 20
108.836438
 30
0.0
 10
158.842384
 20
108.440285
 30
0.0
 10
158.842384
 20
108.011566
 30
0.0
  0
LWPOLYLINE
  5
14e
100
AcDbEntity
  8
0
 62
7
100
AcDbPolyline
 90
2
 70
1
 10
163.002200
 20
119.917224
 30
0.0
 10
163.002200
 20
119.917224
 30
0.0
  0
SPLINE
  5
14f
100
AcDbEntity
  8
0
 62
7
100
AcDbSpline
 70
8
 71
3
 72
8
 73
4
 74
0
 40
0
 40
0
 40
0
 40
0
 40
1
 40
1
 40
1
 40
1
 10
150.522768
 20
99.978833
 30
0.0
 10
150.522768
 20
99.550114
 30
0.0
 10
150.294049
 20
99.153962
 30
0.0
 10
149.922768
 20
98.939602
 30
0.0
  0
SPLINE
  5
150
100
AcDbEntity
  8
0
 62
7
100
AcDbSpline
 70
8
 71
3
 72
8
 73
4
 74
0
 40
0
 40
0
 40
0
 40
0
 40
1
 40
1
 40
1
 40
1
 10
149.922768
 20
98.939602
 30
0.0
 10
149.551487
 20
98.725243
 30
0.0
 10
149.094049
 20
98.725243
 30
0.0
 10
148.722768
 20
98.939602
 30
0.0
  0
SPLINE
  5
151
100
AcDbEntity
  8
0
 62
7
100
AcDbSpline
 70
8
 71
3
 72
8
 73
4
 74
0
 40
0
 40
0
 40
0
 40
0
 40
1
 40
1
 40
1
 40
1
 10
148.722768
 20
98.939602
 30
0.0
 10
148.351487
 20
99.153962
 30
0.0
 10
148.122768
 20
99.550114
 30
0.0
 10
148.122768
 20
99.978833
 30
0.0
  0
SPLINE
  5
152
100
AcDbEntity
  8
0
 62
7
100
AcDbSpline
 70
8
 71
3
 72
8
 73
4
 74
0
 40
0
 40
0
 40
0
 40
0
 40
1
 40
1
 40
1
 40
1
 10
148.122768
 20
99.978833
 30
0.0
 10
148.122768
 20
100.407552
 30
0.0
 10
148.351487
 20
100.803704
 30
0.0
 10
148.722768
 20
101.018063
 30
0.0
  0
SPLINE
  5
153
100
AcDbEntity
  8
0
 62
7
100
AcDbSpline
 70
8
 71
3
 72
8
 73
4
 74
0
 40
0
 40
0
 40
0
 40
0
 40
1
 40
1
 40
1
 40
1
 10
148.722768
 20
101.018063
 30
0.0
 10
149.094049
 20
101.232423
 30
0.0
 10
149.551487
 20
101.232423
 30
0.0
 10
149.922768
 20
101.018063
 30
0.0
  0
SPLINE
  5
154
100
AcDbEntity
  8
0
 62
7
100
AcDbSpline
 70
8
 71
3
 72
8
 73
4
 74
0
 40
0
 40
0
 40
0
 40
0
 40
1
 40
1
 40
1
 40
1
 10
149.922768
 20
101.018063
 30
0.0
 10
150.294049
 20
100.803704
 30
0.0
 10
150.522768
 20
100.407552
 30
0.0
 10
150.522768
 20
99.978833
 30
0.0
  0
LWPOLYLINE
  5
155
100
AcDbEntity
  8
0
 62
7
100
AcDbPolyline
 90
2
 70
1
 10
158.842384
 20
108.011566
 30
0.0
 10
158.842384
 20
108.011566
 30
0.0
  0
SPLINE
  5
156
100
AcDbEntity
  8
0
 62
7
100
AcDbSpline
 70
8
 71
3
 72
8
 73
4
 74
0
 40
0
 40
0
 40
0
 40
0
 40
1
 40
1
 40
1
 40
1
 10
166.588232
 20
99.835394
 30
0.0
 10
166.588232
 20
99.406676
 30
0.0
 10
166.359513
 20
99.010523
 30
0.0
 10
165.988232
 20
98.796164
 30
0.0
  0
SPLINE
  5
157
100
AcDbEntity
  8
0
 62
7
100
AcDbSpline
 70
8
 71
3
 72
8
 73
4
 74
0
 40
0
 40
0
 40
0
 40
0
 40
1
 40
1
 40
1
 40
1
 10
165.988232
 20
98.796164
 30
0.0
 10
165.616951
 20
98.581805
 30
0.0
 10
165.159513
 20
98.581805
 30
0.0
 10
164.788232
 20
98.796164
 30
0.0
  0
SPLINE
  5
158
100
AcDbEntity
  8
0
 62
7
100
AcDbSpline
 70
8
 71
3
 72
8
 73
4
 74
0
 40
0
 40
0
 40
0
 40
0
 40
1
 40
1
 40
1
 40
1
 10
164.788232
 20
98.796164
 30
0.0
 10
164.416951
 20
99.010523
 30
0.0
 10
164.188232
 20
99.406676
 30
0.0
 10
164.188232
 20
99.835394
 30
0.0
  0
SPLINE
  5
159
100
AcDbEntity
  8
0
 62
7
100
AcDbSpline
 70
8
 71
3
 72
8
 73
4
 74
0
 40
0
 40
0
 40
0
 40
0
 40
1
 40
1
 40
1
 40
1
 10
164.188232
 20
99.835394
 30
0.0
 10
164.188232
 20
100.264113
 30
0.0
 10
164.416951
 20
100.660266
 30
0.0
 10
164.788232
 20
100.874625
 30
0.0
  0
SPLINE
  5
15a
100
AcDbEntity
  8
0
 62
7
100
AcDbSpline
 70
8
 71
3
 72
8
 73
4
 74
0
 40
0
 40
0
 40
0
 40
0
 40
1
 40
1
 40
1
 40
1
 10
164.788232
 20
100.874625
 30
0.0
 10
165.159513
 20
101.088984
 30
0.0
 10
165.616951
 20
101.088984
 30
0.0
 10
165.988232
 20
100.874625
 30
0.0
  0
SPLINE
  5
15b
100
AcDbEntity
  8
0
 62
7
100
AcDbSpline
 70
8
 71
3
 72
8
 73
4
 74
0
 40
0
 40
0
 40
0
 40
0
 40
1
 40
1
 40
1
 40
1
 10
165.988232
 20
100.874625
 30
0.0
 10
166.359513
 20
100.660266
 30
0.0
 10
166.588232
 20
100.264113
 30
0.0
 10
166.588232
 20
99.835394
 30
0.0
  0
LWPOLYLINE
  5
15c
100
AcDbEntity
  8
0
 62
7
100
AcDbPolyline
 90
2
 70
1
 10
150.522768
 20
99.978833
 30
0.0
 10
150.522768
 20
99.978833
 30
0.0
  0
SPLINE
  5
15d
100
AcDbEntity
  8
0
 62
7
100
AcDbSpline
 70
8
 71
3
 72
8
 73
4
 74
0
 40
0
 40
0
 40
0
 40
0
 40
1
 40
1
 40
1
 40
1
 10
110.072216
 20
104.138642
 30
0.0
 10
110.072216
 20
103.709923
 30
0.0
 10
109.843497
 20
103.313770
 30
0.0
 10
109.472216
 20
103.099411
 30
0.0
  0
SPLINE
  5
15e
100
AcDbEntity
  8
0
 62
7
100
AcDbSpline
 70
8
 71
3
 72
8
 73
4
 74
0
 40
0
 40
0
 40
0
 40
0
 40
1
 40
1
 40
1
 40
1
 10
109.472216
 20
103.099411
 30
0.0
 10
109.100935
 20
102.885052
 30
0.0
 10
108.643497
 20
102.885052
 30
0.0
 10
108.272216
 20
103.099411
 30
0.0
  0
SPLINE
  5
15f
100
AcDbEntity
  8
0
 62
7
100
AcDbSpline
 70
8
 71
3
 72
8
 73
4
 74
0
 40
0
 40
0
 40
0
 40
0
 40
1
 40
1
 40
1
 40
1
 10
108.272216
 20
103.099411
 30
0.0
 10
107.900935
 20
103.313770
 30
0.0
 10
107.672216
 20
103.709923
 30
0.0
 10
107.672216
 20
104.138642
 30
0.0
  0
SPLINE
  5
160
100
AcDbEntity
  8
0
 62
7
100
AcDbSpline
 70
8
 71
3
 72
8
 73
4
 74
0
 40
0
 40
0
 40
0
 40
0
 40
1
 40
1
 40
1
 40
1
 10
107.672216
 20
104.138642
 30
0.0
 10
107.672216
 20
104.567360
 30
0.0
 10
107.900935
 20
104.963513
 30
0.0
 10
108.272216
 20
105.177872
 30
0.0
  0
SPLINE
  5
161
100
AcDbEntity
  8
0
 62
7
100
AcDbSpline
 70
8
 71
3
 72
8
 73
4
 74
0
 40
0
 40
0
 40
0
 40
0
 40
1
 40
1
 40
1
 40
1
 10
108.272216
 20
105.177872
 30
0.0
 10
108.643497
 20
105.392231
 30
0.0
 10
109.100935
 20
105.392231
 30
0.0
 10
109.472216
 20
105.177872
 30
0.0
  0
SPLINE
  5
162
100
AcDbEntity
  8
0
 62
7
100
AcDbSpline
 70
8
 71
3
 72
8
 73
4
 74
0
 40
0
 40
0
 40
0
 40
0
 40
1
 40
1
 40
1
 40
1
 10
109.472216
 20
105.177872
 30
0.0
 10
109.843497
 20
104.963513
 30
0.0
 10
110.072216
 20
104.567360
 30
0.0
 10
110.072216
 20
104.138642
 30
0.0
  0
LWPOLYLINE
  5
163
100
AcDbEntity
  8
0
 62
7
100
AcDbPolyline
 90
2
 70
1
 10
166.588232
 20
99.835394
 30
0.0
 10
166.588232
 20
99.835394
 30
0.0
  0
SPLINE
  5
164
100
AcDbEntity
  8
0
 62
7
100
AcDbSpline
 70
8
 71
3
 72
8
 73
4
 74
0
 40
0
 40
0
 40
0
 40
0
 40
1
 40
1
 40
1
 40
1
 10
94.006752
 20
103.851758
 30
0.0
 10
94.006752
 20
103.423039
 30
0.0
 10
93.778033
 20
103.026886
 30
0.0
 10
93.406752
 20
102.812527
 30
0.0
  0
SPLINE
  5
165
100
AcDbEntity
  8
0
 62
7
100
AcDbSpline
 70
8
 71
3
 72
8
 73
4
 74
0
 40
0
 40
0
 40
0
 40
0
 40
1
 40
1
 40
1
 40
1
 10
93.406752
 20
102.812527
 30
0.0
 10
93.035471
 20
102.598168
 30
0.0
 10
92.578033
 20
102.598168
 30
0.0
 10
92.206752
 20
102.812527
 30
0.0
  0
SPLINE
  5
166
100
AcDbEntity
  8
0
 62
7
100
AcDbSpline
 70
8
 71
3
 72
8
 73
4
 74
0
 40
0
 40
0
 40
0
 40
0
 40
1
 40
1
 40
1
 40
1
 10
92.206752
 20
102.812527
 30
0.0
 10
91.835471
 20
103.026886
 30
0.0
 10
91.606752
 20
103.423039
 30
0.0
 10
91.606752
 20
103.851758
 30
0.0
  0
SPLINE
  5
167
100
AcDbEntity
  8
0
 62
7
100
AcDbSpline
 70
8
 71
3
 72
8
 73
4
 74
0
 40
0
 40
0
 40
0
 40
0
 40
1
 40
1
 40
1
 40
1
 10
91.606752
 20
103.851758
 30
0.0
 10
91.606752
 20
104.280476
 30
0.0
 10
91.835471
 20
104.676629
 30
0.0
 10
92.206752
 20
104.890988
 30
0.0
  0
SPLINE
  5
168
100
AcDbEntity
  8
0
 62
7
100
AcDbSpline
 70
8
 71
3
 72
8
 73
4
 74
0
 40
0
 40
0
 40
0
 40
0
 40
1
 40
1
 40
1
 40
1
 10
92.206752
 20
104.890988
 30
0.0
 10
92.578033
 20
105.105347
 30
0.0
 10
93.035471
 20
105.105347
 30
0.0
 10
93.406752
 20
104.890988
 30
0.0
  0
SPLINE
  5
169
100
AcDbEntity
  8
0
 62
7
100
AcDbSpline
 70
8
 71
3
 72
8
 73
4
 74
0
 40
0
 40
0
 40
0
 40
0
 40
1
 40
1
 40
1
 40
1
 10
93.406752
 20
104.890988
 30
0.0
 10
93.778033
 20
104.676629
 30
0.0
 10
94.006752
 20
104.280476
 30
0.0
 10
94.006752
 20
103.851758
 30
0.0
  0
LWPOLYLINE
  5
16a
100
AcDbEntity
  8
0
 62
7
100
AcDbPolyline
 90
2
 70
1
 10
110.072216
 20
104.138642
 30
0.0
 10
110.072216
 20
104.138642
 30
0.0
  0
SPLINE
  5
16b
100
AcDbEntity
  8
0
 62
7
100
AcDbSpline
 70
8
 71
3
 72
8
 73
4
 74
0
 40
0
 40
0
 40
0
 40
0
 40
1
 40
1
 40
1
 40
1
 10
94.150192
 20
88.073176
 30
0.0
 10
94.150192
 20
87.644457
 30
0.0
 10
93.921473
 20
87.248305
 30
0.0
 10
93.550192
 20
87.033946
 30
0.0
  0
SPLINE
  5
16c
100
AcDbEntity
  8
0
 62
7
100
AcDbSpline
 70
8
 71
3
 72
8
 73
4
 74
0
 40
0
 40
0
 40
0
 40
0
 40
1
 40
1
 40
1
 40
1
 10
93.550192
 20
87.033946
 30
0.0
 10
93.178911
 20
86.819586
 30
0.0
 10
92.721473
 20
86.819586
 30
0.0
 10
92.350192
 20
87.033946
 30
0.0
  0
SPLINE
  5
16d
100
AcDbEntity
  8
0
 62
7
100
AcDbSpline
 70
8
 71
3
 72
8
 73
4
 74
0
 40
0
 40
0
 40
0
 40
0
 40
1
 40
1
 40
1
 40
1
 10
92.350192
 20
87.033946
 30
0.0
 10
91.978911
 20
87.248305
 30
0.0
 10
91.750192
 20
87.644457
 30
0.0
 10
91.750192
 20
88.073176
 30
0.0
  0
SPLINE
  5
16e
100
AcDbEntity
  8
0
 62
7
100
AcDbSpline
 70
8
 71
3
 72
8
 73
4
 74
0
 40
0
 40
0
 40
0
 40
0
 40
1
 40
1
 40
1
 40
1
 10
91.750192
 20
88.073176
 30
0.0
 10
91.750192
 20
88.501895
 30
0.0
 10
91.978911
 20
88.898047
 30
0.0
 10
92.350192
 20
89.112406
 30
0.0
  0
SPLINE
  5
16f
100
AcDbEntity
  8
0
 62
7
100
AcDbSpline
 70
8
 71
3
 72
8
 73
4
 74
0
 40
0
 40
0
 40
0
 40
0
 40
1
 40
1
 40
1
 40
1
 10
92.350192
 20
89.112406
 30
0.0
 10
92.721473
 20
89.326766
 30
0.0
 10
93.178911
 20
89.326766
 30
0.0
 10
93.550192
 20
89.112406
 30
0.0
  0
SPLINE
  5
170
100
AcDbEntity
  8
0
 62
7
100
AcDbSpline
 70
8
 71
3
 72
8
 73
4
 74
0
 40
0
 40
0
 40
0
 40
0
 40
1
 40
1
 40
1
 40
1
 10
93.550192
 20
89.112406
 30
0.0
 10
93.921473
 20
88.898047
 30
0.0
 10
94.150192
 20
88.501895
 30
0.0
 10
94.150192
 20
88.073176
 30
0.0
  0
LWPOLYLINE
  5
171
100
AcDbEntity
  8
0
 62
7
100
AcDbPolyline
 90
2
 70
1
 10
94.006752
 20
103.851758
 30
0.0
 10
94.006752
 20
103.851758
 30
0.0
  0
SPLINE
  5
172
100
AcDbEntity
  8
0
 62
7
100
AcDbSpline
 70
8
 71
3
 72
8
 73
4
 74
0
 40
0
 40
0
 40
0
 40
0
 40
1
 40
1
 40
1
 40
1
 10
110.072216
 20
88.073176
 30
0.0
 10
110.072216
 20
87.644457
 30
0.0
 10
109.843497
 20
87.248305
 30
0.0
 10
109.472216
 20
87.033946
 30
0.0
  0
SPLINE
  5
173
100
AcDbEntity
  8
0
 62
7
100
AcDbSpline
 70
8
 71
3
 72
8
 73
4
 74
0
 40
0
 40
0
 40
0
 40
0
 40
1
 40
1
 40
1
 40
1
 10
109.472216
 20
87.033946
 30
0.0
 10
109.100935
 20
86.819586
 30
0.0
 10
108.643497
 20
86.819586
 30
0.0
 10
108.272216
 20
87.033946
 30
0.0
  0
SPLINE
  5
174
100
AcDbEntity
  8
0
 62
7
100
AcDbSpline
 70
8
 71
3
 72
8
 73
4
 74
0
 40
0
 40
0
 40
0
 40
0
 40
1
 40
1
 40
1
 40
1
 10
108.272216
 20
87.033946
 30
0.0
 10
107.900935
 20
87.248305
 30
0.0
 10
107.672216
 20
87.644457
 30
0.0
 10
107.672216
 20
88.073176
 30
0.0
  0
SPLINE
  5
175
100
AcDbEntity
  8
0
 62
7
100
AcDbSpline
 70
8
 71
3
 72
8
 73
4
 74
0
 40
0
 40
0
 40
0
 40
0
 40
1
 40
1
 40
1
 40
1
 10
107.672216
 20
88.073176
 30
0.0
 10
107.672216
 20
88.501895
 30
0.0
 10
107.900935
 20
88.898047
 30
0.0
 10
108.272216
 20
89.112406
 30
0.0
  0
SPLINE
  5
176
100
AcDbEntity
  8
0
 62
7
100
AcDbSpline
 70
8
 71
3
 72
8
 73
4
 74
0
 40
0
 40
0
 40
0
 40
0
 40
1
 40
1
 40
1
 40
1
 10
108.272216
 20
89.112406
 30
0.0
 10
108.643497
 20
89.326766
 30
0.0
 10
109.100935
 20
89.326766
 30
0.0
 10
109.472216
 20
89.112406
 30
0.0
  0
SPLINE
  5
177
100
AcDbEntity
  8
0
 62
7
100
AcDbSpline
 70
8
 71
3
 72
8
 73
4
 74
0
 40
0
 40
0
 40
0
 40
0
 40
1
 40
1
 40
1
 40
1
 10
109.472216
 20
89.112406
 30
0.0
 10
109.843497
 20
88.898047
 30
0.0
 10
110.072216
 20
88.501895
 30
0.0
 10
110.072216
 20
88.073176
 30
0.0
  0
LWPOLYLINE
  5
178
100
AcDbEntity
  8
0
 62
7
100
AcDbPolyline
 90
2
 70
1
 10
94.150192
 20
88.073176
 30
0.0
 10
94.150192
 20
88.073176
 30
0.0
  0
SPLINE
  5
179
100
AcDbEntity
  8
0
 62
7
100
AcDbSpline
 70
8
 71
3
 72
8
 73
4
 74
0
 40
0
 40
0
 40
0
 40
0
 40
1
 40
1
 40
1
 40
1
 10
194.989688
 20
151.904715
 30
0.0
 10
194.989688
 20
151.475996
 30
0.0
 10
194.760969
 20
151.079844
 30
0.0
 10
194.389688
 20
150.865485
 30
0.0
  0
SPLINE
  5
17a
100
AcDbEntity
  8
0
 62
7
100
AcDbSpline
 70
8
 71
3
 72
8
 73
4
 74
0
 40
0
 40
0
 40
0
 40
0
 40
1
 40
1
 40
1
 40
1
 10
194.389688
 20
150.865485
 30
0.0
 10
194.018407
 20
150.651125
 30
0.0
 10
193.560969
 20
150.651125
 30
0.0
 10
193.189688
 20
150.865485
 30
0.0
  0
SPLINE
  5
17b
100
AcDbEntity
  8
0
 62
7
100
AcDbSpline
 70
8
 71
3
 72
8
 73
4
 74
0
 40
0
 40
0
 40
0
 40
0
 40
1
 40
1
 40
1
 40
1
 10
193.189688
 20
150.865485
 30
0.0
 10
192.818407
 20
151.079844
 30
0.0
 10
192.589688
 20
151.475996
 30
0.0
 10
192.589688
 20
151.904715
 30
0.0
  0
SPLINE
  5
17c
100
AcDbEntity
  8
0
 62
7
100
AcDbSpline
 70
8
 71
3
 72
8
 73
4
 74
0
 40
0
 40
0
 40
0
 40
0
 40
1
 40
1
 40
1
 40
1
 10
192.589688
 20
151.904715
 30
0.0
 10
192.589688
 20
152.333434
 30
0.0
 10
192.818407
 20
152.729586
 30
0.0
 10
193.189688
 20
152.943946
 30
0.0
  0
SPLINE
  5
17d
100
AcDbEntity
  8
0
 62
7
100
AcDbSpline
 70
8
 71
3
 72
8
 73
4
 74
0
 40
0
 40
0
 40
0
 40
0
 40
1
 40
1
 40
1
 40
1
 10
193.189688
 20
152.943946
 30
0.0
 10
193.560969
 20
153.158305
 30
0.0
 10
194.018407
 20
153.158305
 30
0.0
 10
194.389688
 20
152.943946
 30
0.0
  0
SPLINE
  5
17e
100
AcDbEntity
  8
0
 62
7
100
AcDbSpline
 70
8
 71
3
 72
8
 73
4
 74
0
 40
0
 40
0
 40
0
 40
0
 40
1
 40
1
 40
1
 40
1
 10
194.389688
 20
152.943946
 30
0.0
 10
194.760969
 20
152.729586
 30
0.0
 10
194.989688
 20
152.333434
 30
0.0
 10
194.989688
 20
151.904715
 30
0.0
  0
LWPOLYLINE
  5
17f
100
AcDbEntity
  8
0
 62
7
100
AcDbPolyline
 90
2
 70
1
 10
110.072216
 20
88.073176
 30
0.0
 10
110.072216
 20
88.073176
 30
0.0
  0
SPLINE
  5
180
100
AcDbEntity
  8
0
 62
7
100
AcDbSpline
 70
8
 71
3
 72
8
 73
4
 74
0
 40
0
 40
0
 40
0
 40
0
 40
1
 40
1
 40
1
 40
1
 10
210.768264
 20
151.904715
 30
0.0
 10
210.768264
 20
151.475996
 30
0.0
 10
210.539545
 20
151.079844
 30
0.0
 10
210.168264
 20
150.865485
 30
0.0
  0
SPLINE
  5
181
100
AcDbEntity
  8
0
 62
7
100
AcDbSpline
 70
8
 71
3
 72
8
 73
4
 74
0
 40
0
 40
0
 40
0
 40
0
 40
1
 40
1
 40
1
 40
1
 10
210.168264
 20
150.865485
 30
0.0
 10
209.796983
 20
150.651125
 30
0.0
 10
209.339545
 20
150.651125
 30
0.0
 10
208.968264
 20
150.865485
 30
0.0
  0
SPLINE
  5
182
100
AcDbEntity
  8
0
 62
7
100
AcDbSpline
 70
8
 71
3
 72
8
 73
4
 74
0
 40
0
 40
0
 40
0
 40
0
 40
1
 40
1
 40
1
 40
1
 10
208.968264
 20
150.865485
 30
0.0
 10
208.596983
 20
151.079844
 30
0.0
 10
208.368264
 20
151.475996
 30
0.0
 10
208.368264
 20
151.904715
 30
0.0
  0
SPLINE
  5
183
100
AcDbEntity
  8
0
 62
7
100
AcDbSpline
 70
8
 71
3
 72
8
 73
4
 74
0
 40
0
 40
0
 40
0
 40
0
 40
1
 40
1
 40
1
 40
1
 10
208.368264
 20
151.904715
 30
0.0
 10
208.368264
 20
152.333434
 30
0.0
 10
208.596983
 20
152.729586
 30
0.0
 10
208.968264
 20
152.943946
 30
0.0
  0
SPLINE
  5
184
100
AcDbEntity
  8
0
 62
7
100
AcDbSpline
 70
8
 71
3
 72
8
 73
4
 74
0
 40
0
 40
0
 40
0
 40
0
 40
1
 40
1
 40
1
 40
1
 10
208.968264
 20
152.943946
 30
0.0
 10
209.339545
 20
153.158305
 30
0.0
 10
209.796983
 20
153.158305
 30
0.0
 10
210.168264
 20
152.943946
 30
0.0
  0
SPLINE
  5
185
100
AcDbEntity
  8
0
 62
7
100
AcDbSpline
 70
8
 71
3
 72
8
 73
4
 74
0
 40
0
 40
0
 40
0
 40
0
 40
1
 40
1
 40
1
 40
1
 10
210.168264
 20
152.943946
 30
0.0
 10
210.539545
 20
152.729586
 30
0.0
 10
210.768264
 20
152.333434
 30
0.0
 10
210.768264
 20
151.904715
 30
0.0
  0
LWPOLYLINE
  5
186
100
AcDbEntity
  8
0
 62
7
100
AcDbPolyline
 90
2
 70
1
 10
194.989688
 20
151.904715
 30
0.0
 10
194.989688
 20
151.904715
 30
0.0
  0
SPLINE
  5
187
100
AcDbEntity
  8
0
 62
7
100
AcDbSpline
 70
8
 71
3
 72
8
 73
4
 74
0
 40
0
 40
0
 40
0
 40
0
 40
1
 40
1
 40
1
 40
1
 10
226.690280
 20
151.904715
 30
0.0
 10
226.690280
 20
151.475996
 30
0.0
 10
226.461561
 20
151.079844
 30
0.0
 10
226.090280
 20
150.865485
 30
0.0
  0
SPLINE
  5
188
100
AcDbEntity
  8
0
 62
7
100
AcDbSpline
 70
8
 71
3
 72
8
 73
4
 74
0
 40
0
 40
0
 40
0
 40
0
 40
1
 40
1
 40
1
 40
1
 10
226.090280
 20
150.865485
 30
0.0
 10
225.718999
 20
150.651125
 30
0.0
 10
225.261561
 20
150.651125
 30
0.0
 10
224.890280
 20
150.865485
 30
0.0
  0
SPLINE
  5
189
100
AcDbEntity
  8
0
 62
7
100
AcDbSpline
 70
8
 71
3
 72
8
 73
4
 74
0
 40
0
 40
0
 40
0
 40
0
 40
1
 40
1
 40
1
 40
1
 10
224.890280
 20
150.865485
 30
0.0
 10
224.518999
 20
151.079844
 30
0.0
 10
224.290280
 20
151.475996
 30
0.0
 10
224.290280
 20
151.904715
 30
0.0
  0
SPLINE
  5
18a
100
AcDbEntity
  8
0
 62
7
100
AcDbSpline
 70
8
 71
3
 72
8
 73
4
 74
0
 40
0
 40
0
 40
0
 40
0
 40
1
 40
1
 40
1
 40
1
 10
224.290280
 20
151.904715
 30
0.0
 10
224.290280
 20
152.333434
 30
0.0
 10
224.518999
 20
152.729586
 30
0.0
 10
224.890280
 20
152.943946
 30
0.0
  0
SPLINE
  5
18b
100
AcDbEntity
  8
0
 62
7
100
AcDbSpline
 70
8
 71
3
 72
8
 73
4
 74
0
 40
0
 40
0
 40
0
 40
0
 40
1
 40
1
 40
1
 40
1
 10
224.890280
 20
152.943946
 30
0.0
 10
225.261561
 20
153.158305
 30
0.0
 10
225.718999
 20
153.158305
 30
0.0
 10
226.090280
 20
152.943946
 30
0.0
  0
SPLINE
  5
18c
100
AcDbEntity
  8
0
 62
7
100
AcDbSpline
 70
8
 71
3
 72
8
 73
4
 74
0
 40
0
 40
0
 40
0
 40
0
 40
1
 40
1
 40
1
 40
1
 10
226.090280
 20
152.943946
 30
0.0
 10
226.461561
 20
152.729586
 30
0.0
 10
226.690280
 20
152.333434
 30
0.0
 10
226.690280
 20
151.904715
 30
0.0
  0
LWPOLYLINE
  5
18d
100
AcDbEntity
  8
0
 62
7
100
AcDbPolyline
 90
2
 70
1
 10
210.768264
 20
151.904715
 30
0.0
 10
210.768264
 20
151.904715
 30
0.0
  0
SPLINE
  5
18e
100
AcDbEntity
  8
0
 62
7
100
AcDbSpline
 70
8
 71
3
 72
8
 73
4
 74
0
 40
0
 40
0
 40
0
 40
0
 40
1
 40
1
 40
1
 40
1
 10
242.755760
 20
152.048157
 30
0.0
 10
242.755760
 20
151.619438
 30
0.0
 10
242.527041
 20
151.223286
 30
0.0
 10
242.155760
 20
151.008926
 30
0.0
  0
SPLINE
  5
18f
100
AcDbEntity
  8
0
 62
7
100
AcDbSpline
 70
8
 71
3
 72
8
 73
4
 74
0
 40
0
 40
0
 40
0
 40
0
 40
1
 40
1
 40
1
 40
1
 10
242.155760
 20
151.008926
 30
0.0
 10
241.784479
 20
150.794567
 30
0.0
 10
241.327041
 20
150.794567
 30
0.0
 10
240.955760
 20
151.008926
 30
0.0
  0
SPLINE
  5
190
100
AcDbEntity
  8
0
 62
7
100
AcDbSpline
 70
8
 71
3
 72
8
 73
4
 74
0
 40
0
 40
0
 40
0
 40
0
 40
1
 40
1
 40
1
 40
1
 10
240.955760
 20
151.008926
 30
0.0
 10
240.584479
 20
151.223286
 30
0.0
 10
240.355760
 20
151.619438
 30
0.0
 10
240.355760
 20
152.048157
 30
0.0
  0
SPLINE
  5
191
100
AcDbEntity
  8
0
 62
7
100
AcDbSpline
 70
8
 71
3
 72
8
 73
4
 74
0
 40
0
 40
0
 40
0
 40
0
 40
1
 40
1
 40
1
 40
1
 10
240.355760
 20
152.048157
 30
0.0
 10
240.355760
 20
152.476876
 30
0.0
 10
240.584479
 20
152.873028
 30
0.0
 10
240.955760
 20
153.087387
 30
0.0
  0
SPLINE
  5
192
100
AcDbEntity
  8
0
 62
7
100
AcDbSpline
 70
8
 71
3
 72
8
 73
4
 74
0
 40
0
 40
0
 40
0
 40
0
 40
1
 40
1
 40
1
 40
1
 10
240.955760
 20
153.087387
 30
0.0
 10
241.327041
 20
153.301747
 30
0.0
 10
241.784479
 20
153.301747
 30
0.0
 10
242.155760
 20
153.087387
 30
0.0
  0
SPLINE
  5
193
100
AcDbEntity
  8
0
 62
7
100
AcDbSpline
 70
8
 71
3
 72
8
 73
4
 74
0
 40
0
 40
0
 40
0
 40
0
 40
1
 40
1
 40
1
 40
1
 10
242.155760
 20
153.087387
 30
0.0
 10
242.527041
 20
152.873028
 30
0.0
 10
242.755760
 20
152.476876
 30
0.0
 10
242.755760
 20
152.048157
 30
0.0
  0
LWPOLYLINE
  5
194
100
AcDbEntity
  8
0
 62
7
100
AcDbPolyline
 90
2
 70
1
 10
226.690280
 20
151.904715
 30
0.0
 10
226.690280
 20
151.904715
 30
0.0
  0
SPLINE
  5
195
100
AcDbEntity
  8
0
 62
7
100
AcDbSpline
 70
8
 71
3
 72
8
 73
4
 74
0
 40
0
 40
0
 40
0
 40
0
 40
1
 40
1
 40
1
 40
1
 10
243.042624
 20
136.126132
 30
0.0
 10
243.042624
 20
135.697413
 30
0.0
 10
242.813905
 20
135.301261
 30
0.0
 10
242.442624
 20
135.086902
 30
0.0
  0
SPLINE
  5
196
100
AcDbEntity
  8
0
 62
7
100
AcDbSpline
 70
8
 71
3
 72
8
 73
4
 74
0
 40
0
 40
0
 40
0
 40
0
 40
1
 40
1
 40
1
 40
1
 10
242.442624
 20
135.086902
 30
0.0
 10
242.071343
 20
134.872542
 30
0.0
 10
241.613905
 20
134.872542
 30
0.0
 10
241.242624
 20
135.086902
 30
0.0
  0
SPLINE
  5
197
100
AcDbEntity
  8
0
 62
7
100
AcDbSpline
 70
8
 71
3
 72
8
 73
4
 74
0
 40
0
 40
0
 40
0
 40
0
 40
1
 40
1
 40
1
 40
1
 10
241.242624
 20
135.086902
 30
0.0
 10
240.871343
 20
135.301261
 30
0.0
 10
240.642624
 20
135.697413
 30
0.0
 10
240.642624
 20
136.126132
 30
0.0
  0
SPLINE
  5
198
100
AcDbEntity
  8
0
 62
7
100
AcDbSpline
 70
8
 71
3
 72
8
 73
4
 74
0
 40
0
 40
0
 40
0
 40
0
 40
1
 40
1
 40
1
 40
1
 10
240.642624
 20
136.126132
 30
0.0
 10
240.642624
 20
136.554851
 30
0.0
 10
240.871343
 20
136.951003
 30
0.0
 10
241.242624
 20
137.165362
 30
0.0
  0
SPLINE
  5
199
100
AcDbEntity
  8
0
 62
7
100
AcDbSpline
 70
8
 71
3
 72
8
 73
4
 74
0
 40
0
 40
0
 40
0
 40
0
 40
1
 40
1
 40
1
 40
1
 10
241.242624
 20
137.165362
 30
0.0
 10
241.613905
 20
137.379722
 30
0.0
 10
242.071343
 20
137.379722
 30
0.0
 10
242.442624
 20
137.165362
 30
0.0
  0
SPLINE
  5
19a
100
AcDbEntity
  8
0
 62
7
100
AcDbSpline
 70
8
 71
3
 72
8
 73
4
 74
0
 40
0
 40
0
 40
0
 40
0
 40
1
 40
1
 40
1
 40
1
 10
242.442624
 20
137.165362
 30
0.0
 10
242.813905
 20
136.951003
 30
0.0
 10
243.042624
 20
136.554851
 30
0.0
 10
243.042624
 20
136.126132
 30
0.0
  0
LWPOLYLINE
  5
19b
100
AcDbEntity
  8
0
 62
7
100
AcDbPolyline
 90
2
 70
1
 10
242.755760
 20
152.048157
 30
0.0
 10
242.755760
 20
152.048157
 30
0.0
  0
SPLINE
  5
19c
100
AcDbEntity
  8
0
 62
7
100
AcDbSpline
 70
8
 71
3
 72
8
 73
4
 74
0
 40
0
 40
0
 40
0
 40
0
 40
1
 40
1
 40
1
 40
1
 10
226.833712
 20
135.839249
 30
0.0
 10
226.833712
 20
135.410530
 30
0.0
 10
226.604993
 20
135.014378
 30
0.0
 10
226.233712
 20
134.800018
 30
0.0
  0
SPLINE
  5
19d
100
AcDbEntity
  8
0
 62
7
100
AcDbSpline
 70
8
 71
3
 72
8
 73
4
 74
0
 40
0
 40
0
 40
0
 40
0
 40
1
 40
1
 40
1
 40
1
 10
226.233712
 20
134.800018
 30
0.0
 10
225.862431
 20
134.585659
 30
0.0
 10
225.404993
 20
134.585659
 30
0.0
 10
225.033712
 20
134.800018
 30
0.0
  0
SPLINE
  5
19e
100
AcDbEntity
  8
0
 62
7
100
AcDbSpline
 70
8
 71
3
 72
8
 73
4
 74
0
 40
0
 40
0
 40
0
 40
0
 40
1
 40
1
 40
1
 40
1
 10
225.033712
 20
134.800018
 30
0.0
 10
224.662431
 20
135.014378
 30
0.0
 10
224.433712
 20
135.410530
 30
0.0
 10
224.433712
 20
135.839249
 30
0.0
  0
SPLINE
  5
19f
100
AcDbEntity
  8
0
 62
7
100
AcDbSpline
 70
8
 71
3
 72
8
 73
4
 74
0
 40
0
 40
0
 40
0
 40
0
 40
1
 40
1
 40
1
 40
1
 10
224.433712
 20
135.839249
 30
0.0
 10
224.433712
 20
136.267968
 30
0.0
 10
224.662431
 20
136.664120
 30
0.0
 10
225.033712
 20
136.878479
 30
0.0
  0
SPLINE
  5
1a0
100
AcDbEntity
  8
0
 62
7
100
AcDbSpline
 70
8
 71
3
 72
8
 73
4
 74
0
 40
0
 40
0
 40
0
 40
0
 40
1
 40
1
 40
1
 40
1
 10
225.033712
 20
136.878479
 30
0.0
 10
225.404993
 20
137.092839
 30
0.0
 10
225.862431
 20
137.092839
 30
0.0
 10
226.233712
 20
136.878479
 30
0.0
  0
SPLINE
  5
1a1
100
AcDbEntity
  8
0
 62
7
100
AcDbSpline
 70
8
 71
3
 72
8
 73
4
 74
0
 40
0
 40
0
 40
0
 40
0
 40
1
 40
1
 40
1
 40
1
 10
226.233712
 20
136.878479
 30
0.0
 10
226.604993
 20
136.664120
 30
0.0
 10
226.833712
 20
136.267968
 30
0.0
 10
226.833712
 20
135.839249
 30
0.0
  0
LWPOLYLINE
  5
1a2
100
AcDbEntity
  8
0
 62
7
100
AcDbPolyline
 90
2
 70
1
 10
243.042624
 20
136.126132
 30
0.0
 10
243.042624
 20
136.126132
 30
0.0
  0
SPLINE
  5
1a3
100
AcDbEntity
  8
0
 62
7
100
AcDbSpline
 70
8
 71
3
 72
8
 73
4
 74
0
 40
0
 40
0
 40
0
 40
0
 40
1
 40
1
 40
1
 40
1
 10
211.055152
 20
135.839249
 30
0.0
 10
211.055152
 20
135.410530
 30
0.0
 10
210.826433
 20
135.014378
 30
0.0
 10
210.455152
 20
134.800018
 30
0.0
  0
SPLINE
  5
1a4
100
AcDbEntity
  8
0
 62
7
100
AcDbSpline
 70
8
 71
3
 72
8
 73
4
 74
0
 40
0
 40
0
 40
0
 40
0
 40
1
 40
1
 40
1
 40
1
 10
210.455152
 20
134.800018
 30
0.0
 10
210.083871
 20
134.585659
 30
0.0
 10
209.626433
 20
134.585659
 30
0.0
 10
209.255152
 20
134.800018
 30
0.0
  0
SPLINE
  5
1a5
100
AcDbEntity
  8
0
 62
7
100
AcDbSpline
 70
8
 71
3
 72
8
 73
4
 74
0
 40
0
 40
0
 40
0
 40
0
 40
1
 40
1
 40
1
 40
1
 10
209.255152
 20
134.800018
 30
0.0
 10
208.883871
 20
135.014378
 30
0.0
 10
208.655152
 20
135.410530
 30
0.0
 10
208.655152
 20
135.839249
 30
0.0
  0
SPLINE
  5
1a6
100
AcDbEntity
  8
0
 62
7
100
AcDbSpline
 70
8
 71
3
 72
8
 73
4
 74
0
 40
0
 40
0
 40
0
 40
0
 40
1
 40
1
 40
1
 40
1
 10
208.655152
 20
135.839249
 30
0.0
 10
208.655152
 20
136.267968
 30
0.0
 10
208.883871
 20
136.664120
 30
0.0
 10
209.255152
 20
136.878479
 30
0.0
  0
SPLINE
  5
1a7
100
AcDbEntity
  8
0
 62
7
100
AcDbSpline
 70
8
 71
3
 72
8
 73
4
 74
0
 40
0
 40
0
 40
0
 40
0
 40
1
 40
1
 40
1
 40
1
 10
209.255152
 20
136.878479
 30
0.0
 10
209.626433
 20
137.092839
 30
0.0
 10
210.083871
 20
137.092839
 30
0.0
 10
210.455152
 20
136.878479
 30
0.0
  0
SPLINE
  5
1a8
100
AcDbEntity
  8
0
 62
7
100
AcDbSpline
 70
8
 71
3
 72
8
 73
4
 74
0
 40
0
 40
0
 40
0
 40
0
 40
1
 40
1
 40
1
 40
1
 10
210.455152
 20
136.878479
 30
0.0
 10
210.826433
 20
136.664120
 30
0.0
 10
211.055152
 20
136.267968
 30
0.0
 10
211.055152
 20
135.839249
 30
0.0
  0
LWPOLYLINE
  5
1a9
100
AcDbEntity
  8
0
 62
7
100
AcDbPolyline
 90
2
 70
1
 10
226.833712
 20
135.839249
 30
0.0
 10
226.833712
 20
135.839249
 30
0.0
  0
SPLINE
  5
1aa
100
AcDbEntity
  8
0
 62
7
100
AcDbSpline
 70
8
 71
3
 72
8
 73
4
 74
0
 40
0
 40
0
 40
0
 40
0
 40
1
 40
1
 40
1
 40
1
 10
210.911696
 20
115.183649
 30
0.0
 10
210.911696
 20
114.754930
 30
0.0
 10
210.682977
 20
114.358778
 30
0.0
 10
210.311696
 20
114.144418
 30
0.0
  0
SPLINE
  5
1ab
100
AcDbEntity
  8
0
 62
7
100
AcDbSpline
 70
8
 71
3
 72
8
 73
4
 74
0
 40
0
 40
0
 40
0
 40
0
 40
1
 40
1
 40
1
 40
1
 10
210.311696
 20
114.144418
 30
0.0
 10
209.940415
 20
113.930059
 30
0.0
 10
209.482977
 20
113.930059
 30
0.0
 10
209.111696
 20
114.144418
 30
0.0
  0
SPLINE
  5
1ac
100
AcDbEntity
  8
0
 62
7
100
AcDbSpline
 70
8
 71
3
 72
8
 73
4
 74
0
 40
0
 40
0
 40
0
 40
0
 40
1
 40
1
 40
1
 40
1
 10
209.111696
 20
114.144418
 30
0.0
 10
208.740415
 20
114.358778
 30
0.0
 10
208.511696
 20
114.754930
 30
0.0
 10
208.511696
 20
115.183649
 30
0.0
  0
SPLINE
  5
1ad
100
AcDbEntity
  8
0
 62
7
100
AcDbSpline
 70
8
 71
3
 72
8
 73
4
 74
0
 40
0
 40
0
 40
0
 40
0
 40
1
 40
1
 40
1
 40
1
 10
208.511696
 20
115.183649
 30
0.0
 10
208.511696
 20
115.612368
 30
0.0
 10
208.740415
 20
116.008520
 30
0.0
 10
209.111696
 20
116.222879
 30
0.0
  0
SPLINE
  5
1ae
100
AcDbEntity
  8
0
 62
7
100
AcDbSpline
 70
8
 71
3
 72
8
 73
4
 74
0
 40
0
 40
0
 40
0
 40
0
 40
1
 40
1
 40
1
 40
1
 10
209.111696
 20
116.222879
 30
0.0
 10
209.482977
 20
116.437239
 30
0.0
 10
209.940415
 20
116.437239
 30
0.0
 10
210.311696
 20
116.222879
 30
0.0
  0
SPLINE
  5
1af
100
AcDbEntity
  8
0
 62
7
100
AcDbSpline
 70
8
 71
3
 72
8
 73
4
 74
0
 40
0
 40
0
 40
0
 40
0
 40
1
 40
1
 40
1
 40
1
 10
210.311696
 20
116.222879
 30
0.0
 10
210.682977
 20
116.008520
 30
0.0
 10
210.911696
 20
115.612368
 30
0.0
 10
210.911696
 20
115.183649
 30
0.0
  0
LWPOLYLINE
  5
1b0
100
AcDbEntity
  8
0
 62
7
100
AcDbPolyline
 90
2
 70
1
 10
211.055152
 20
135.839249
 30
0.0
 10
211.055152
 20
135.839249
 30
0.0
  0
SPLINE
  5
1b1
100
AcDbEntity
  8
0
 62
7
100
AcDbSpline
 70
8
 71
3
 72
8
 73
4
 74
0
 40
0
 40
0
 40
0
 40
0
 40
1
 40
1
 40
1
 40
1
 10
210.911696
 20
107.294360
 30
0.0
 10
210.911696
 20
106.865641
 30
0.0
 10
210.682977
 20
106.469489
 30
0.0
 10
210.311696
 20
106.255130
 30
0.0
  0
SPLINE
  5
1b2
100
AcDbEntity
  8
0
 62
7
100
AcDbSpline
 70
8
 71
3
 72
8
 73
4
 74
0
 40
0
 40
0
 40
0
 40
0
 40
1
 40
1
 40
1
 40
1
 10
210.311696
 20
106.255130
 30
0.0
 10
209.940415
 20
106.040770
 30
0.0
 10
209.482977
 20
106.040770
 30
0.0
 10
209.111696
 20
106.255130
 30
0.0
  0
SPLINE
  5
1b3
100
AcDbEntity
  8
0
 62
7
100
AcDbSpline
 70
8
 71
3
 72
8
 73
4
 74
0
 40
0
 40
0
 40
0
 40
0
 40
1
 40
1
 40
1
 40
1
 10
209.111696
 20
106.255130
 30
0.0
 10
208.740415
 20
106.469489
 30
0.0
 10
208.511696
 20
106.865641
 30
0.0
 10
208.511696
 20
107.294360
 30
0.0
  0
SPLINE
  5
1b4
100
AcDbEntity
  8
0
 62
7
100
AcDbSpline
 70
8
 71
3
 72
8
 73
4
 74
0
 40
0
 40
0
 40
0
 40
0
 40
1
 40
1
 40
1
 40
1
 10
208.511696
 20
107.294360
 30
0.0
 10
208.511696
 20
107.723079
 30
0.0
 10
208.740415
 20
108.119231
 30
0.0
 10
209.111696
 20
108.333590
 30
0.0
  0
SPLINE
  5
1b5
100
AcDbEntity
  8
0
 62
7
100
AcDbSpline
 70
8
 71
3
 72
8
 73
4
 74
0
 40
0
 40
0
 40
0
 40
0
 40
1
 40
1
 40
1
 40
1
 10
209.111696
 20
108.333590
 30
0.0
 10
209.482977
 20
108.547950
 30
0.0
 10
209.940415
 20
108.547950
 30
0.0
 10
210.311696
 20
108.333590
 30
0.0
  0
SPLINE
  5
1b6
100
AcDbEntity
  8
0
 62
7
100
AcDbSpline
 70
8
 71
3
 72
8
 73
4
 74
0
 40
0
 40
0
 40
0
 40
0
 40
1
 40
1
 40
1
 40
1
 10
210.311696
 20
108.333590
 30
0.0
 10
210.682977
 20
108.119231
 30
0.0
 10
210.911696
 20
107.723079
 30
0.0
 10
210.911696
 20
107.294360
 30
0.0
  0
LWPOLYLINE
  5
1b7
100
AcDbEntity
  8
0
 62
7
100
AcDbPolyline
 90
2
 70
1
 10
210.911696
 20
115.183649
 30
0.0
 10
210.911696
 20
115.183649
 30
0.0
  0
SPLINE
  5
1b8
100
AcDbEntity
  8
0
 62
7
100
AcDbSpline
 70
8
 71
3
 72
8
 73
4
 74
0
 40
0
 40
0
 40
0
 40
0
 40
1
 40
1
 40
1
 40
1
 10
226.833712
 20
115.327094
 30
0.0
 10
226.833712
 20
114.898375
 30
0.0
 10
226.604993
 20
114.502222
 30
0.0
 10
226.233712
 20
114.287863
 30
0.0
  0
SPLINE
  5
1b9
100
AcDbEntity
  8
0
 62
7
100
AcDbSpline
 70
8
 71
3
 72
8
 73
4
 74
0
 40
0
 40
0
 40
0
 40
0
 40
1
 40
1
 40
1
 40
1
 10
226.233712
 20
114.287863
 30
0.0
 10
225.862431
 20
114.073504
 30
0.0
 10
225.404993
 20
114.073504
 30
0.0
 10
225.033712
 20
114.287863
 30
0.0
  0
SPLINE
  5
1ba
100
AcDbEntity
  8
0
 62
7
100
AcDbSpline
 70
8
 71
3
 72
8
 73
4
 74
0
 40
0
 40
0
 40
0
 40
0
 40
1
 40
1
 40
1
 40
1
 10
225.033712
 20
114.287863
 30
0.0
 10
224.662431
 20
114.502222
 30
0.0
 10
224.433712
 20
114.898375
 30
0.0
 10
224.433712
 20
115.327094
 30
0.0
  0
SPLINE
  5
1bb
100
AcDbEntity
  8
0
 62
7
100
AcDbSpline
 70
8
 71
3
 72
8
 73
4
 74
0
 40
0
 40
0
 40
0
 40
0
 40
1
 40
1
 40
1
 40
1
 10
224.433712
 20
115.327094
 30
0.0
 10
224.433712
 20
115.755812
 30
0.0
 10
224.662431
 20
116.151965
 30
0.0
 10
225.033712
 20
116.366324
 30
0.0
  0
SPLINE
  5
1bc
100
AcDbEntity
  8
0
 62
7
100
AcDbSpline
 70
8
 71
3
 72
8
 73
4
 74
0
 40
0
 40
0
 40
0
 40
0
 40
1
 40
1
 40
1
 40
1
 10
225.033712
 20
116.366324
 30
0.0
 10
225.404993
 20
116.580683
 30
0.0
 10
225.862431
 20
116.580683
 30
0.0
 10
226.233712
 20
116.366324
 30
0.0
  0
SPLINE
  5
1bd
100
AcDbEntity
  8
0
 62
7
100
AcDbSpline
 70
8
 71
3
 72
8
 73
4
 74
0
 40
0
 40
0
 40
0
 40
0
 40
1
 40
1
 40
1
 40
1
 10
226.233712
 20
116.366324
 30
0.0
 10
226.604993
 20
116.151965
 30
0.0
 10
226.833712
 20
115.755812
 30
0.0
 10
226.833712
 20
115.327094
 30
0.0
  0
LWPOLYLINE
  5
1be
100
AcDbEntity
  8
0
 62
7
100
AcDbPolyline
 90
2
 70
1
 10
210.911696
 20
107.294360
 30
0.0
 10
210.911696
 20
107.294360
 30
0.0
  0
SPLINE
  5
1bf
100
AcDbEntity
  8
0
 62
7
100
AcDbSpline
 70
8
 71
3
 72
8
 73
4
 74
0
 40
0
 40
0
 40
0
 40
0
 40
1
 40
1
 40
1
 40
1
 10
226.833712
 20
107.294360
 30
0.0
 10
226.833712
 20
106.865641
 30
0.0
 10
226.604993
 20
106.469489
 30
0.0
 10
226.233712
 20
106.255130
 30
0.0
  0
SPLINE
  5
1c0
100
AcDbEntity
  8
0
 62
7
100
AcDbSpline
 70
8
 71
3
 72
8
 73
4
 74
0
 40
0
 40
0
 40
0
 40
0
 40
1
 40
1
 40
1
 40
1
 10
226.233712
 20
106.255130
 30
0.0
 10
225.862431
 20
106.040770
 30
0.0
 10
225.404993
 20
106.040770
 30
0.0
 10
225.033712
 20
106.255130
 30
0.0
  0
SPLINE
  5
1c1
100
AcDbEntity
  8
0
 62
7
100
AcDbSpline
 70
8
 71
3
 72
8
 73
4
 74
0
 40
0
 40
0
 40
0
 40
0
 40
1
 40
1
 40
1
 40
1
 10
225.033712
 20
106.255130
 30
0.0
 10
224.662431
 20
106.469489
 30
0.0
 10
224.433712
 20
106.865641
 30
0.0
 10
224.433712
 20
107.294360
 30
0.0
  0
SPLINE
  5
1c2
100
AcDbEntity
  8
0
 62
7
100
AcDbSpline
 70
8
 71
3
 72
8
 73
4
 74
0
 40
0
 40
0
 40
0
 40
0
 40
1
 40
1
 40
1
 40
1
 10
224.433712
 20
107.294360
 30
0.0
 10
224.433712
 20
107.723079
 30
0.0
 10
224.662431
 20
108.119231
 30
0.0
 10
225.033712
 20
108.333590
 30
0.0
  0
SPLINE
  5
1c3
100
AcDbEntity
  8
0
 62
7
100
AcDbSpline
 70
8
 71
3
 72
8
 73
4
 74
0
 40
0
 40
0
 40
0
 40
0
 40
1
 40
1
 40
1
 40
1
 10
225.033712
 20
108.333590
 30
0.0
 10
225.404993
 20
108.547950
 30
0.0
 10
225.862431
 20
108.547950
 30
0.0
 10
226.233712
 20
108.333590
 30
0.0
  0
SPLINE
  5
1c4
100
AcDbEntity
  8
0
 62
7
100
AcDbSpline
 70
8
 71
3
 72
8
 73
4
 74
0
 40
0
 40
0
 40
0
 40
0
 40
1
 40
1
 40
1
 40
1
 10
226.233712
 20
108.333590
 30
0.0
 10
226.604993
 20
108.119231
 30
0.0
 10
226.833712
 20
107.723079
 30
0.0
 10
226.833712
 20
107.294360
 30
0.0
  0
LWPOLYLINE
  5
1c5
100
AcDbEntity
  8
0
 62
7
100
AcDbPolyline
 90
2
 70
1
 10
226.833712
 20
115.327094
 30
0.0
 10
226.833712
 20
115.327094
 30
0.0
  0
SPLINE
  5
1c6
100
AcDbEntity
  8
0
 62
7
100
AcDbSpline
 70
8
 71
3
 72
8
 73
4
 74
0
 40
0
 40
0
 40
0
 40
0
 40
1
 40
1
 40
1
 40
1
 10
243.042624
 20
115.040210
 30
0.0
 10
243.042624
 20
114.611491
 30
0.0
 10
242.813905
 20
114.215338
 30
0.0
 10
242.442624
 20
114.000979
 30
0.0
  0
SPLINE
  5
1c7
100
AcDbEntity
  8
0
 62
7
100
AcDbSpline
 70
8
 71
3
 72
8
 73
4
 74
0
 40
0
 40
0
 40
0
 40
0
 40
1
 40
1
 40
1
 40
1
 10
242.442624
 20
114.000979
 30
0.0
 10
242.071343
 20
113.786620
 30
0.0
 10
241.613905
 20
113.786620
 30
0.0
 10
241.242624
 20
114.000979
 30
0.0
  0
SPLINE
  5
1c8
100
AcDbEntity
  8
0
 62
7
100
AcDbSpline
 70
8
 71
3
 72
8
 73
4
 74
0
 40
0
 40
0
 40
0
 40
0
 40
1
 40
1
 40
1
 40
1
 10
241.242624
 20
114.000979
 30
0.0
 10
240.871343
 20
114.215338
 30
0.0
 10
240.642624
 20
114.611491
 30
0.0
 10
240.642624
 20
115.040210
 30
0.0
  0
SPLINE
  5
1c9
100
AcDbEntity
  8
0
 62
7
100
AcDbSpline
 70
8
 71
3
 72
8
 73
4
 74
0
 40
0
 40
0
 40
0
 40
0
 40
1
 40
1
 40
1
 40
1
 10
240.642624
 20
115.040210
 30
0.0
 10
240.642624
 20
115.468928
 30
0.0
 10
240.871343
 20
115.865081
 30
0.0
 10
241.242624
 20
116.079440
 30
0.0
  0
SPLINE
  5
1ca
100
AcDbEntity
  8
0
 62
7
100
AcDbSpline
 70
8
 71
3
 72
8
 73
4
 74
0
 40
0
 40
0
 40
0
 40
0
 40
1
 40
1
 40
1
 40
1
 10
241.242624
 20
116.079440
 30
0.0
 10
241.613905
 20
116.293799
 30
0.0
 10
242.071343
 20
116.293799
 30
0.0
 10
242.442624
 20
116.079440
 30
0.0
  0
SPLINE
  5
1cb
100
AcDbEntity
  8
0
 62
7
100
AcDbSpline
 70
8
 71
3
 72
8
 73
4
 74
0
 40
0
 40
0
 40
0
 40
0
 40
1
 40
1
 40
1
 40
1
 10
242.442624
 20
116.079440
 30
0.0
 10
242.813905
 20
115.865081
 30
0.0
 10
243.042624
 20
115.468928
 30
0.0
 10
243.042624
 20
115.040210
 30
0.0
  0
LWPOLYLINE
  5
1cc
100
AcDbEntity
  8
0
 62
7
100
AcDbPolyline
 90
2
 70
1
 10
226.833712
 20
107.294360
 30
0.0
 10
226.833712
 20
107.294360
 30
0.0
  0
SPLINE
  5
1cd
100
AcDbEntity
  8
0
 62
7
100
AcDbSpline
 70
8
 71
3
 72
8
 73
4
 74
0
 40
0
 40
0
 40
0
 40
0
 40
1
 40
1
 40
1
 40
1
 10
251.218800
 20
107.150915
 30
0.0
 10
251.218800
 20
106.722196
 30
0.0
 10
250.990081
 20
106.326044
 30
0.0
 10
250.618800
 20
106.111685
 30
0.0
  0
SPLINE
  5
1ce
100
AcDbEntity
  8
0
 62
7
100
AcDbSpline
 70
8
 71
3
 72
8
 73
4
 74
0
 40
0
 40
0
 40
0
 40
0
 40
1
 40
1
 40
1
 40
1
 10
250.618800
 20
106.111685
 30
0.0
 10
250.247519
 20
105.897325
 30
0.0
 10
249.790081
 20
105.897325
 30
0.0
 10
249.418800
 20
106.111685
 30
0.0
  0
SPLINE
  5
1cf
100
AcDbEntity
  8
0
 62
7
100
AcDbSpline
 70
8
 71
3
 72
8
 73
4
 74
0
 40
0
 40
0
 40
0
 40
0
 40
1
 40
1
 40
1
 40
1
 10
249.418800
 20
106.111685
 30
0.0
 10
249.047519
 20
106.326044
 30
0.0
 10
248.818800
 20
106.722196
 30
0.0
 10
248.818800
 20
107.150915
 30
0.0
  0
SPLINE
  5
1d0
100
AcDbEntity
  8
0
 62
7
100
AcDbSpline
 70
8
 71
3
 72
8
 73
4
 74
0
 40
0
 40
0
 40
0
 40
0
 40
1
 40
1
 40
1
 40
1
 10
248.818800
 20
107.150915
 30
0.0
 10
248.818800
 20
107.579634
 30
0.0
 10
249.047519
 20
107.975786
 30
0.0
 10
249.418800
 20
108.190146
 30
0.0
  0
SPLINE
  5
1d1
100
AcDbEntity
  8
0
 62
7
100
AcDbSpline
 70
8
 71
3
 72
8
 73
4
 74
0
 40
0
 40
0
 40
0
 40
0
 40
1
 40
1
 40
1
 40
1
 10
249.418800
 20
108.190146
 30
0.0
 10
249.790081
 20
108.404505
 30
0.0
 10
250.247519
 20
108.404505
 30
0.0
 10
250.618800
 20
108.190146
 30
0.0
  0
SPLINE
  5
1d2
100
AcDbEntity
  8
0
 62
7
100
AcDbSpline
 70
8
 71
3
 72
8
 73
4
 74
0
 40
0
 40
0
 40
0
 40
0
 40
1
 40
1
 40
1
 40
1
 10
250.618800
 20
108.190146
 30
0.0
 10
250.990081
 20
107.975786
 30
0.0
 10
251.218800
 20
107.579634
 30
0.0
 10
251.218800
 20
107.150915
 30
0.0
  0
LWPOLYLINE
  5
1d3
100
AcDbEntity
  8
0
 62
7
100
AcDbPolyline
 90
2
 70
1
 10
243.042624
 20
115.040210
 30
0.0
 10
243.042624
 20
115.040210
 30
0.0
  0
SPLINE
  5
1d4
100
AcDbEntity
  8
0
 62
7
100
AcDbSpline
 70
8
 71
3
 72
8
 73
4
 74
0
 40
0
 40
0
 40
0
 40
0
 40
1
 40
1
 40
1
 40
1
 10
242.899192
 20
98.831305
 30
0.0
 10
242.899192
 20
98.402586
 30
0.0
 10
242.670473
 20
98.006434
 30
0.0
 10
242.299192
 20
97.792074
 30
0.0
  0
SPLINE
  5
1d5
100
AcDbEntity
  8
0
 62
7
100
AcDbSpline
 70
8
 71
3
 72
8
 73
4
 74
0
 40
0
 40
0
 40
0
 40
0
 40
1
 40
1
 40
1
 40
1
 10
242.299192
 20
97.792074
 30
0.0
 10
241.927911
 20
97.577715
 30
0.0
 10
241.470473
 20
97.577715
 30
0.0
 10
241.099192
 20
97.792074
 30
0.0
  0
SPLINE
  5
1d6
100
AcDbEntity
  8
0
 62
7
100
AcDbSpline
 70
8
 71
3
 72
8
 73
4
 74
0
 40
0
 40
0
 40
0
 40
0
 40
1
 40
1
 40
1
 40
1
 10
241.099192
 20
97.792074
 30
0.0
 10
240.727911
 20
98.006434
 30
0.0
 10
240.499192
 20
98.402586
 30
0.0
 10
240.499192
 20
98.831305
 30
0.0
  0
SPLINE
  5
1d7
100
AcDbEntity
  8
0
 62
7
100
AcDbSpline
 70
8
 71
3
 72
8
 73
4
 74
0
 40
0
 40
0
 40
0
 40
0
 40
1
 40
1
 40
1
 40
1
 10
240.499192
 20
98.831305
 30
0.0
 10
240.499192
 20
99.260024
 30
0.0
 10
240.727911
 20
99.656176
 30
0.0
 10
241.099192
 20
99.870535
 30
0.0
  0
SPLINE
  5
1d8
100
AcDbEntity
  8
0
 62
7
100
AcDbSpline
 70
8
 71
3
 72
8
 73
4
 74
0
 40
0
 40
0
 40
0
 40
0
 40
1
 40
1
 40
1
 40
1
 10
241.099192
 20
99.870535
 30
0.0
 10
241.470473
 20
100.084895
 30
0.0
 10
241.927911
 20
100.084895
 30
0.0
 10
242.299192
 20
99.870535
 30
0.0
  0
SPLINE
  5
1d9
100
AcDbEntity
  8
0
 62
7
100
AcDbSpline
 70
8
 71
3
 72
8
 73
4
 74
0
 40
0
 40
0
 40
0
 40
0
 40
1
 40
1
 40
1
 40
1
 10
242.299192
 20
99.870535
 30
0.0
 10
242.670473
 20
99.656176
 30
0.0
 10
242.899192
 20
99.260024
 30
0.0
 10
242.899192
 20
98.831305
 30
0.0
  0
LWPOLYLINE
  5
1da
100
AcDbEntity
  8
0
 62
7
100
AcDbPolyline
 90
2
 70
1
 10
251.218800
 20
107.150915
 30
0.0
 10
251.218800
 20
107.150915
 30
0.0
  0
SPLINE
  5
1db
100
AcDbEntity
  8
0
 62
7
100
AcDbSpline
 70
8
 71
3
 72
8
 73
4
 74
0
 40
0
 40
0
 40
0
 40
0
 40
1
 40
1
 40
1
 40
1
 10
242.755760
 20
107.150915
 30
0.0
 10
242.755760
 20
106.722196
 30
0.0
 10
242.527041
 20
106.326044
 30
0.0
 10
242.155760
 20
106.111685
 30
0.0
  0
SPLINE
  5
1dc
100
AcDbEntity
  8
0
 62
7
100
AcDbSpline
 70
8
 71
3
 72
8
 73
4
 74
0
 40
0
 40
0
 40
0
 40
0
 40
1
 40
1
 40
1
 40
1
 10
242.155760
 20
106.111685
 30
0.0
 10
241.784479
 20
105.897325
 30
0.0
 10
241.327041
 20
105.897325
 30
0.0
 10
240.955760
 20
106.111685
 30
0.0
  0
SPLINE
  5
1dd
100
AcDbEntity
  8
0
 62
7
100
AcDbSpline
 70
8
 71
3
 72
8
 73
4
 74
0
 40
0
 40
0
 40
0
 40
0
 40
1
 40
1
 40
1
 40
1
 10
240.955760
 20
106.111685
 30
0.0
 10
240.584479
 20
106.326044
 30
0.0
 10
240.355760
 20
106.722196
 30
0.0
 10
240.355760
 20
107.150915
 30
0.0
  0
SPLINE
  5
1de
100
AcDbEntity
  8
0
 62
7
100
AcDbSpline
 70
8
 71
3
 72
8
 73
4
 74
0
 40
0
 40
0
 40
0
 40
0
 40
1
 40
1
 40
1
 40
1
 10
240.355760
 20
107.150915
 30
0.0
 10
240.355760
 20
107.579634
 30
0.0
 10
240.584479
 20
107.975786
 30
0.0
 10
240.955760
 20
108.190146
 30
0.0
  0
SPLINE
  5
1df
100
AcDbEntity
  8
0
 62
7
100
AcDbSpline
 70
8
 71
3
 72
8
 73
4
 74
0
 40
0
 40
0
 40
0
 40
0
 40
1
 40
1
 40
1
 40
1
 10
240.955760
 20
108.190146
 30
0.0
 10
241.327041
 20
108.404505
 30
0.0
 10
241.784479
 20
108.404505
 30
0.0
 10
242.155760
 20
108.190146
 30
0.0
  0
SPLINE
  5
1e0
100
AcDbEntity
  8
0
 62
7
100
AcDbSpline
 70
8
 71
3
 72
8
 73
4
 74
0
 40
0
 40
0
 40
0
 40
0
 40
1
 40
1
 40
1
 40
1
 10
242.155760
 20
108.190146
 30
0.0
 10
242.527041
 20
107.975786
 30
0.0
 10
242.755760
 20
107.579634
 30
0.0
 10
242.755760
 20
107.150915
 30
0.0
  0
LWPOLYLINE
  5
1e1
100
AcDbEntity
  8
0
 62
7
100
AcDbPolyline
 90
2
 70
1
 10
242.899192
 20
98.831305
 30
0.0
 10
242.899192
 20
98.831305
 30
0.0
  0
SPLINE
  5
1e2
100
AcDbEntity
  8
0
 62
7
100
AcDbSpline
 70
8
 71
3
 72
8
 73
4
 74
0
 40
0
 40
0
 40
0
 40
0
 40
1
 40
1
 40
1
 40
1
 10
158.985824
 20
99.978833
 30
0.0
 10
158.985824
 20
99.550114
 30
0.0
 10
158.757105
 20
99.153962
 30
0.0
 10
158.385824
 20
98.939602
 30
0.0
  0
SPLINE
  5
1e3
100
AcDbEntity
  8
0
 62
7
100
AcDbSpline
 70
8
 71
3
 72
8
 73
4
 74
0
 40
0
 40
0
 40
0
 40
0
 40
1
 40
1
 40
1
 40
1
 10
158.385824
 20
98.939602
 30
0.0
 10
158.014543
 20
98.725243
 30
0.0
 10
157.557105
 20
98.725243
 30
0.0
 10
157.185824
 20
98.939602
 30
0.0
  0
SPLINE
  5
1e4
100
AcDbEntity
  8
0
 62
7
100
AcDbSpline
 70
8
 71
3
 72
8
 73
4
 74
0
 40
0
 40
0
 40
0
 40
0
 40
1
 40
1
 40
1
 40
1
 10
157.185824
 20
98.939602
 30
0.0
 10
156.814543
 20
99.153962
 30
0.0
 10
156.585824
 20
99.550114
 30
0.0
 10
156.585824
 20
99.978833
 30
0.0
  0
SPLINE
  5
1e5
100
AcDbEntity
  8
0
 62
7
100
AcDbSpline
 70
8
 71
3
 72
8
 73
4
 74
0
 40
0
 40
0
 40
0
 40
0
 40
1
 40
1
 40
1
 40
1
 10
156.585824
 20
99.978833
 30
0.0
 10
156.585824
 20
100.407552
 30
0.0
 10
156.814543
 20
100.803704
 30
0.0
 10
157.185824
 20
101.018063
 30
0.0
  0
SPLINE
  5
1e6
100
AcDbEntity
  8
0
 62
7
100
AcDbSpline
 70
8
 71
3
 72
8
 73
4
 74
0
 40
0
 40
0
 40
0
 40
0
 40
1
 40
1
 40
1
 40
1
 10
157.185824
 20
101.018063
 30
0.0
 10
157.557105
 20
101.232423
 30
0.0
 10
158.014543
 20
101.232423
 30
0.0
 10
158.385824
 20
101.018063
 30
0.0
  0
SPLINE
  5
1e7
100
AcDbEntity
  8
0
 62
7
100
AcDbSpline
 70
8
 71
3
 72
8
 73
4
 74
0
 40
0
 40
0
 40
0
 40
0
 40
1
 40
1
 40
1
 40
1
 10
158.385824
 20
101.018063
 30
0.0
 10
158.757105
 20
100.803704
 30
0.0
 10
158.985824
 20
100.407552
 30
0.0
 10
158.985824
 20
99.978833
 30
0.0
  0
LWPOLYLINE
  5
1e8
100
AcDbEntity
  8
0
 62
7
100
AcDbPolyline
 90
2
 70
1
 10
242.755760
 20
107.150915
 30
0.0
 10
242.755760
 20
107.150915
 30
0.0
  0
SPLINE
  5
1e9
100
AcDbEntity
  8
0
 62
7
100
AcDbSpline
 70
8
 71
3
 72
8
 73
4
 74
0
 40
0
 40
0
 40
0
 40
0
 40
1
 40
1
 40
1
 40
1
 10
158.555496
 20
88.073176
 30
0.0
 10
158.555496
 20
87.644457
 30
0.0
 10
158.326777
 20
87.248305
 30
0.0
 10
157.955496
 20
87.033946
 30
0.0
  0
SPLINE
  5
1ea
100
AcDbEntity
  8
0
 62
7
100
AcDbSpline
 70
8
 71
3
 72
8
 73
4
 74
0
 40
0
 40
0
 40
0
 40
0
 40
1
 40
1
 40
1
 40
1
 10
157.955496
 20
87.033946
 30
0.0
 10
157.584215
 20
86.819586
 30
0.0
 10
157.126777
 20
86.819586
 30
0.0
 10
156.755496
 20
87.033946
 30
0.0
  0
SPLINE
  5
1eb
100
AcDbEntity
  8
0
 62
7
100
AcDbSpline
 70
8
 71
3
 72
8
 73
4
 74
0
 40
0
 40
0
 40
0
 40
0
 40
1
 40
1
 40
1
 40
1
 10
156.755496
 20
87.033946
 30
0.0
 10
156.384215
 20
87.248305
 30
0.0
 10
156.155496
 20
87.644457
 30
0.0
 10
156.155496
 20
88.073176
 30
0.0
  0
SPLINE
  5
1ec
100
AcDbEntity
  8
0
 62
7
100
AcDbSpline
 70
8
 71
3
 72
8
 73
4
 74
0
 40
0
 40
0
 40
0
 40
0
 40
1
 40
1
 40
1
 40
1
 10
156.155496
 20
88.073176
 30
0.0
 10
156.155496
 20
88.501895
 30
0.0
 10
156.384215
 20
88.898047
 30
0.0
 10
156.755496
 20
89.112406
 30
0.0
  0
SPLINE
  5
1ed
100
AcDbEntity
  8
0
 62
7
100
AcDbSpline
 70
8
 71
3
 72
8
 73
4
 74
0
 40
0
 40
0
 40
0
 40
0
 40
1
 40
1
 40
1
 40
1
 10
156.755496
 20
89.112406
 30
0.0
 10
157.126777
 20
89.326766
 30
0.0
 10
157.584215
 20
89.326766
 30
0.0
 10
157.955496
 20
89.112406
 30
0.0
  0
SPLINE
  5
1ee
100
AcDbEntity
  8
0
 62
7
100
AcDbSpline
 70
8
 71
3
 72
8
 73
4
 74
0
 40
0
 40
0
 40
0
 40
0
 40
1
 40
1
 40
1
 40
1
 10
157.955496
 20
89.112406
 30
0.0
 10
158.326777
 20
88.898047
 30
0.0
 10
158.555496
 20
88.501895
 30
0.0
 10
158.555496
 20
88.073176
 30
0.0
  0
LWPOLYLINE
  5
1ef
100
AcDbEntity
  8
0
 62
7
100
AcDbPolyline
 90
2
 70
1
 10
158.985824
 20
99.978833
 30
0.0
 10
158.985824
 20
99.978833
 30
0.0
  0
SPLINE
  5
1f0
100
AcDbEntity
  8
0
 62
7
100
AcDbSpline
 70
8
 71
3
 72
8
 73
4
 74
0
 40
0
 40
0
 40
0
 40
0
 40
1
 40
1
 40
1
 40
1
 10
150.666208
 20
87.929736
 30
0.0
 10
150.666208
 20
87.501017
 30
0.0
 10
150.437489
 20
87.104865
 30
0.0
 10
150.066208
 20
86.890506
 30
0.0
  0
SPLINE
  5
1f1
100
AcDbEntity
  8
0
 62
7
100
AcDbSpline
 70
8
 71
3
 72
8
 73
4
 74
0
 40
0
 40
0
 40
0
 40
0
 40
1
 40
1
 40
1
 40
1
 10
150.066208
 20
86.890506
 30
0.0
 10
149.694927
 20
86.676146
 30
0.0
 10
149.237489
 20
86.676146
 30
0.0
 10
148.866208
 20
86.890506
 30
0.0
  0
SPLINE
  5
1f2
100
AcDbEntity
  8
0
 62
7
100
AcDbSpline
 70
8
 71
3
 72
8
 73
4
 74
0
 40
0
 40
0
 40
0
 40
0
 40
1
 40
1
 40
1
 40
1
 10
148.866208
 20
86.890506
 30
0.0
 10
148.494927
 20
87.104865
 30
0.0
 10
148.266208
 20
87.501017
 30
0.0
 10
148.266208
 20
87.929736
 30
0.0
  0
SPLINE
  5
1f3
100
AcDbEntity
  8
0
 62
7
100
AcDbSpline
 70
8
 71
3
 72
8
 73
4
 74
0
 40
0
 40
0
 40
0
 40
0
 40
1
 40
1
 40
1
 40
1
 10
148.266208
 20
87.929736
 30
0.0
 10
148.266208
 20
88.358455
 30
0.0
 10
148.494927
 20
88.754607
 30
0.0
 10
148.866208
 20
88.968966
 30
0.0
  0
SPLINE
  5
1f4
100
AcDbEntity
  8
0
 62
7
100
AcDbSpline
 70
8
 71
3
 72
8
 73
4
 74
0
 40
0
 40
0
 40
0
 40
0
 40
1
 40
1
 40
1
 40
1
 10
148.866208
 20
88.968966
 30
0.0
 10
149.237489
 20
89.183326
 30
0.0
 10
149.694927
 20
89.183326
 30
0.0
 10
150.066208
 20
88.968966
 30
0.0
  0
SPLINE
  5
1f5
100
AcDbEntity
  8
0
 62
7
100
AcDbSpline
 70
8
 71
3
 72
8
 73
4
 74
0
 40
0
 40
0
 40
0
 40
0
 40
1
 40
1
 40
1
 40
1
 10
150.066208
 20
88.968966
 30
0.0
 10
150.437489
 20
88.754607
 30
0.0
 10
150.666208
 20
88.358455
 30
0.0
 10
150.666208
 20
87.929736
 30
0.0
  0
LWPOLYLINE
  5
1f6
100
AcDbEntity
  8
0
 62
7
100
AcDbPolyline
 90
2
 70
1
 10
158.555496
 20
88.073176
 30
0.0
 10
158.555496
 20
88.073176
 30
0.0
  0
SPLINE
  5
1f7
100
AcDbEntity
  8
0
 62
7
100
AcDbSpline
 70
8
 71
3
 72
8
 73
4
 74
0
 40
0
 40
0
 40
0
 40
0
 40
1
 40
1
 40
1
 40
1
 10
94.150192
 20
71.864272
 30
0.0
 10
94.150192
 20
71.435553
 30
0.0
 10
93.921473
 20
71.039401
 30
0.0
 10
93.550192
 20
70.825042
 30
0.0
  0
SPLINE
  5
1f8
100
AcDbEntity
  8
0
 62
7
100
AcDbSpline
 70
8
 71
3
 72
8
 73
4
 74
0
 40
0
 40
0
 40
0
 40
0
 40
1
 40
1
 40
1
 40
1
 10
93.550192
 20
70.825042
 30
0.0
 10
93.178911
 20
70.610682
 30
0.0
 10
92.721473
 20
70.610682
 30
0.0
 10
92.350192
 20
70.825042
 30
0.0
  0
SPLINE
  5
1f9
100
AcDbEntity
  8
0
 62
7
100
AcDbSpline
 70
8
 71
3
 72
8
 73
4
 74
0
 40
0
 40
0
 40
0
 40
0
 40
1
 40
1
 40
1
 40
1
 10
92.350192
 20
70.825042
 30
0.0
 10
91.978911
 20
71.039401
 30
0.0
 10
91.750192
 20
71.435553
 30
0.0
 10
91.750192
 20
71.864272
 30
0.0
  0
SPLINE
  5
1fa
100
AcDbEntity
  8
0
 62
7
100
AcDbSpline
 70
8
 71
3
 72
8
 73
4
 74
0
 40
0
 40
0
 40
0
 40
0
 40
1
 40
1
 40
1
 40
1
 10
91.750192
 20
71.864272
 30
0.0
 10
91.750192
 20
72.292991
 30
0.0
 10
91.978911
 20
72.689143
 30
0.0
 10
92.350192
 20
72.903502
 30
0.0
  0
SPLINE
  5
1fb
100
AcDbEntity
  8
0
 62
7
100
AcDbSpline
 70
8
 71
3
 72
8
 73
4
 74
0
 40
0
 40
0
 40
0
 40
0
 40
1
 40
1
 40
1
 40
1
 10
92.350192
 20
72.903502
 30
0.0
 10
92.721473
 20
73.117862
 30
0.0
 10
93.178911
 20
73.117862
 30
0.0
 10
93.550192
 20
72.903502
 30
0.0
  0
SPLINE
  5
1fc
100
AcDbEntity
  8
0
 62
7
100
AcDbSpline
 70
8
 71
3
 72
8
 73
4
 74
0
 40
0
 40
0
 40
0
 40
0
 40
1
 40
1
 40
1
 40
1
 10
93.550192
 20
72.903502
 30
0.0
 10
93.921473
 20
72.689143
 30
0.0
 10
94.150192
 20
72.292991
 30
0.0
 10
94.150192
 20
71.864272
 30
0.0
  0
LWPOLYLINE
  5
1fd
100
AcDbEntity
  8
0
 62
7
100
AcDbPolyline
 90
2
 70
1
 10
150.666208
 20
87.929736
 30
0.0
 10
150.666208
 20
87.929736
 30
0.0
  0
SPLINE
  5
1fe
100
AcDbEntity
  8
0
 62
7
100
AcDbSpline
 70
8
 71
3
 72
8
 73
4
 74
0
 40
0
 40
0
 40
0
 40
0
 40
1
 40
1
 40
1
 40
1
 10
110.072216
 20
71.864272
 30
0.0
 10
110.072216
 20
71.435553
 30
0.0
 10
109.843497
 20
71.039401
 30
0.0
 10
109.472216
 20
70.825042
 30
0.0
  0
SPLINE
  5
1ff
100
AcDbEntity
  8
0
 62
7
100
AcDbSpline
 70
8
 71
3
 72
8
 73
4
 74
0
 40
0
 40
0
 40
0
 40
0
 40
1
 40
1
 40
1
 40
1
 10
109.472216
 20
70.825042
 30
0.0
 10
109.100935
 20
70.610682
 30
0.0
 10
108.643497
 20
70.610682
 30
0.0
 10
108.272216
 20
70.825042
 30
0.0
  0
SPLINE
  5
200
100
AcDbEntity
  8
0
 62
7
100
AcDbSpline
 70
8
 71
3
 72
8
 73
4
 74
0
 40
0
 40
0
 40
0
 40
0
 40
1
 40
1
 40
1
 40
1
 10
108.272216
 20
70.825042
 30
0.0
 10
107.900935
 20
71.039401
 30
0.0
 10
107.672216
 20
71.435553
 30
0.0
 10
107.672216
 20
71.864272
 30
0.0
  0
SPLINE
  5
201
100
AcDbEntity
  8
0
 62
7
100
AcDbSpline
 70
8
 71
3
 72
8
 73
4
 74
0
 40
0
 40
0
 40
0
 40
0
 40
1
 40
1
 40
1
 40
1
 10
107.672216
 20
71.864272
 30
0.0
 10
107.672216
 20
72.292991
 30
0.0
 10
107.900935
 20
72.689143
 30
0.0
 10
108.272216
 20
72.903502
 30
0.0
  0
SPLINE
  5
202
100
AcDbEntity
  8
0
 62
7
100
AcDbSpline
 70
8
 71
3
 72
8
 73
4
 74
0
 40
0
 40
0
 40
0
 40
0
 40
1
 40
1
 40
1
 40
1
 10
108.272216
 20
72.903502
 30
0.0
 10
108.643497
 20
73.117862
 30
0.0
 10
109.100935
 20
73.117862
 30
0.0
 10
109.472216
 20
72.903502
 30
0.0
  0
SPLINE
  5
203
100
AcDbEntity
  8
0
 62
7
100
AcDbSpline
 70
8
 71
3
 72
8
 73
4
 74
0
 40
0
 40
0
 40
0
 40
0
 40
1
 40
1
 40
1
 40
1
 10
109.472216
 20
72.903502
 30
0.0
 10
109.843497
 20
72.689143
 30
0.0
 10
110.072216
 20
72.292991
 30
0.0
 10
110.072216
 20
71.864272
 30
0.0
  0
LWPOLYLINE
  5
204
100
AcDbEntity
  8
0
 62
7
100
AcDbPolyline
 90
2
 70
1
 10
94.150192
 20
71.864272
 30
0.0
 10
94.150192
 20
71.864272
 30
0.0
  0
SPLINE
  5
205
100
AcDbEntity
  8
0
 62
7
100
AcDbSpline
 70
8
 71
3
 72
8
 73
4
 74
0
 40
0
 40
0
 40
0
 40
0
 40
1
 40
1
 40
1
 40
1
 10
110.072216
 20
40.020224
 30
0.0
 10
110.072216
 20
39.591505
 30
0.0
 10
109.843497
 20
39.195353
 30
0.0
 10
109.472216
 20
38.980994
 30
0.0
  0
SPLINE
  5
206
100
AcDbEntity
  8
0
 62
7
100
AcDbSpline
 70
8
 71
3
 72
8
 73
4
 74
0
 40
0
 40
0
 40
0
 40
0
 40
1
 40
1
 40
1
 40
1
 10
109.472216
 20
38.980994
 30
0.0
 10
109.100935
 20
38.766634
 30
0.0
 10
108.643497
 20
38.766634
 30
0.0
 10
108.272216
 20
38.980994
 30
0.0
  0
SPLINE
  5
207
100
AcDbEntity
  8
0
 62
7
100
AcDbSpline
 70
8
 71
3
 72
8
 73
4
 74
0
 40
0
 40
0
 40
0
 40
0
 40
1
 40
1
 40
1
 40
1
 10
108.272216
 20
38.980994
 30
0.0
 10
107.900935
 20
39.195353
 30
0.0
 10
107.672216
 20
39.591505
 30
0.0
 10
107.672216
 20
40.020224
 30
0.0
  0
SPLINE
  5
208
100
AcDbEntity
  8
0
 62
7
100
AcDbSpline
 70
8
 71
3
 72
8
 73
4
 74
0
 40
0
 40
0
 40
0
 40
0
 40
1
 40
1
 40
1
 40
1
 10
107.672216
 20
40.020224
 30
0.0
 10
107.672216
 20
40.448943
 30
0.0
 10
107.900935
 20
40.845095
 30
0.0
 10
108.272216
 20
41.059454
 30
0.0
  0
SPLINE
  5
209
100
AcDbEntity
  8
0
 62
7
100
AcDbSpline
 70
8
 71
3
 72
8
 73
4
 74
0
 40
0
 40
0
 40
0
 40
0
 40
1
 40
1
 40
1
 40
1
 10
108.272216
 20
41.059454
 30
0.0
 10
108.643497
 20
41.273814
 30
0.0
 10
109.100935
 20
41.273814
 30
0.0
 10
109.472216
 20
41.059454
 30
0.0
  0
SPLINE
  5
20a
100
AcDbEntity
  8
0
 62
7
100
AcDbSpline
 70
8
 71
3
 72
8
 73
4
 74
0
 40
0
 40
0
 40
0
 40
0
 40
1
 40
1
 40
1
 40
1
 10
109.472216
 20
41.059454
 30
0.0
 10
109.843497
 20
40.845095
 30
0.0
 10
110.072216
 20
40.448943
 30
0.0
 10
110.072216
 20
40.020224
 30
0.0
  0
LWPOLYLINE
  5
20b
100
AcDbEntity
  8
0
 62
7
100
AcDbPolyline
 90
2
 70
1
 10
110.072216
 20
71.864272
 30
0.0
 10
110.072216
 20
71.864272
 30
0.0
  0
SPLINE
  5
20c
100
AcDbEntity
  8
0
 62
7
100
AcDbSpline
 70
8
 71
3
 72
8
 73
4
 74
0
 40
0
 40
0
 40
0
 40
0
 40
1
 40
1
 40
1
 40
1
 10
94.006752
 20
40.020224
 30
0.0
 10
94.006752
 20
39.591505
 30
0.0
 10
93.778033
 20
39.195353
 30
0.0
 10
93.406752
 20
38.980994
 30
0.0
  0
SPLINE
  5
20d
100
AcDbEntity
  8
0
 62
7
100
AcDbSpline
 70
8
 71
3
 72
8
 73
4
 74
0
 40
0
 40
0
 40
0
 40
0
 40
1
 40
1
 40
1
 40
1
 10
93.406752
 20
38.980994
 30
0.0
 10
93.035471
 20
38.766634
 30
0.0
 10
92.578033
 20
38.766634
 30
0.0
 10
92.206752
 20
38.980994
 30
0.0
  0
SPLINE
  5
20e
100
AcDbEntity
  8
0
 62
7
100
AcDbSpline
 70
8
 71
3
 72
8
 73
4
 74
0
 40
0
 40
0
 40
0
 40
0
 40
1
 40
1
 40
1
 40
1
 10
92.206752
 20
38.980994
 30
0.0
 10
91.835471
 20
39.195353
 30
0.0
 10
91.606752
 20
39.591505
 30
0.0
 10
91.606752
 20
40.020224
 30
0.0
  0
SPLINE
  5
20f
100
AcDbEntity
  8
0
 62
7
100
AcDbSpline
 70
8
 71
3
 72
8
 73
4
 74
0
 40
0
 40
0
 40
0
 40
0
 40
1
 40
1
 40
1
 40
1
 10
91.606752
 20
40.020224
 30
0.0
 10
91.606752
 20
40.448943
 30
0.0
 10
91.835471
 20
40.845095
 30
0.0
 10
92.206752
 20
41.059454
 30
0.0
  0
SPLINE
  5
210
100
AcDbEntity
  8
0
 62
7
100
AcDbSpline
 70
8
 71
3
 72
8
 73
4
 74
0
 40
0
 40
0
 40
0
 40
0
 40
1
 40
1
 40
1
 40
1
 10
92.206752
 20
41.059454
 30
0.0
 10
92.578033
 20
41.273814
 30
0.0
 10
93.035471
 20
41.273814
 30
0.0
 10
93.406752
 20
41.059454
 30
0.0
  0
SPLINE
  5
211
100
AcDbEntity
  8
0
 62
7
100
AcDbSpline
 70
8
 71
3
 72
8
 73
4
 74
0
 40
0
 40
0
 40
0
 40
0
 40
1
 40
1
 40
1
 40
1
 10
93.406752
 20
41.059454
 30
0.0
 10
93.778033
 20
40.845095
 30
0.0
 10
94.006752
 20
40.448943
 30
0.0
 10
94.006752
 20
40.020224
 30
0.0
  0
LWPOLYLINE
  5
212
100
AcDbEntity
  8
0
 62
7
100
AcDbPolyline
 90
2
 70
1
 10
110.072216
 20
40.020224
 30
0.0
 10
110.072216
 20
40.020224
 30
0.0
  0
SPLINE
  5
213
100
AcDbEntity
  8
0
 62
7
100
AcDbSpline
 70
8
 71
3
 72
8
 73
4
 74
0
 40
0
 40
0
 40
0
 40
0
 40
1
 40
1
 40
1
 40
1
 10
128.432752
 20
51.208664
 30
0.0
 10
128.432752
 20
50.779945
 30
0.0
 10
128.204033
 20
50.383793
 30
0.0
 10
127.832752
 20
50.169434
 30
0.0
  0
SPLINE
  5
214
100
AcDbEntity
  8
0
 62
7
100
AcDbSpline
 70
8
 71
3
 72
8
 73
4
 74
0
 40
0
 40
0
 40
0
 40
0
 40
1
 40
1
 40
1
 40
1
 10
127.832752
 20
50.169434
 30
0.0
 10
127.461471
 20
49.955074
 30
0.0
 10
127.004033
 20
49.955074
 30
0.0
 10
126.632752
 20
50.169434
 30
0.0
  0
SPLINE
  5
215
100
AcDbEntity
  8
0
 62
7
100
AcDbSpline
 70
8
 71
3
 72
8
 73
4
 74
0
 40
0
 40
0
 40
0
 40
0
 40
1
 40
1
 40
1
 40
1
 10
126.632752
 20
50.169434
 30
0.0
 10
126.261471
 20
50.383793
 30
0.0
 10
126.032752
 20
50.779945
 30
0.0
 10
126.032752
 20
51.208664
 30
0.0
  0
SPLINE
  5
216
100
AcDbEntity
  8
0
 62
7
100
AcDbSpline
 70
8
 71
3
 72
8
 73
4
 74
0
 40
0
 40
0
 40
0
 40
0
 40
1
 40
1
 40
1
 40
1
 10
126.032752
 20
51.208664
 30
0.0
 10
126.032752
 20
51.637383
 30
0.0
 10
126.261471
 20
52.033535
 30
0.0
 10
126.632752
 20
52.247894
 30
0.0
  0
SPLINE
  5
217
100
AcDbEntity
  8
0
 62
7
100
AcDbSpline
 70
8
 71
3
 72
8
 73
4
 74
0
 40
0
 40
0
 40
0
 40
0
 40
1
 40
1
 40
1
 40
1
 10
126.632752
 20
52.247894
 30
0.0
 10
127.004033
 20
52.462254
 30
0.0
 10
127.461471
 20
52.462254
 30
0.0
 10
127.832752
 20
52.247894
 30
0.0
  0
SPLINE
  5
218
100
AcDbEntity
  8
0
 62
7
100
AcDbSpline
 70
8
 71
3
 72
8
 73
4
 74
0
 40
0
 40
0
 40
0
 40
0
 40
1
 40
1
 40
1
 40
1
 10
127.832752
 20
52.247894
 30
0.0
 10
128.204033
 20
52.033535
 30
0.0
 10
128.432752
 20
51.637383
 30
0.0
 10
128.432752
 20
51.208664
 30
0.0
  0
LWPOLYLINE
  5
219
100
AcDbEntity
  8
0
 62
7
100
AcDbPolyline
 90
2
 70
1
 10
94.006752
 20
40.020224
 30
0.0
 10
94.006752
 20
40.020224
 30
0.0
  0
SPLINE
  5
21a
100
AcDbEntity
  8
0
 62
7
100
AcDbSpline
 70
8
 71
3
 72
8
 73
4
 74
0
 40
0
 40
0
 40
0
 40
0
 40
1
 40
1
 40
1
 40
1
 10
128.576200
 20
43.032496
 30
0.0
 10
128.576200
 20
42.603777
 30
0.0
 10
128.347481
 20
42.207625
 30
0.0
 10
127.976200
 20
41.993266
 30
0.0
  0
SPLINE
  5
21b
100
AcDbEntity
  8
0
 62
7
100
AcDbSpline
 70
8
 71
3
 72
8
 73
4
 74
0
 40
0
 40
0
 40
0
 40
0
 40
1
 40
1
 40
1
 40
1
 10
127.976200
 20
41.993266
 30
0.0
 10
127.604919
 20
41.778906
 30
0.0
 10
127.147481
 20
41.778906
 30
0.0
 10
126.776200
 20
41.993266
 30
0.0
  0
SPLINE
  5
21c
100
AcDbEntity
  8
0
 62
7
100
AcDbSpline
 70
8
 71
3
 72
8
 73
4
 74
0
 40
0
 40
0
 40
0
 40
0
 40
1
 40
1
 40
1
 40
1
 10
126.776200
 20
41.993266
 30
0.0
 10
126.404919
 20
42.207625
 30
0.0
 10
126.176200
 20
42.603777
 30
0.0
 10
126.176200
 20
43.032496
 30
0.0
  0
SPLINE
  5
21d
100
AcDbEntity
  8
0
 62
7
100
AcDbSpline
 70
8
 71
3
 72
8
 73
4
 74
0
 40
0
 40
0
 40
0
 40
0
 40
1
 40
1
 40
1
 40
1
 10
126.176200
 20
43.032496
 30
0.0
 10
126.176200
 20
43.461215
 30
0.0
 10
126.404919
 20
43.857367
 30
0.0
 10
126.776200
 20
44.071726
 30
0.0
  0
SPLINE
  5
21e
100
AcDbEntity
  8
0
 62
7
100
AcDbSpline
 70
8
 71
3
 72
8
 73
4
 74
0
 40
0
 40
0
 40
0
 40
0
 40
1
 40
1
 40
1
 40
1
 10
126.776200
 20
44.071726
 30
0.0
 10
127.147481
 20
44.286086
 30
0.0
 10
127.604919
 20
44.286086
 30
0.0
 10
127.976200
 20
44.071726
 30
0.0
  0
SPLINE
  5
21f
100
AcDbEntity
  8
0
 62
7
100
AcDbSpline
 70
8
 71
3
 72
8
 73
4
 74
0
 40
0
 40
0
 40
0
 40
0
 40
1
 40
1
 40
1
 40
1
 10
127.976200
 20
44.071726
 30
0.0
 10
128.347481
 20
43.857367
 30
0.0
 10
128.576200
 20
43.461215
 30
0.0
 10
128.576200
 20
43.032496
 30
0.0
  0
LWPOLYLINE
  5
220
100
AcDbEntity
  8
0
 62
7
100
AcDbPolyline
 90
2
 70
1
 10
128.432752
 20
51.208664
 30
0.0
 10
128.432752
 20
51.208664
 30
0.0
  0
SPLINE
  5
221
100
AcDbEntity
  8
0
 62
7
100
AcDbSpline
 70
8
 71
3
 72
8
 73
4
 74
0
 40
0
 40
0
 40
0
 40
0
 40
1
 40
1
 40
1
 40
1
 10
146.936728
 20
27.110472
 30
0.0
 10
146.936728
 20
26.681753
 30
0.0
 10
146.708009
 20
26.285601
 30
0.0
 10
146.336728
 20
26.071242
 30
0.0
  0
SPLINE
  5
222
100
AcDbEntity
  8
0
 62
7
100
AcDbSpline
 70
8
 71
3
 72
8
 73
4
 74
0
 40
0
 40
0
 40
0
 40
0
 40
1
 40
1
 40
1
 40
1
 10
146.336728
 20
26.071242
 30
0.0
 10
145.965447
 20
25.856882
 30
0.0
 10
145.508009
 20
25.856882
 30
0.0
 10
145.136728
 20
26.071242
 30
0.0
  0
SPLINE
  5
223
100
AcDbEntity
  8
0
 62
7
100
AcDbSpline
 70
8
 71
3
 72
8
 73
4
 74
0
 40
0
 40
0
 40
0
 40
0
 40
1
 40
1
 40
1
 40
1
 10
145.136728
 20
26.071242
 30
0.0
 10
144.765447
 20
26.285601
 30
0.0
 10
144.536728
 20
26.681753
 30
0.0
 10
144.536728
 20
27.110472
 30
0.0
  0
SPLINE
  5
224
100
AcDbEntity
  8
0
 62
7
100
AcDbSpline
 70
8
 71
3
 72
8
 73
4
 74
0
 40
0
 40
0
 40
0
 40
0
 40
1
 40
1
 40
1
 40
1
 10
144.536728
 20
27.110472
 30
0.0
 10
144.536728
 20
27.539191
 30
0.0
 10
144.765447
 20
27.935343
 30
0.0
 10
145.136728
 20
28.149702
 30
0.0
  0
SPLINE
  5
225
100
AcDbEntity
  8
0
 62
7
100
AcDbSpline
 70
8
 71
3
 72
8
 73
4
 74
0
 40
0
 40
0
 40
0
 40
0
 40
1
 40
1
 40
1
 40
1
 10
145.136728
 20
28.149702
 30
0.0
 10
145.508009
 20
28.364062
 30
0.0
 10
145.965447
 20
28.364062
 30
0.0
 10
146.336728
 20
28.149702
 30
0.0
  0
SPLINE
  5
226
100
AcDbEntity
  8
0
 62
7
100
AcDbSpline
 70
8
 71
3
 72
8
 73
4
 74
0
 40
0
 40
0
 40
0
 40
0
 40
1
 40
1
 40
1
 40
1
 10
146.336728
 20
28.149702
 30
0.0
 10
146.708009
 20
27.935343
 30
0.0
 10
146.936728
 20
27.539191
 30
0.0
 10
146.936728
 20
27.110472
 30
0.0
  0
LWPOLYLINE
  5
227
100
AcDbEntity
  8
0
 62
7
100
AcDbPolyline
 90
2
 70
1
 10
128.576200
 20
43.032496
 30
0.0
 10
128.576200
 20
43.032496
 30
0.0
  0
SPLINE
  5
228
100
AcDbEntity
  8
0
 62
7
100
AcDbSpline
 70
8
 71
3
 72
8
 73
4
 74
0
 40
0
 40
0
 40
0
 40
0
 40
1
 40
1
 40
1
 40
1
 10
146.936728
 20
56.085696
 30
0.0
 10
146.936728
 20
55.656977
 30
0.0
 10
146.708009
 20
55.260825
 30
0.0
 10
146.336728
 20
55.046466
 30
0.0
  0
SPLINE
  5
229
100
AcDbEntity
  8
0
 62
7
100
AcDbSpline
 70
8
 71
3
 72
8
 73
4
 74
0
 40
0
 40
0
 40
0
 40
0
 40
1
 40
1
 40
1
 40
1
 10
146.336728
 20
55.046466
 30
0.0
 10
145.965447
 20
54.832106
 30
0.0
 10
145.508009
 20
54.832106
 30
0.0
 10
145.136728
 20
55.046466
 30
0.0
  0
SPLINE
  5
22a
100
AcDbEntity
  8
0
 62
7
100
AcDbSpline
 70
8
 71
3
 72
8
 73
4
 74
0
 40
0
 40
0
 40
0
 40
0
 40
1
 40
1
 40
1
 40
1
 10
145.136728
 20
55.046466
 30
0.0
 10
144.765447
 20
55.260825
 30
0.0
 10
144.536728
 20
55.656977
 30
0.0
 10
144.536728
 20
56.085696
 30
0.0
  0
SPLINE
  5
22b
100
AcDbEntity
  8
0
 62
7
100
AcDbSpline
 70
8
 71
3
 72
8
 73
4
 74
0
 40
0
 40
0
 40
0
 40
0
 40
1
 40
1
 40
1
 40
1
 10
144.536728
 20
56.085696
 30
0.0
 10
144.536728
 20
56.514415
 30
0.0
 10
144.765447
 20
56.910567
 30
0.0
 10
145.136728
 20
57.124926
 30
0.0
  0
SPLINE
  5
22c
100
AcDbEntity
  8
0
 62
7
100
AcDbSpline
 70
8
 71
3
 72
8
 73
4
 74
0
 40
0
 40
0
 40
0
 40
0
 40
1
 40
1
 40
1
 40
1
 10
145.136728
 20
57.124926
 30
0.0
 10
145.508009
 20
57.339286
 30
0.0
 10
145.965447
 20
57.339286
 30
0.0
 10
146.336728
 20
57.124926
 30
0.0
  0
SPLINE
  5
22d
100
AcDbEntity
  8
0
 62
7
100
AcDbSpline
 70
8
 71
3
 72
8
 73
4
 74
0
 40
0
 40
0
 40
0
 40
0
 40
1
 40
1
 40
1
 40
1
 10
146.336728
 20
57.124926
 30
0.0
 10
146.708009
 20
56.910567
 30
0.0
 10
146.936728
 20
56.514415
 30
0.0
 10
146.936728
 20
56.085696
 30
0.0
  0
LWPOLYLINE
  5
22e
100
AcDbEntity
  8
0
 62
7
100
AcDbPolyline
 90
2
 70
1
 10
146.936728
 20
27.110472
 30
0.0
 10
146.936728
 20
27.110472
 30
0.0
  0
SPLINE
  5
22f
100
AcDbEntity
  8
0
 62
7
100
AcDbSpline
 70
8
 71
3
 72
8
 73
4
 74
0
 40
0
 40
0
 40
0
 40
0
 40
1
 40
1
 40
1
 40
1
 10
150.953088
 20
71.864272
 30
0.0
 10
150.953088
 20
71.435553
 30
0.0
 10
150.724369
 20
71.039401
 30
0.0
 10
150.353088
 20
70.825042
 30
0.0
  0
SPLINE
  5
230
100
AcDbEntity
  8
0
 62
7
100
AcDbSpline
 70
8
 71
3
 72
8
 73
4
 74
0
 40
0
 40
0
 40
0
 40
0
 40
1
 40
1
 40
1
 40
1
 10
150.353088
 20
70.825042
 30
0.0
 10
149.981807
 20
70.610682
 30
0.0
 10
149.524369
 20
70.610682
 30
0.0
 10
149.153088
 20
70.825042
 30
0.0
  0
SPLINE
  5
231
100
AcDbEntity
  8
0
 62
7
100
AcDbSpline
 70
8
 71
3
 72
8
 73
4
 74
0
 40
0
 40
0
 40
0
 40
0
 40
1
 40
1
 40
1
 40
1
 10
149.153088
 20
70.825042
 30
0.0
 10
148.781807
 20
71.039401
 30
0.0
 10
148.553088
 20
71.435553
 30
0.0
 10
148.553088
 20
71.864272
 30
0.0
  0
SPLINE
  5
232
100
AcDbEntity
  8
0
 62
7
100
AcDbSpline
 70
8
 71
3
 72
8
 73
4
 74
0
 40
0
 40
0
 40
0
 40
0
 40
1
 40
1
 40
1
 40
1
 10
148.553088
 20
71.864272
 30
0.0
 10
148.553088
 20
72.292991
 30
0.0
 10
148.781807
 20
72.689143
 30
0.0
 10
149.153088
 20
72.903502
 30
0.0
  0
SPLINE
  5
233
100
AcDbEntity
  8
0
 62
7
100
AcDbSpline
 70
8
 71
3
 72
8
 73
4
 74
0
 40
0
 40
0
 40
0
 40
0
 40
1
 40
1
 40
1
 40
1
 10
149.153088
 20
72.903502
 30
0.0
 10
149.524369
 20
73.117862
 30
0.0
 10
149.981807
 20
73.117862
 30
0.0
 10
150.353088
 20
72.903502
 30
0.0
  0
SPLINE
  5
234
100
AcDbEntity
  8
0
 62
7
100
AcDbSpline
 70
8
 71
3
 72
8
 73
4
 74
0
 40
0
 40
0
 40
0
 40
0
 40
1
 40
1
 40
1
 40
1
 10
150.353088
 20
72.903502
 30
0.0
 10
150.724369
 20
72.689143
 30
0.0
 10
150.953088
 20
72.292991
 30
0.0
 10
150.953088
 20
71.864272
 30
0.0
  0
LWPOLYLINE
  5
235
100
AcDbEntity
  8
0
 62
7
100
AcDbPolyline
 90
2
 70
1
 10
146.936728
 20
56.085696
 30
0.0
 10
146.936728
 20
56.085696
 30
0.0
  0
SPLINE
  5
236
100
AcDbEntity
  8
0
 62
7
100
AcDbSpline
 70
8
 71
3
 72
8
 73
4
 74
0
 40
0
 40
0
 40
0
 40
0
 40
1
 40
1
 40
1
 40
1
 10
158.985824
 20
72.151144
 30
0.0
 10
158.985824
 20
71.722425
 30
0.0
 10
158.757105
 20
71.326273
 30
0.0
 10
158.385824
 20
71.111914
 30
0.0
  0
SPLINE
  5
237
100
AcDbEntity
  8
0
 62
7
100
AcDbSpline
 70
8
 71
3
 72
8
 73
4
 74
0
 40
0
 40
0
 40
0
 40
0
 40
1
 40
1
 40
1
 40
1
 10
158.385824
 20
71.111914
 30
0.0
 10
158.014543
 20
70.897554
 30
0.0
 10
157.557105
 20
70.897554
 30
0.0
 10
157.185824
 20
71.111914
 30
0.0
  0
SPLINE
  5
238
100
AcDbEntity
  8
0
 62
7
100
AcDbSpline
 70
8
 71
3
 72
8
 73
4
 74
0
 40
0
 40
0
 40
0
 40
0
 40
1
 40
1
 40
1
 40
1
 10
157.185824
 20
71.111914
 30
0.0
 10
156.814543
 20
71.326273
 30
0.0
 10
156.585824
 20
71.722425
 30
0.0
 10
156.585824
 20
72.151144
 30
0.0
  0
SPLINE
  5
239
100
AcDbEntity
  8
0
 62
7
100
AcDbSpline
 70
8
 71
3
 72
8
 73
4
 74
0
 40
0
 40
0
 40
0
 40
0
 40
1
 40
1
 40
1
 40
1
 10
156.585824
 20
72.151144
 30
0.0
 10
156.585824
 20
72.579863
 30
0.0
 10
156.814543
 20
72.976015
 30
0.0
 10
157.185824
 20
73.190374
 30
0.0
  0
SPLINE
  5
23a
100
AcDbEntity
  8
0
 62
7
100
AcDbSpline
 70
8
 71
3
 72
8
 73
4
 74
0
 40
0
 40
0
 40
0
 40
0
 40
1
 40
1
 40
1
 40
1
 10
157.185824
 20
73.190374
 30
0.0
 10
157.557105
 20
73.404734
 30
0.0
 10
158.014543
 20
73.404734
 30
0.0
 10
158.385824
 20
73.190374
 30
0.0
  0
SPLINE
  5
23b
100
AcDbEntity
  8
0
 62
7
100
AcDbSpline
 70
8
 71
3
 72
8
 73
4
 74
0
 40
0
 40
0
 40
0
 40
0
 40
1
 40
1
 40
1
 40
1
 10
158.385824
 20
73.190374
 30
0.0
 10
158.757105
 20
72.976015
 30
0.0
 10
158.985824
 20
72.579863
 30
0.0
 10
158.985824
 20
72.151144
 30
0.0
  0
LWPOLYLINE
  5
23c
100
AcDbEntity
  8
0
 62
7
100
AcDbPolyline
 90
2
 70
1
 10
150.953088
 20
71.864272
 30
0.0
 10
150.953088
 20
71.864272
 30
0.0
  0
SPLINE
  5
23d
100
AcDbEntity
  8
0
 62
7
100
AcDbSpline
 70
8
 71
3
 72
8
 73
4
 74
0
 40
0
 40
0
 40
0
 40
0
 40
1
 40
1
 40
1
 40
1
 10
163.002200
 20
55.942248
 30
0.0
 10
163.002200
 20
55.513529
 30
0.0
 10
162.773481
 20
55.117377
 30
0.0
 10
162.402200
 20
54.903018
 30
0.0
  0
SPLINE
  5
23e
100
AcDbEntity
  8
0
 62
7
100
AcDbSpline
 70
8
 71
3
 72
8
 73
4
 74
0
 40
0
 40
0
 40
0
 40
0
 40
1
 40
1
 40
1
 40
1
 10
162.402200
 20
54.903018
 30
0.0
 10
162.030919
 20
54.688658
 30
0.0
 10
161.573481
 20
54.688658
 30
0.0
 10
161.202200
 20
54.903018
 30
0.0
  0
SPLINE
  5
23f
100
AcDbEntity
  8
0
 62
7
100
AcDbSpline
 70
8
 71
3
 72
8
 73
4
 74
0
 40
0
 40
0
 40
0
 40
0
 40
1
 40
1
 40
1
 40
1
 10
161.202200
 20
54.903018
 30
0.0
 10
160.830919
 20
55.117377
 30
0.0
 10
160.602200
 20
55.513529
 30
0.0
 10
160.602200
 20
55.942248
 30
0.0
  0
SPLINE
  5
240
100
AcDbEntity
  8
0
 62
7
100
AcDbSpline
 70
8
 71
3
 72
8
 73
4
 74
0
 40
0
 40
0
 40
0
 40
0
 40
1
 40
1
 40
1
 40
1
 10
160.602200
 20
55.942248
 30
0.0
 10
160.602200
 20
56.370967
 30
0.0
 10
160.830919
 20
56.767119
 30
0.0
 10
161.202200
 20
56.981478
 30
0.0
  0
SPLINE
  5
241
100
AcDbEntity
  8
0
 62
7
100
AcDbSpline
 70
8
 71
3
 72
8
 73
4
 74
0
 40
0
 40
0
 40
0
 40
0
 40
1
 40
1
 40
1
 40
1
 10
161.202200
 20
56.981478
 30
0.0
 10
161.573481
 20
57.195838
 30
0.0
 10
162.030919
 20
57.195838
 30
0.0
 10
162.402200
 20
56.981478
 30
0.0
  0
SPLINE
  5
242
100
AcDbEntity
  8
0
 62
7
100
AcDbSpline
 70
8
 71
3
 72
8
 73
4
 74
0
 40
0
 40
0
 40
0
 40
0
 40
1
 40
1
 40
1
 40
1
 10
162.402200
 20
56.981478
 30
0.0
 10
162.773481
 20
56.767119
 30
0.0
 10
163.002200
 20
56.370967
 30
0.0
 10
163.002200
 20
55.942248
 30
0.0
  0
LWPOLYLINE
  5
243
100
AcDbEntity
  8
0
 62
7
100
AcDbPolyline
 90
2
 70
1
 10
158.985824
 20
72.151144
 30
0.0
 10
158.985824
 20
72.151144
 30
0.0
  0
SPLINE
  5
244
100
AcDbEntity
  8
0
 62
7
100
AcDbSpline
 70
8
 71
3
 72
8
 73
4
 74
0
 40
0
 40
0
 40
0
 40
0
 40
1
 40
1
 40
1
 40
1
 10
163.002200
 20
40.020224
 30
0.0
 10
163.002200
 20
39.591505
 30
0.0
 10
162.773481
 20
39.195353
 30
0.0
 10
162.402200
 20
38.980994
 30
0.0
  0
SPLINE
  5
245
100
AcDbEntity
  8
0
 62
7
100
AcDbSpline
 70
8
 71
3
 72
8
 73
4
 74
0
 40
0
 40
0
 40
0
 40
0
 40
1
 40
1
 40
1
 40
1
 10
162.402200
 20
38.980994
 30
0.0
 10
162.030919
 20
38.766634
 30
0.0
 10
161.573481
 20
38.766634
 30
0.0
 10
161.202200
 20
38.980994
 30
0.0
  0
SPLINE
  5
246
100
AcDbEntity
  8
0
 62
7
100
AcDbSpline
 70
8
 71
3
 72
8
 73
4
 74
0
 40
0
 40
0
 40
0
 40
0
 40
1
 40
1
 40
1
 40
1
 10
161.202200
 20
38.980994
 30
0.0
 10
160.830919
 20
39.195353
 30
0.0
 10
160.602200
 20
39.591505
 30
0.0
 10
160.602200
 20
40.020224
 30
0.0
  0
SPLINE
  5
247
100
AcDbEntity
  8
0
 62
7
100
AcDbSpline
 70
8
 71
3
 72
8
 73
4
 74
0
 40
0
 40
0
 40
0
 40
0
 40
1
 40
1
 40
1
 40
1
 10
160.602200
 20
40.020224
 30
0.0
 10
160.602200
 20
40.448943
 30
0.0
 10
160.830919
 20
40.845095
 30
0.0
 10
161.202200
 20
41.059454
 30
0.0
  0
SPLINE
  5
248
100
AcDbEntity
  8
0
 62
7
100
AcDbSpline
 70
8
 71
3
 72
8
 73
4
 74
0
 40
0
 40
0
 40
0
 40
0
 40
1
 40
1
 40
1
 40
1
 10
161.202200
 20
41.059454
 30
0.0
 10
161.573481
 20
41.273814
 30
0.0
 10
162.030919
 20
41.273814
 30
0.0
 10
162.402200
 20
41.059454
 30
0.0
  0
SPLINE
  5
249
100
AcDbEntity
  8
0
 62
7
100
AcDbSpline
 70
8
 71
3
 72
8
 73
4
 74
0
 40
0
 40
0
 40
0
 40
0
 40
1
 40
1
 40
1
 40
1
 10
162.402200
 20
41.059454
 30
0.0
 10
162.773481
 20
40.845095
 30
0.0
 10
163.002200
 20
40.448943
 30
0.0
 10
163.002200
 20
40.020224
 30
0.0
  0
LWPOLYLINE
  5
24a
100
AcDbEntity
  8
0
 62
7
100
AcDbPolyline
 90
2
 70
1
 10
163.002200
 20
55.942248
 30
0.0
 10
163.002200
 20
55.942248
 30
0.0
  0
SPLINE
  5
24b
100
AcDbEntity
  8
0
 62
7
100
AcDbSpline
 70
8
 71
3
 72
8
 73
4
 74
0
 40
0
 40
0
 40
0
 40
0
 40
1
 40
1
 40
1
 40
1
 10
178.780776
 20
40.020224
 30
0.0
 10
178.780776
 20
39.591505
 30
0.0
 10
178.552057
 20
39.195353
 30
0.0
 10
178.180776
 20
38.980994
 30
0.0
  0
SPLINE
  5
24c
100
AcDbEntity
  8
0
 62
7
100
AcDbSpline
 70
8
 71
3
 72
8
 73
4
 74
0
 40
0
 40
0
 40
0
 40
0
 40
1
 40
1
 40
1
 40
1
 10
178.180776
 20
38.980994
 30
0.0
 10
177.809495
 20
38.766634
 30
0.0
 10
177.352057
 20
38.766634
 30
0.0
 10
176.980776
 20
38.980994
 30
0.0
  0
SPLINE
  5
24d
100
AcDbEntity
  8
0
 62
7
100
AcDbSpline
 70
8
 71
3
 72
8
 73
4
 74
0
 40
0
 40
0
 40
0
 40
0
 40
1
 40
1
 40
1
 40
1
 10
176.980776
 20
38.980994
 30
0.0
 10
176.609495
 20
39.195353
 30
0.0
 10
176.380776
 20
39.591505
 30
0.0
 10
176.380776
 20
40.020224
 30
0.0
  0
SPLINE
  5
24e
100
AcDbEntity
  8
0
 62
7
100
AcDbSpline
 70
8
 71
3
 72
8
 73
4
 74
0
 40
0
 40
0
 40
0
 40
0
 40
1
 40
1
 40
1
 40
1
 10
176.380776
 20
40.020224
 30
0.0
 10
176.380776
 20
40.448943
 30
0.0
 10
176.609495
 20
40.845095
 30
0.0
 10
176.980776
 20
41.059454
 30
0.0
  0
SPLINE
  5
24f
100
AcDbEntity
  8
0
 62
7
100
AcDbSpline
 70
8
 71
3
 72
8
 73
4
 74
0
 40
0
 40
0
 40
0
 40
0
 40
1
 40
1
 40
1
 40
1
 10
176.980776
 20
41.059454
 30
0.0
 10
177.352057
 20
41.273814
 30
0.0
 10
177.809495
 20
41.273814
 30
0.0
 10
178.180776
 20
41.059454
 30
0.0
  0
SPLINE
  5
250
100
AcDbEntity
  8
0
 62
7
100
AcDbSpline
 70
8
 71
3
 72
8
 73
4
 74
0
 40
0
 40
0
 40
0
 40
0
 40
1
 40
1
 40
1
 40
1
 10
178.180776
 20
41.059454
 30
0.0
 10
178.552057
 20
40.845095
 30
0.0
 10
178.780776
 20
40.448943
 30
0.0
 10
178.780776
 20
40.020224
 30
0.0
  0
LWPOLYLINE
  5
251
100
AcDbEntity
  8
0
 62
7
100
AcDbPolyline
 90
2
 70
1
 10
163.002200
 20
40.020224
 30
0.0
 10
163.002200
 20
40.020224
 30
0.0
  0
SPLINE
  5
252
100
AcDbEntity
  8
0
 62
7
100
AcDbSpline
 70
8
 71
3
 72
8
 73
4
 74
0
 40
0
 40
0
 40
0
 40
0
 40
1
 40
1
 40
1
 40
1
 10
178.924216
 20
59.384848
 30
0.0
 10
178.924216
 20
58.956129
 30
0.0
 10
178.695497
 20
58.559977
 30
0.0
 10
178.324216
 20
58.345618
 30
0.0
  0
SPLINE
  5
253
100
AcDbEntity
  8
0
 62
7
100
AcDbSpline
 70
8
 71
3
 72
8
 73
4
 74
0
 40
0
 40
0
 40
0
 40
0
 40
1
 40
1
 40
1
 40
1
 10
178.324216
 20
58.345618
 30
0.0
 10
177.952935
 20
58.131258
 30
0.0
 10
177.495497
 20
58.131258
 30
0.0
 10
177.124216
 20
58.345618
 30
0.0
  0
SPLINE
  5
254
100
AcDbEntity
  8
0
 62
7
100
AcDbSpline
 70
8
 71
3
 72
8
 73
4
 74
0
 40
0
 40
0
 40
0
 40
0
 40
1
 40
1
 40
1
 40
1
 10
177.124216
 20
58.345618
 30
0.0
 10
176.752935
 20
58.559977
 30
0.0
 10
176.524216
 20
58.956129
 30
0.0
 10
176.524216
 20
59.384848
 30
0.0
  0
SPLINE
  5
255
100
AcDbEntity
  8
0
 62
7
100
AcDbSpline
 70
8
 71
3
 72
8
 73
4
 74
0
 40
0
 40
0
 40
0
 40
0
 40
1
 40
1
 40
1
 40
1
 10
176.524216
 20
59.384848
 30
0.0
 10
176.524216
 20
59.813567
 30
0.0
 10
176.752935
 20
60.209719
 30
0.0
 10
177.124216
 20
60.424078
 30
0.0
  0
SPLINE
  5
256
100
AcDbEntity
  8
0
 62
7
100
AcDbSpline
 70
8
 71
3
 72
8
 73
4
 74
0
 40
0
 40
0
 40
0
 40
0
 40
1
 40
1
 40
1
 40
1
 10
177.124216
 20
60.424078
 30
0.0
 10
177.495497
 20
60.638438
 30
0.0
 10
177.952935
 20
60.638438
 30
0.0
 10
178.324216
 20
60.424078
 30
0.0
  0
SPLINE
  5
257
100
AcDbEntity
  8
0
 62
7
100
AcDbSpline
 70
8
 71
3
 72
8
 73
4
 74
0
 40
0
 40
0
 40
0
 40
0
 40
1
 40
1
 40
1
 40
1
 10
178.324216
 20
60.424078
 30
0.0
 10
178.695497
 20
60.209719
 30
0.0
 10
178.924216
 20
59.813567
 30
0.0
 10
178.924216
 20
59.384848
 30
0.0
  0
LWPOLYLINE
  5
258
100
AcDbEntity
  8
0
 62
7
100
AcDbPolyline
 90
2
 70
1
 10
178.780776
 20
40.020224
 30
0.0
 10
178.780776
 20
40.020224
 30
0.0
  0
SPLINE
  5
259
100
AcDbEntity
  8
0
 62
7
100
AcDbSpline
 70
8
 71
3
 72
8
 73
4
 74
0
 40
0
 40
0
 40
0
 40
0
 40
1
 40
1
 40
1
 40
1
 10
178.924216
 20
66.987256
 30
0.0
 10
178.924216
 20
66.558537
 30
0.0
 10
178.695497
 20
66.162385
 30
0.0
 10
178.324216
 20
65.948026
 30
0.0
  0
SPLINE
  5
25a
100
AcDbEntity
  8
0
 62
7
100
AcDbSpline
 70
8
 71
3
 72
8
 73
4
 74
0
 40
0
 40
0
 40
0
 40
0
 40
1
 40
1
 40
1
 40
1
 10
178.324216
 20
65.948026
 30
0.0
 10
177.952935
 20
65.733666
 30
0.0
 10
177.495497
 20
65.733666
 30
0.0
 10
177.124216
 20
65.948026
 30
0.0
  0
SPLINE
  5
25b
100
AcDbEntity
  8
0
 62
7
100
AcDbSpline
 70
8
 71
3
 72
8
 73
4
 74
0
 40
0
 40
0
 40
0
 40
0
 40
1
 40
1
 40
1
 40
1
 10
177.124216
 20
65.948026
 30
0.0
 10
176.752935
 20
66.162385
 30
0.0
 10
176.524216
 20
66.558537
 30
0.0
 10
176.524216
 20
66.987256
 30
0.0
  0
SPLINE
  5
25c
100
AcDbEntity
  8
0
 62
7
100
AcDbSpline
 70
8
 71
3
 72
8
 73
4
 74
0
 40
0
 40
0
 40
0
 40
0
 40
1
 40
1
 40
1
 40
1
 10
176.524216
 20
66.987256
 30
0.0
 10
176.524216
 20
67.415975
 30
0.0
 10
176.752935
 20
67.812127
 30
0.0
 10
177.124216
 20
68.026486
 30
0.0
  0
SPLINE
  5
25d
100
AcDbEntity
  8
0
 62
7
100
AcDbSpline
 70
8
 71
3
 72
8
 73
4
 74
0
 40
0
 40
0
 40
0
 40
0
 40
1
 40
1
 40
1
 40
1
 10
177.124216
 20
68.026486
 30
0.0
 10
177.495497
 20
68.240846
 30
0.0
 10
177.952935
 20
68.240846
 30
0.0
 10
178.324216
 20
68.026486
 30
0.0
  0
SPLINE
  5
25e
100
AcDbEntity
  8
0
 62
7
100
AcDbSpline
 70
8
 71
3
 72
8
 73
4
 74
0
 40
0
 40
0
 40
0
 40
0
 40
1
 40
1
 40
1
 40
1
 10
178.324216
 20
68.026486
 30
0.0
 10
178.695497
 20
67.812127
 30
0.0
 10
178.924216
 20
67.415975
 30
0.0
 10
178.924216
 20
66.987256
 30
0.0
  0
LWPOLYLINE
  5
25f
100
AcDbEntity
  8
0
 62
7
100
AcDbPolyline
 90
2
 70
1
 10
178.924216
 20
59.384848
 30
0.0
 10
178.924216
 20
59.384848
 30
0.0
  0
SPLINE
  5
260
100
AcDbEntity
  8
0
 62
7
100
AcDbSpline
 70
8
 71
3
 72
8
 73
4
 74
0
 40
0
 40
0
 40
0
 40
0
 40
1
 40
1
 40
1
 40
1
 10
194.846240
 20
72.151144
 30
0.0
 10
194.846240
 20
71.722425
 30
0.0
 10
194.617521
 20
71.326273
 30
0.0
 10
194.246240
 20
71.111914
 30
0.0
  0
SPLINE
  5
261
100
AcDbEntity
  8
0
 62
7
100
AcDbSpline
 70
8
 71
3
 72
8
 73
4
 74
0
 40
0
 40
0
 40
0
 40
0
 40
1
 40
1
 40
1
 40
1
 10
194.246240
 20
71.111914
 30
0.0
 10
193.874959
 20
70.897554
 30
0.0
 10
193.417521
 20
70.897554
 30
0.0
 10
193.046240
 20
71.111914
 30
0.0
  0
SPLINE
  5
262
100
AcDbEntity
  8
0
 62
7
100
AcDbSpline
 70
8
 71
3
 72
8
 73
4
 74
0
 40
0
 40
0
 40
0
 40
0
 40
1
 40
1
 40
1
 40
1
 10
193.046240
 20
71.111914
 30
0.0
 10
192.674959
 20
71.326273
 30
0.0
 10
192.446240
 20
71.722425
 30
0.0
 10
192.446240
 20
72.151144
 30
0.0
  0
SPLINE
  5
263
100
AcDbEntity
  8
0
 62
7
100
AcDbSpline
 70
8
 71
3
 72
8
 73
4
 74
0
 40
0
 40
0
 40
0
 40
0
 40
1
 40
1
 40
1
 40
1
 10
192.446240
 20
72.151144
 30
0.0
 10
192.446240
 20
72.579863
 30
0.0
 10
192.674959
 20
72.976015
 30
0.0
 10
193.046240
 20
73.190374
 30
0.0
  0
SPLINE
  5
264
100
AcDbEntity
  8
0
 62
7
100
AcDbSpline
 70
8
 71
3
 72
8
 73
4
 74
0
 40
0
 40
0
 40
0
 40
0
 40
1
 40
1
 40
1
 40
1
 10
193.046240
 20
73.190374
 30
0.0
 10
193.417521
 20
73.404734
 30
0.0
 10
193.874959
 20
73.404734
 30
0.0
 10
194.246240
 20
73.190374
 30
0.0
  0
SPLINE
  5
265
100
AcDbEntity
  8
0
 62
7
100
AcDbSpline
 70
8
 71
3
 72
8
 73
4
 74
0
 40
0
 40
0
 40
0
 40
0
 40
1
 40
1
 40
1
 40
1
 10
194.246240
 20
73.190374
 30
0.0
 10
194.617521
 20
72.976015
 30
0.0
 10
194.846240
 20
72.579863
 30
0.0
 10
194.846240
 20
72.151144
 30
0.0
  0
LWPOLYLINE
  5
266
100
AcDbEntity
  8
0
 62
7
100
AcDbPolyline
 90
2
 70
1
 10
178.924216
 20
66.987256
 30
0.0
 10
178.924216
 20
66.987256
 30
0.0
  0
SPLINE
  5
267
100
AcDbEntity
  8
0
 62
7
100
AcDbSpline
 70
8
 71
3
 72
8
 73
4
 74
0
 40
0
 40
0
 40
0
 40
0
 40
1
 40
1
 40
1
 40
1
 10
210.768264
 20
67.274136
 30
0.0
 10
210.768264
 20
66.845417
 30
0.0
 10
210.539545
 20
66.449265
 30
0.0
 10
210.168264
 20
66.234906
 30
0.0
  0
SPLINE
  5
268
100
AcDbEntity
  8
0
 62
7
100
AcDbSpline
 70
8
 71
3
 72
8
 73
4
 74
0
 40
0
 40
0
 40
0
 40
0
 40
1
 40
1
 40
1
 40
1
 10
210.168264
 20
66.234906
 30
0.0
 10
209.796983
 20
66.020546
 30
0.0
 10
209.339545
 20
66.020546
 30
0.0
 10
208.968264
 20
66.234906
 30
0.0
  0
SPLINE
  5
269
100
AcDbEntity
  8
0
 62
7
100
AcDbSpline
 70
8
 71
3
 72
8
 73
4
 74
0
 40
0
 40
0
 40
0
 40
0
 40
1
 40
1
 40
1
 40
1
 10
208.968264
 20
66.234906
 30
0.0
 10
208.596983
 20
66.449265
 30
0.0
 10
208.368264
 20
66.845417
 30
0.0
 10
208.368264
 20
67.274136
 30
0.0
  0
SPLINE
  5
26a
100
AcDbEntity
  8
0
 62
7
100
AcDbSpline
 70
8
 71
3
 72
8
 73
4
 74
0
 40
0
 40
0
 40
0
 40
0
 40
1
 40
1
 40
1
 40
1
 10
208.368264
 20
67.274136
 30
0.0
 10
208.368264
 20
67.702855
 30
0.0
 10
208.596983
 20
68.099007
 30
0.0
 10
208.968264
 20
68.313366
 30
0.0
  0
SPLINE
  5
26b
100
AcDbEntity
  8
0
 62
7
100
AcDbSpline
 70
8
 71
3
 72
8
 73
4
 74
0
 40
0
 40
0
 40
0
 40
0
 40
1
 40
1
 40
1
 40
1
 10
208.968264
 20
68.313366
 30
0.0
 10
209.339545
 20
68.527726
 30
0.0
 10
209.796983
 20
68.527726
 30
0.0
 10
210.168264
 20
68.313366
 30
0.0
  0
SPLINE
  5
26c
100
AcDbEntity
  8
0
 62
7
100
AcDbSpline
 70
8
 71
3
 72
8
 73
4
 74
0
 40
0
 40
0
 40
0
 40
0
 40
1
 40
1
 40
1
 40
1
 10
210.168264
 20
68.313366
 30
0.0
 10
210.539545
 20
68.099007
 30
0.0
 10
210.768264
 20
67.702855
 30
0.0
 10
210.768264
 20
67.274136
 30
0.0
  0
LWPOLYLINE
  5
26d
100
AcDbEntity
  8
0
 62
7
100
AcDbPolyline
 90
2
 70
1
 10
194.846240
 20
72.151144
 30
0.0
 10
194.846240
 20
72.151144
 30
0.0
  0
SPLINE
  5
26e
100
AcDbEntity
  8
0
 62
7
100
AcDbSpline
 70
8
 71
3
 72
8
 73
4
 74
0
 40
0
 40
0
 40
0
 40
0
 40
1
 40
1
 40
1
 40
1
 10
211.198584
 20
59.097960
 30
0.0
 10
211.198584
 20
58.669241
 30
0.0
 10
210.969865
 20
58.273089
 30
0.0
 10
210.598584
 20
58.058730
 30
0.0
  0
SPLINE
  5
26f
100
AcDbEntity
  8
0
 62
7
100
AcDbSpline
 70
8
 71
3
 72
8
 73
4
 74
0
 40
0
 40
0
 40
0
 40
0
 40
1
 40
1
 40
1
 40
1
 10
210.598584
 20
58.058730
 30
0.0
 10
210.227303
 20
57.844370
 30
0.0
 10
209.769865
 20
57.844370
 30
0.0
 10
209.398584
 20
58.058730
 30
0.0
  0
SPLINE
  5
270
100
AcDbEntity
  8
0
 62
7
100
AcDbSpline
 70
8
 71
3
 72
8
 73
4
 74
0
 40
0
 40
0
 40
0
 40
0
 40
1
 40
1
 40
1
 40
1
 10
209.398584
 20
58.058730
 30
0.0
 10
209.027303
 20
58.273089
 30
0.0
 10
208.798584
 20
58.669241
 30
0.0
 10
208.798584
 20
59.097960
 30
0.0
  0
SPLINE
  5
271
100
AcDbEntity
  8
0
 62
7
100
AcDbSpline
 70
8
 71
3
 72
8
 73
4
 74
0
 40
0
 40
0
 40
0
 40
0
 40
1
 40
1
 40
1
 40
1
 10
208.798584
 20
59.097960
 30
0.0
 10
208.798584
 20
59.526679
 30
0.0
 10
209.027303
 20
59.922831
 30
0.0
 10
209.398584
 20
60.137190
 30
0.0
  0
SPLINE
  5
272
100
AcDbEntity
  8
0
 62
7
100
AcDbSpline
 70
8
 71
3
 72
8
 73
4
 74
0
 40
0
 40
0
 40
0
 40
0
 40
1
 40
1
 40
1
 40
1
 10
209.398584
 20
60.137190
 30
0.0
 10
209.769865
 20
60.351550
 30
0.0
 10
210.227303
 20
60.351550
 30
0.0
 10
210.598584
 20
60.137190
 30
0.0
  0
SPLINE
  5
273
100
AcDbEntity
  8
0
 62
7
100
AcDbSpline
 70
8
 71
3
 72
8
 73
4
 74
0
 40
0
 40
0
 40
0
 40
0
 40
1
 40
1
 40
1
 40
1
 10
210.598584
 20
60.137190
 30
0.0
 10
210.969865
 20
59.922831
 30
0.0
 10
211.198584
 20
59.526679
 30
0.0
 10
211.198584
 20
59.097960
 30
0.0
  0
LWPOLYLINE
  5
274
100
AcDbEntity
  8
0
 62
7
100
AcDbPolyline
 90
2
 70
1
 10
210.768264
 20
67.274136
 30
0.0
 10
210.768264
 20
67.274136
 30
0.0
  0
SPLINE
  5
275
100
AcDbEntity
  8
0
 62
7
100
AcDbSpline
 70
8
 71
3
 72
8
 73
4
 74
0
 40
0
 40
0
 40
0
 40
0
 40
1
 40
1
 40
1
 40
1
 10
226.977176
 20
67.130704
 30
0.0
 10
226.977176
 20
66.701985
 30
0.0
 10
226.748457
 20
66.305833
 30
0.0
 10
226.377176
 20
66.091474
 30
0.0
  0
SPLINE
  5
276
100
AcDbEntity
  8
0
 62
7
100
AcDbSpline
 70
8
 71
3
 72
8
 73
4
 74
0
 40
0
 40
0
 40
0
 40
0
 40
1
 40
1
 40
1
 40
1
 10
226.377176
 20
66.091474
 30
0.0
 10
226.005895
 20
65.877114
 30
0.0
 10
225.548457
 20
65.877114
 30
0.0
 10
225.177176
 20
66.091474
 30
0.0
  0
SPLINE
  5
277
100
AcDbEntity
  8
0
 62
7
100
AcDbSpline
 70
8
 71
3
 72
8
 73
4
 74
0
 40
0
 40
0
 40
0
 40
0
 40
1
 40
1
 40
1
 40
1
 10
225.177176
 20
66.091474
 30
0.0
 10
224.805895
 20
66.305833
 30
0.0
 10
224.577176
 20
66.701985
 30
0.0
 10
224.577176
 20
67.130704
 30
0.0
  0
SPLINE
  5
278
100
AcDbEntity
  8
0
 62
7
100
AcDbSpline
 70
8
 71
3
 72
8
 73
4
 74
0
 40
0
 40
0
 40
0
 40
0
 40
1
 40
1
 40
1
 40
1
 10
224.577176
 20
67.130704
 30
0.0
 10
224.577176
 20
67.559423
 30
0.0
 10
224.805895
 20
67.955575
 30
0.0
 10
225.177176
 20
68.169934
 30
0.0
  0
SPLINE
  5
279
100
AcDbEntity
  8
0
 62
7
100
AcDbSpline
 70
8
 71
3
 72
8
 73
4
 74
0
 40
0
 40
0
 40
0
 40
0
 40
1
 40
1
 40
1
 40
1
 10
225.177176
 20
68.169934
 30
0.0
 10
225.548457
 20
68.384294
 30
0.0
 10
226.005895
 20
68.384294
 30
0.0
 10
226.377176
 20
68.169934
 30
0.0
  0
SPLINE
  5
27a
100
AcDbEntity
  8
0
 62
7
100
AcDbSpline
 70
8
 71
3
 72
8
 73
4
 74
0
 40
0
 40
0
 40
0
 40
0
 40
1
 40
1
 40
1
 40
1
 10
226.377176
 20
68.169934
 30
0.0
 10
226.748457
 20
67.955575
 30
0.0
 10
226.977176
 20
67.559423
 30
0.0
 10
226.977176
 20
67.130704
 30
0.0
  0
LWPOLYLINE
  5
27b
100
AcDbEntity
  8
0
 62
7
100
AcDbPolyline
 90
2
 70
1
 10
211.198584
 20
59.097960
 30
0.0
 10
211.198584
 20
59.097960
 30
0.0
  0
SPLINE
  5
27c
100
AcDbEntity
  8
0
 62
7
100
AcDbSpline
 70
8
 71
3
 72
8
 73
4
 74
0
 40
0
 40
0
 40
0
 40
0
 40
1
 40
1
 40
1
 40
1
 10
226.833712
 20
59.241408
 30
0.0
 10
226.833712
 20
58.812689
 30
0.0
 10
226.604993
 20
58.416537
 30
0.0
 10
226.233712
 20
58.202178
 30
0.0
  0
SPLINE
  5
27d
100
AcDbEntity
  8
0
 62
7
100
AcDbSpline
 70
8
 71
3
 72
8
 73
4
 74
0
 40
0
 40
0
 40
0
 40
0
 40
1
 40
1
 40
1
 40
1
 10
226.233712
 20
58.202178
 30
0.0
 10
225.862431
 20
57.987818
 30
0.0
 10
225.404993
 20
57.987818
 30
0.0
 10
225.033712
 20
58.202178
 30
0.0
  0
SPLINE
  5
27e
100
AcDbEntity
  8
0
 62
7
100
AcDbSpline
 70
8
 71
3
 72
8
 73
4
 74
0
 40
0
 40
0
 40
0
 40
0
 40
1
 40
1
 40
1
 40
1
 10
225.033712
 20
58.202178
 30
0.0
 10
224.662431
 20
58.416537
 30
0.0
 10
224.433712
 20
58.812689
 30
0.0
 10
224.433712
 20
59.241408
 30
0.0
  0
SPLINE
  5
27f
100
AcDbEntity
  8
0
 62
7
100
AcDbSpline
 70
8
 71
3
 72
8
 73
4
 74
0
 40
0
 40
0
 40
0
 40
0
 40
1
 40
1
 40
1
 40
1
 10
224.433712
 20
59.241408
 30
0.0
 10
224.433712
 20
59.670127
 30
0.0
 10
224.662431
 20
60.066279
 30
0.0
 10
225.033712
 20
60.280638
 30
0.0
  0
SPLINE
  5
280
100
AcDbEntity
  8
0
 62
7
100
AcDbSpline
 70
8
 71
3
 72
8
 73
4
 74
0
 40
0
 40
0
 40
0
 40
0
 40
1
 40
1
 40
1
 40
1
 10
225.033712
 20
60.280638
 30
0.0
 10
225.404993
 20
60.494998
 30
0.0
 10
225.862431
 20
60.494998
 30
0.0
 10
226.233712
 20
60.280638
 30
0.0
  0
SPLINE
  5
281
100
AcDbEntity
  8
0
 62
7
100
AcDbSpline
 70
8
 71
3
 72
8
 73
4
 74
0
 40
0
 40
0
 40
0
 40
0
 40
1
 40
1
 40
1
 40
1
 10
226.233712
 20
60.280638
 30
0.0
 10
226.604993
 20
60.066279
 30
0.0
 10
226.833712
 20
59.670127
 30
0.0
 10
226.833712
 20
59.241408
 30
0.0
  0
LWPOLYLINE
  5
282
100
AcDbEntity
  8
0
 62
7
100
AcDbPolyline
 90
2
 70
1
 10
226.977176
 20
67.130704
 30
0.0
 10
226.977176
 20
67.130704
 30
0.0
  0
SPLINE
  5
283
100
AcDbEntity
  8
0
 62
7
100
AcDbSpline
 70
8
 71
3
 72
8
 73
4
 74
0
 40
0
 40
0
 40
0
 40
0
 40
1
 40
1
 40
1
 40
1
 10
243.042624
 20
59.241408
 30
0.0
 10
243.042624
 20
58.812689
 30
0.0
 10
242.813905
 20
58.416537
 30
0.0
 10
242.442624
 20
58.202178
 30
0.0
  0
SPLINE
  5
284
100
AcDbEntity
  8
0
 62
7
100
AcDbSpline
 70
8
 71
3
 72
8
 73
4
 74
0
 40
0
 40
0
 40
0
 40
0
 40
1
 40
1
 40
1
 40
1
 10
242.442624
 20
58.202178
 30
0.0
 10
242.071343
 20
57.987818
 30
0.0
 10
241.613905
 20
57.987818
 30
0.0
 10
241.242624
 20
58.202178
 30
0.0
  0
SPLINE
  5
285
100
AcDbEntity
  8
0
 62
7
100
AcDbSpline
 70
8
 71
3
 72
8
 73
4
 74
0
 40
0
 40
0
 40
0
 40
0
 40
1
 40
1
 40
1
 40
1
 10
241.242624
 20
58.202178
 30
0.0
 10
240.871343
 20
58.416537
 30
0.0
 10
240.642624
 20
58.812689
 30
0.0
 10
240.642624
 20
59.241408
 30
0.0
  0
SPLINE
  5
286
100
AcDbEntity
  8
0
 62
7
100
AcDbSpline
 70
8
 71
3
 72
8
 73
4
 74
0
 40
0
 40
0
 40
0
 40
0
 40
1
 40
1
 40
1
 40
1
 10
240.642624
 20
59.241408
 30
0.0
 10
240.642624
 20
59.670127
 30
0.0
 10
240.871343
 20
60.066279
 30
0.0
 10
241.242624
 20
60.280638
 30
0.0
  0
SPLINE
  5
287
100
AcDbEntity
  8
0
 62
7
100
AcDbSpline
 70
8
 71
3
 72
8
 73
4
 74
0
 40
0
 40
0
 40
0
 40
0
 40
1
 40
1
 40
1
 40
1
 10
241.242624
 20
60.280638
 30
0.0
 10
241.613905
 20
60.494998
 30
0.0
 10
242.071343
 20
60.494998
 30
0.0
 10
242.442624
 20
60.280638
 30
0.0
  0
SPLINE
  5
288
100
AcDbEntity
  8
0
 62
7
100
AcDbSpline
 70
8
 71
3
 72
8
 73
4
 74
0
 40
0
 40
0
 40
0
 40
0
 40
1
 40
1
 40
1
 40
1
 10
242.442624
 20
60.280638
 30
0.0
 10
242.813905
 20
60.066279
 30
0.0
 10
243.042624
 20
59.670127
 30
0.0
 10
243.042624
 20
59.241408
 30
0.0
  0
LWPOLYLINE
  5
289
100
AcDbEntity
  8
0
 62
7
100
AcDbPolyline
 90
2
 70
1
 10
226.833712
 20
59.241408
 30
0.0
 10
226.833712
 20
59.241408
 30
0.0
  0
SPLINE
  5
28a
100
AcDbEntity
  8
0
 62
7
100
AcDbSpline
 70
8
 71
3
 72
8
 73
4
 74
0
 40
0
 40
0
 40
0
 40
0
 40
1
 40
1
 40
1
 40
1
 10
242.899192
 20
67.130704
 30
0.0
 10
242.899192
 20
66.701985
 30
0.0
 10
242.670473
 20
66.305833
 30
0.0
 10
242.299192
 20
66.091474
 30
0.0
  0
SPLINE
  5
28b
100
AcDbEntity
  8
0
 62
7
100
AcDbSpline
 70
8
 71
3
 72
8
 73
4
 74
0
 40
0
 40
0
 40
0
 40
0
 40
1
 40
1
 40
1
 40
1
 10
242.299192
 20
66.091474
 30
0.0
 10
241.927911
 20
65.877114
 30
0.0
 10
241.470473
 20
65.877114
 30
0.0
 10
241.099192
 20
66.091474
 30
0.0
  0
SPLINE
  5
28c
100
AcDbEntity
  8
0
 62
7
100
AcDbSpline
 70
8
 71
3
 72
8
 73
4
 74
0
 40
0
 40
0
 40
0
 40
0
 40
1
 40
1
 40
1
 40
1
 10
241.099192
 20
66.091474
 30
0.0
 10
240.727911
 20
66.305833
 30
0.0
 10
240.499192
 20
66.701985
 30
0.0
 10
240.499192
 20
67.130704
 30
0.0
  0
SPLINE
  5
28d
100
AcDbEntity
  8
0
 62
7
100
AcDbSpline
 70
8
 71
3
 72
8
 73
4
 74
0
 40
0
 40
0
 40
0
 40
0
 40
1
 40
1
 40
1
 40
1
 10
240.499192
 20
67.130704
 30
0.0
 10
240.499192
 20
67.559423
 30
0.0
 10
240.727911
 20
67.955575
 30
0.0
 10
241.099192
 20
68.169934
 30
0.0
  0
SPLINE
  5
28e
100
AcDbEntity
  8
0
 62
7
100
AcDbSpline
 70
8
 71
3
 72
8
 73
4
 74
0
 40
0
 40
0
 40
0
 40
0
 40
1
 40
1
 40
1
 40
1
 10
241.099192
 20
68.169934
 30
0.0
 10
241.470473
 20
68.384294
 30
0.0
 10
241.927911
 20
68.384294
 30
0.0
 10
242.299192
 20
68.169934
 30
0.0
  0
SPLINE
  5
28f
100
AcDbEntity
  8
0
 62
7
100
AcDbSpline
 70
8
 71
3
 72
8
 73
4
 74
0
 40
0
 40
0
 40
0
 40
0
 40
1
 40
1
 40
1
 40
1
 10
242.299192
 20
68.169934
 30
0.0
 10
242.670473
 20
67.955575
 30
0.0
 10
242.899192
 20
67.559423
 30
0.0
 10
242.899192
 20
67.130704
 30
0.0
  0
LWPOLYLINE
  5
290
100
AcDbEntity
  8
0
 62
7
100
AcDbPolyline
 90
2
 70
1
 10
243.042624
 20
59.241408
 30
0.0
 10
243.042624
 20
59.241408
 30
0.0
  0
SPLINE
  5
291
100
AcDbEntity
  8
0
 62
7
100
AcDbSpline
 70
8
 71
3
 72
8
 73
4
 74
0
 40
0
 40
0
 40
0
 40
0
 40
1
 40
1
 40
1
 40
1
 10
243.042624
 20
75.163432
 30
0.0
 10
243.042624
 20
74.734713
 30
0.0
 10
242.813905
 20
74.338561
 30
0.0
 10
242.442624
 20
74.124202
 30
0.0
  0
SPLINE
  5
292
100
AcDbEntity
  8
0
 62
7
100
AcDbSpline
 70
8
 71
3
 72
8
 73
4
 74
0
 40
0
 40
0
 40
0
 40
0
 40
1
 40
1
 40
1
 40
1
 10
242.442624
 20
74.124202
 30
0.0
 10
242.071343
 20
73.909842
 30
0.0
 10
241.613905
 20
73.909842
 30
0.0
 10
241.242624
 20
74.124202
 30
0.0
  0
SPLINE
  5
293
100
AcDbEntity
  8
0
 62
7
100
AcDbSpline
 70
8
 71
3
 72
8
 73
4
 74
0
 40
0
 40
0
 40
0
 40
0
 40
1
 40
1
 40
1
 40
1
 10
241.242624
 20
74.124202
 30
0.0
 10
240.871343
 20
74.338561
 30
0.0
 10
240.642624
 20
74.734713
 30
0.0
 10
240.642624
 20
75.163432
 30
0.0
  0
SPLINE
  5
294
100
AcDbEntity
  8
0
 62
7
100
AcDbSpline
 70
8
 71
3
 72
8
 73
4
 74
0
 40
0
 40
0
 40
0
 40
0
 40
1
 40
1
 40
1
 40
1
 10
240.642624
 20
75.163432
 30
0.0
 10
240.642624
 20
75.592151
 30
0.0
 10
240.871343
 20
75.988303
 30
0.0
 10
241.242624
 20
76.202662
 30
0.0
  0
SPLINE
  5
295
100
AcDbEntity
  8
0
 62
7
100
AcDbSpline
 70
8
 71
3
 72
8
 73
4
 74
0
 40
0
 40
0
 40
0
 40
0
 40
1
 40
1
 40
1
 40
1
 10
241.242624
 20
76.202662
 30
0.0
 10
241.613905
 20
76.417022
 30
0.0
 10
242.071343
 20
76.417022
 30
0.0
 10
242.442624
 20
76.202662
 30
0.0
  0
SPLINE
  5
296
100
AcDbEntity
  8
0
 62
7
100
AcDbSpline
 70
8
 71
3
 72
8
 73
4
 74
0
 40
0
 40
0
 40
0
 40
0
 40
1
 40
1
 40
1
 40
1
 10
242.442624
 20
76.202662
 30
0.0
 10
242.813905
 20
75.988303
 30
0.0
 10
243.042624
 20
75.592151
 30
0.0
 10
243.042624
 20
75.163432
 30
0.0
  0
LWPOLYLINE
  5
297
100
AcDbEntity
  8
0
 62
7
100
AcDbPolyline
 90
2
 70
1
 10
242.899192
 20
67.130704
 30
0.0
 10
242.899192
 20
67.130704
 30
0.0
  0
SPLINE
  5
298
100
AcDbEntity
  8
0
 62
7
100
AcDbSpline
 70
8
 71
3
 72
8
 73
4
 74
0
 40
0
 40
0
 40
0
 40
0
 40
1
 40
1
 40
1
 40
1
 10
250.645040
 20
67.274136
 30
0.0
 10
250.645040
 20
66.845417
 30
0.0
 10
250.416321
 20
66.449265
 30
0.0
 10
250.045040
 20
66.234906
 30
0.0
  0
SPLINE
  5
299
100
AcDbEntity
  8
0
 62
7
100
AcDbSpline
 70
8
 71
3
 72
8
 73
4
 74
0
 40
0
 40
0
 40
0
 40
0
 40
1
 40
1
 40
1
 40
1
 10
250.045040
 20
66.234906
 30
0.0
 10
249.673759
 20
66.020546
 30
0.0
 10
249.216321
 20
66.020546
 30
0.0
 10
248.845040
 20
66.234906
 30
0.0
  0
SPLINE
  5
29a
100
AcDbEntity
  8
0
 62
7
100
AcDbSpline
 70
8
 71
3
 72
8
 73
4
 74
0
 40
0
 40
0
 40
0
 40
0
 40
1
 40
1
 40
1
 40
1
 10
248.845040
 20
66.234906
 30
0.0
 10
248.473759
 20
66.449265
 30
0.0
 10
248.245040
 20
66.845417
 30
0.0
 10
248.245040
 20
67.274136
 30
0.0
  0
SPLINE
  5
29b
100
AcDbEntity
  8
0
 62
7
100
AcDbSpline
 70
8
 71
3
 72
8
 73
4
 74
0
 40
0
 40
0
 40
0
 40
0
 40
1
 40
1
 40
1
 40
1
 10
248.245040
 20
67.274136
 30
0.0
 10
248.245040
 20
67.702855
 30
0.0
 10
248.473759
 20
68.099007
 30
0.0
 10
248.845040
 20
68.313366
 30
0.0
  0
SPLINE
  5
29c
100
AcDbEntity
  8
0
 62
7
100
AcDbSpline
 70
8
 71
3
 72
8
 73
4
 74
0
 40
0
 40
0
 40
0
 40
0
 40
1
 40
1
 40
1
 40
1
 10
248.845040
 20
68.313366
 30
0.0
 10
249.216321
 20
68.527726
 30
0.0
 10
249.673759
 20
68.527726
 30
0.0
 10
250.045040
 20
68.313366
 30
0.0
  0
SPLINE
  5
29d
100
AcDbEntity
  8
0
 62
7
100
AcDbSpline
 70
8
 71
3
 72
8
 73
4
 74
0
 40
0
 40
0
 40
0
 40
0
 40
1
 40
1
 40
1
 40
1
 10
250.045040
 20
68.313366
 30
0.0
 10
250.416321
 20
68.099007
 30
0.0
 10
250.645040
 20
67.702855
 30
0.0
 10
250.645040
 20
67.274136
 30
0.0
  0
LWPOLYLINE
  5
29e
100
AcDbEntity
  8
0
 62
7
100
AcDbPolyline
 90
2
 70
1
 10
243.042624
 20
75.163432
 30
0.0
 10
243.042624
 20
75.163432
 30
0.0
  0
SPLINE
  5
29f
100
AcDbEntity
  8
0
 62
7
100
AcDbSpline
 70
8
 71
3
 72
8
 73
4
 74
0
 40
0
 40
0
 40
0
 40
0
 40
1
 40
1
 40
1
 40
1
 10
243.042624
 20
40.163656
 30
0.0
 10
243.042624
 20
39.734937
 30
0.0
 10
242.813905
 20
39.338785
 30
0.0
 10
242.442624
 20
39.124426
 30
0.0
  0
SPLINE
  5
2a0
100
AcDbEntity
  8
0
 62
7
100
AcDbSpline
 70
8
 71
3
 72
8
 73
4
 74
0
 40
0
 40
0
 40
0
 40
0
 40
1
 40
1
 40
1
 40
1
 10
242.442624
 20
39.124426
 30
0.0
 10
242.071343
 20
38.910066
 30
0.0
 10
241.613905
 20
38.910066
 30
0.0
 10
241.242624
 20
39.124426
 30
0.0
  0
SPLINE
  5
2a1
100
AcDbEntity
  8
0
 62
7
100
AcDbSpline
 70
8
 71
3
 72
8
 73
4
 74
0
 40
0
 40
0
 40
0
 40
0
 40
1
 40
1
 40
1
 40
1
 10
241.242624
 20
39.124426
 30
0.0
 10
240.871343
 20
39.338785
 30
0.0
 10
240.642624
 20
39.734937
 30
0.0
 10
240.642624
 20
40.163656
 30
0.0
  0
SPLINE
  5
2a2
100
AcDbEntity
  8
0
 62
7
100
AcDbSpline
 70
8
 71
3
 72
8
 73
4
 74
0
 40
0
 40
0
 40
0
 40
0
 40
1
 40
1
 40
1
 40
1
 10
240.642624
 20
40.163656
 30
0.0
 10
240.642624
 20
40.592375
 30
0.0
 10
240.871343
 20
40.988527
 30
0.0
 10
241.242624
 20
41.202886
 30
0.0
  0
SPLINE
  5
2a3
100
AcDbEntity
  8
0
 62
7
100
AcDbSpline
 70
8
 71
3
 72
8
 73
4
 74
0
 40
0
 40
0
 40
0
 40
0
 40
1
 40
1
 40
1
 40
1
 10
241.242624
 20
41.202886
 30
0.0
 10
241.613905
 20
41.417246
 30
0.0
 10
242.071343
 20
41.417246
 30
0.0
 10
242.442624
 20
41.202886
 30
0.0
  0
SPLINE
  5
2a4
100
AcDbEntity
  8
0
 62
7
100
AcDbSpline
 70
8
 71
3
 72
8
 73
4
 74
0
 40
0
 40
0
 40
0
 40
0
 40
1
 40
1
 40
1
 40
1
 10
242.442624
 20
41.202886
 30
0.0
 10
242.813905
 20
40.988527
 30
0.0
 10
243.042624
 20
40.592375
 30
0.0
 10
243.042624
 20
40.163656
 30
0.0
  0
LWPOLYLINE
  5
2a5
100
AcDbEntity
  8
0
 62
7
100
AcDbPolyline
 90
2
 70
1
 10
250.645040
 20
67.274136
 30
0.0
 10
250.645040
 20
67.274136
 30
0.0
  0
SPLINE
  5
2a6
100
AcDbEntity
  8
0
 62
7
100
AcDbSpline
 70
8
 71
3
 72
8
 73
4
 74
0
 40
0
 40
0
 40
0
 40
0
 40
1
 40
1
 40
1
 40
1
 10
242.755760
 20
23.811312
 30
0.0
 10
242.755760
 20
23.382593
 30
0.0
 10
242.527041
 20
22.986441
 30
0.0
 10
242.155760
 20
22.772082
 30
0.0
  0
SPLINE
  5
2a7
100
AcDbEntity
  8
0
 62
7
100
AcDbSpline
 70
8
 71
3
 72
8
 73
4
 74
0
 40
0
 40
0
 40
0
 40
0
 40
1
 40
1
 40
1
 40
1
 10
242.155760
 20
22.772082
 30
0.0
 10
241.784479
 20
22.557722
 30
0.0
 10
241.327041
 20
22.557722
 30
0.0
 10
240.955760
 20
22.772082
 30
0.0
  0
SPLINE
  5
2a8
100
AcDbEntity
  8
0
 62
7
100
AcDbSpline
 70
8
 71
3
 72
8
 73
4
 74
0
 40
0
 40
0
 40
0
 40
0
 40
1
 40
1
 40
1
 40
1
 10
240.955760
 20
22.772082
 30
0.0
 10
240.584479
 20
22.986441
 30
0.0
 10
240.355760
 20
23.382593
 30
0.0
 10
240.355760
 20
23.811312
 30
0.0
  0
SPLINE
  5
2a9
100
AcDbEntity
  8
0
 62
7
100
AcDbSpline
 70
8
 71
3
 72
8
 73
4
 74
0
 40
0
 40
0
 40
0
 40
0
 40
1
 40
1
 40
1
 40
1
 10
240.355760
 20
23.811312
 30
0.0
 10
240.355760
 20
24.240031
 30
0.0
 10
240.584479
 20
24.636183
 30
0.0
 10
240.955760
 20
24.850542
 30
0.0
  0
SPLINE
  5
2aa
100
AcDbEntity
  8
0
 62
7
100
AcDbSpline
 70
8
 71
3
 72
8
 73
4
 74
0
 40
0
 40
0
 40
0
 40
0
 40
1
 40
1
 40
1
 40
1
 10
240.955760
 20
24.850542
 30
0.0
 10
241.327041
 20
25.064902
 30
0.0
 10
241.784479
 20
25.064902
 30
0.0
 10
242.155760
 20
24.850542
 30
0.0
  0
SPLINE
  5
2ab
100
AcDbEntity
  8
0
 62
7
100
AcDbSpline
 70
8
 71
3
 72
8
 73
4
 74
0
 40
0
 40
0
 40
0
 40
0
 40
1
 40
1
 40
1
 40
1
 10
242.155760
 20
24.850542
 30
0.0
 10
242.527041
 20
24.636183
 30
0.0
 10
242.755760
 20
24.240031
 30
0.0
 10
242.755760
 20
23.811312
 30
0.0
  0
LWPOLYLINE
  5
2ac
100
AcDbEntity
  8
0
 62
7
100
AcDbPolyline
 90
2
 70
1
 10
243.042624
 20
40.163656
 30
0.0
 10
243.042624
 20
40.163656
 30
0.0
  0
SPLINE
  5
2ad
100
AcDbEntity
  8
0
 62
7
100
AcDbSpline
 70
8
 71
3
 72
8
 73
4
 74
0
 40
0
 40
0
 40
0
 40
0
 40
1
 40
1
 40
1
 40
1
 10
226.833712
 20
23.954760
 30
0.0
 10
226.833712
 20
23.526041
 30
0.0
 10
226.604993
 20
23.129889
 30
0.0
 10
226.233712
 20
22.915530
 30
0.0
  0
SPLINE
  5
2ae
100
AcDbEntity
  8
0
 62
7
100
AcDbSpline
 70
8
 71
3
 72
8
 73
4
 74
0
 40
0
 40
0
 40
0
 40
0
 40
1
 40
1
 40
1
 40
1
 10
226.233712
 20
22.915530
 30
0.0
 10
225.862431
 20
22.701170
 30
0.0
 10
225.404993
 20
22.701170
 30
0.0
 10
225.033712
 20
22.915530
 30
0.0
  0
SPLINE
  5
2af
100
AcDbEntity
  8
0
 62
7
100
AcDbSpline
 70
8
 71
3
 72
8
 73
4
 74
0
 40
0
 40
0
 40
0
 40
0
 40
1
 40
1
 40
1
 40
1
 10
225.033712
 20
22.915530
 30
0.0
 10
224.662431
 20
23.129889
 30
0.0
 10
224.433712
 20
23.526041
 30
0.0
 10
224.433712
 20
23.954760
 30
0.0
  0
SPLINE
  5
2b0
100
AcDbEntity
  8
0
 62
7
100
AcDbSpline
 70
8
 71
3
 72
8
 73
4
 74
0
 40
0
 40
0
 40
0
 40
0
 40
1
 40
1
 40
1
 40
1
 10
224.433712
 20
23.954760
 30
0.0
 10
224.433712
 20
24.383479
 30
0.0
 10
224.662431
 20
24.779631
 30
0.0
 10
225.033712
 20
24.993990
 30
0.0
  0
SPLINE
  5
2b1
100
AcDbEntity
  8
0
 62
7
100
AcDbSpline
 70
8
 71
3
 72
8
 73
4
 74
0
 40
0
 40
0
 40
0
 40
0
 40
1
 40
1
 40
1
 40
1
 10
225.033712
 20
24.993990
 30
0.0
 10
225.404993
 20
25.208350
 30
0.0
 10
225.862431
 20
25.208350
 30
0.0
 10
226.233712
 20
24.993990
 30
0.0
  0
SPLINE
  5
2b2
100
AcDbEntity
  8
0
 62
7
100
AcDbSpline
 70
8
 71
3
 72
8
 73
4
 74
0
 40
0
 40
0
 40
0
 40
0
 40
1
 40
1
 40
1
 40
1
 10
226.233712
 20
24.993990
 30
0.0
 10
226.604993
 20
24.779631
 30
0.0
 10
226.833712
 20
24.383479
 30
0.0
 10
226.833712
 20
23.954760
 30
0.0
  0
LWPOLYLINE
  5
2b3
100
AcDbEntity
  8
0
 62
7
100
AcDbPolyline
 90
2
 70
1
 10
242.755760
 20
23.811312
 30
0.0
 10
242.755760
 20
23.811312
 30
0.0
  0
SPLINE
  5
2b4
100
AcDbEntity
  8
0
 62
7
100
AcDbSpline
 70
8
 71
3
 72
8
 73
4
 74
0
 40
0
 40
0
 40
0
 40
0
 40
1
 40
1
 40
1
 40
1
 10
226.977176
 20
40.020224
 30
0.0
 10
226.977176
 20
39.591505
 30
0.0
 10
226.748457
 20
39.195353
 30
0.0
 10
226.377176
 20
38.980994
 30
0.0
  0
SPLINE
  5
2b5
100
AcDbEntity
  8
0
 62
7
100
AcDbSpline
 70
8
 71
3
 72
8
 73
4
 74
0
 40
0
 40
0
 40
0
 40
0
 40
1
 40
1
 40
1
 40
1
 10
226.377176
 20
38.980994
 30
0.0
 10
226.005895
 20
38.766634
 30
0.0
 10
225.548457
 20
38.766634
 30
0.0
 10
225.177176
 20
38.980994
 30
0.0
  0
SPLINE
  5
2b6
100
AcDbEntity
  8
0
 62
7
100
AcDbSpline
 70
8
 71
3
 72
8
 73
4
 74
0
 40
0
 40
0
 40
0
 40
0
 40
1
 40
1
 40
1
 40
1
 10
225.177176
 20
38.980994
 30
0.0
 10
224.805895
 20
39.195353
 30
0.0
 10
224.577176
 20
39.591505
 30
0.0
 10
224.577176
 20
40.020224
 30
0.0
  0
SPLINE
  5
2b7
100
AcDbEntity
  8
0
 62
7
100
AcDbSpline
 70
8
 71
3
 72
8
 73
4
 74
0
 40
0
 40
0
 40
0
 40
0
 40
1
 40
1
 40
1
 40
1
 10
224.577176
 20
40.020224
 30
0.0
 10
224.577176
 20
40.448943
 30
0.0
 10
224.805895
 20
40.845095
 30
0.0
 10
225.177176
 20
41.059454
 30
0.0
  0
SPLINE
  5
2b8
100
AcDbEntity
  8
0
 62
7
100
AcDbSpline
 70
8
 71
3
 72
8
 73
4
 74
0
 40
0
 40
0
 40
0
 40
0
 40
1
 40
1
 40
1
 40
1
 10
225.177176
 20
41.059454
 30
0.0
 10
225.548457
 20
41.273814
 30
0.0
 10
226.005895
 20
41.273814
 30
0.0
 10
226.377176
 20
41.059454
 30
0.0
  0
SPLINE
  5
2b9
100
AcDbEntity
  8
0
 62
7
100
AcDbSpline
 70
8
 71
3
 72
8
 73
4
 74
0
 40
0
 40
0
 40
0
 40
0
 40
1
 40
1
 40
1
 40
1
 10
226.377176
 20
41.059454
 30
0.0
 10
226.748457
 20
40.845095
 30
0.0
 10
226.977176
 20
40.448943
 30
0.0
 10
226.977176
 20
40.020224
 30
0.0
  0
LWPOLYLINE
  5
2ba
100
AcDbEntity
  8
0
 62
7
100
AcDbPolyline
 90
2
 70
1
 10
226.833712
 20
23.954760
 30
0.0
 10
226.833712
 20
23.954760
 30
0.0
  0
SPLINE
  5
2bb
100
AcDbEntity
  8
0
 62
7
100
AcDbSpline
 70
8
 71
3
 72
8
 73
4
 74
0
 40
0
 40
0
 40
0
 40
0
 40
1
 40
1
 40
1
 40
1
 10
210.911696
 20
40.020224
 30
0.0
 10
210.911696
 20
39.591505
 30
0.0
 10
210.682977
 20
39.195353
 30
0.0
 10
210.311696
 20
38.980994
 30
0.0
  0
SPLINE
  5
2bc
100
AcDbEntity
  8
0
 62
7
100
AcDbSpline
 70
8
 71
3
 72
8
 73
4
 74
0
 40
0
 40
0
 40
0
 40
0
 40
1
 40
1
 40
1
 40
1
 10
210.311696
 20
38.980994
 30
0.0
 10
209.940415
 20
38.766634
 30
0.0
 10
209.482977
 20
38.766634
 30
0.0
 10
209.111696
 20
38.980994
 30
0.0
  0
SPLINE
  5
2bd
100
AcDbEntity
  8
0
 62
7
100
AcDbSpline
 70
8
 71
3
 72
8
 73
4
 74
0
 40
0
 40
0
 40
0
 40
0
 40
1
 40
1
 40
1
 40
1
 10
209.111696
 20
38.980994
 30
0.0
 10
208.740415
 20
39.195353
 30
0.0
 10
208.511696
 20
39.591505
 30
0.0
 10
208.511696
 20
40.020224
 30
0.0
  0
SPLINE
  5
2be
100
AcDbEntity
  8
0
 62
7
100
AcDbSpline
 70
8
 71
3
 72
8
 73
4
 74
0
 40
0
 40
0
 40
0
 40
0
 40
1
 40
1
 40
1
 40
1
 10
208.511696
 20
40.020224
 30
0.0
 10
208.511696
 20
40.448943
 30
0.0
 10
208.740415
 20
40.845095
 30
0.0
 10
209.111696
 20
41.059454
 30
0.0
  0
SPLINE
  5
2bf
100
AcDbEntity
  8
0
 62
7
100
AcDbSpline
 70
8
 71
3
 72
8
 73
4
 74
0
 40
0
 40
0
 40
0
 40
0
 40
1
 40
1
 40
1
 40
1
 10
209.111696
 20
41.059454
 30
0.0
 10
209.482977
 20
41.273814
 30
0.0
 10
209.940415
 20
41.273814
 30
0.0
 10
210.311696
 20
41.059454
 30
0.0
  0
SPLINE
  5
2c0
100
AcDbEntity
  8
0
 62
7
100
AcDbSpline
 70
8
 71
3
 72
8
 73
4
 74
0
 40
0
 40
0
 40
0
 40
0
 40
1
 40
1
 40
1
 40
1
 10
210.311696
 20
41.059454
 30
0.0
 10
210.682977
 20
40.845095
 30
0.0
 10
210.911696
 20
40.448943
 30
0.0
 10
210.911696
 20
40.020224
 30
0.0
  0
LWPOLYLINE
  5
2c1
100
AcDbEntity
  8
0
 62
7
100
AcDbPolyline
 90
2
 70
1
 10
226.977176
 20
40.020224
 30
0.0
 10
226.977176
 20
40.020224
 30
0.0
  0
SPLINE
  5
2c2
100
AcDbEntity
  8
0
 62
7
100
AcDbSpline
 70
8
 71
3
 72
8
 73
4
 74
0
 40
0
 40
0
 40
0
 40
0
 40
1
 40
1
 40
1
 40
1
 10
210.911696
 20
23.954760
 30
0.0
 10
210.911696
 20
23.526041
 30
0.0
 10
210.682977
 20
23.129889
 30
0.0
 10
210.311696
 20
22.915530
 30
0.0
  0
SPLINE
  5
2c3
100
AcDbEntity
  8
0
 62
7
100
AcDbSpline
 70
8
 71
3
 72
8
 73
4
 74
0
 40
0
 40
0
 40
0
 40
0
 40
1
 40
1
 40
1
 40
1
 10
210.311696
 20
22.915530
 30
0.0
 10
209.940415
 20
22.701170
 30
0.0
 10
209.482977
 20
22.701170
 30
0.0
 10
209.111696
 20
22.915530
 30
0.0
  0
SPLINE
  5
2c4
100
AcDbEntity
  8
0
 62
7
100
AcDbSpline
 70
8
 71
3
 72
8
 73
4
 74
0
 40
0
 40
0
 40
0
 40
0
 40
1
 40
1
 40
1
 40
1
 10
209.111696
 20
22.915530
 30
0.0
 10
208.740415
 20
23.129889
 30
0.0
 10
208.511696
 20
23.526041
 30
0.0
 10
208.511696
 20
23.954760
 30
0.0
  0
SPLINE
  5
2c5
100
AcDbEntity
  8
0
 62
7
100
AcDbSpline
 70
8
 71
3
 72
8
 73
4
 74
0
 40
0
 40
0
 40
0
 40
0
 40
1
 40
1
 40
1
 40
1
 10
208.511696
 20
23.954760
 30
0.0
 10
208.511696
 20
24.383479
 30
0.0
 10
208.740415
 20
24.779631
 30
0.0
 10
209.111696
 20
24.993990
 30
0.0
  0
SPLINE
  5
2c6
100
AcDbEntity
  8
0
 62
7
100
AcDbSpline
 70
8
 71
3
 72
8
 73
4
 74
0
 40
0
 40
0
 40
0
 40
0
 40
1
 40
1
 40
1
 40
1
 10
209.111696
 20
24.993990
 30
0.0
 10
209.482977
 20
25.208350
 30
0.0
 10
209.940415
 20
25.208350
 30
0.0
 10
210.311696
 20
24.993990
 30
0.0
  0
SPLINE
  5
2c7
100
AcDbEntity
  8
0
 62
7
100
AcDbSpline
 70
8
 71
3
 72
8
 73
4
 74
0
 40
0
 40
0
 40
0
 40
0
 40
1
 40
1
 40
1
 40
1
 10
210.311696
 20
24.993990
 30
0.0
 10
210.682977
 20
24.779631
 30
0.0
 10
210.911696
 20
24.383479
 30
0.0
 10
210.911696
 20
23.954760
 30
0.0
  0
LWPOLYLINE
  5
2c8
100
AcDbEntity
  8
0
 62
7
100
AcDbPolyline
 90
2
 70
1
 10
210.911696
 20
40.020224
 30
0.0
 10
210.911696
 20
40.020224
 30
0.0
  0
SPLINE
  5
2c9
100
AcDbEntity
  8
0
 62
7
100
AcDbSpline
 70
8
 71
3
 72
8
 73
4
 74
0
 40
0
 40
0
 40
0
 40
0
 40
1
 40
1
 40
1
 40
1
 10
194.989688
 20
23.954760
 30
0.0
 10
194.989688
 20
23.526041
 30
0.0
 10
194.760969
 20
23.129889
 30
0.0
 10
194.389688
 20
22.915530
 30
0.0
  0
SPLINE
  5
2ca
100
AcDbEntity
  8
0
 62
7
100
AcDbSpline
 70
8
 71
3
 72
8
 73
4
 74
0
 40
0
 40
0
 40
0
 40
0
 40
1
 40
1
 40
1
 40
1
 10
194.389688
 20
22.915530
 30
0.0
 10
194.018407
 20
22.701170
 30
0.0
 10
193.560969
 20
22.701170
 30
0.0
 10
193.189688
 20
22.915530
 30
0.0
  0
SPLINE
  5
2cb
100
AcDbEntity
  8
0
 62
7
100
AcDbSpline
 70
8
 71
3
 72
8
 73
4
 74
0
 40
0
 40
0
 40
0
 40
0
 40
1
 40
1
 40
1
 40
1
 10
193.189688
 20
22.915530
 30
0.0
 10
192.818407
 20
23.129889
 30
0.0
 10
192.589688
 20
23.526041
 30
0.0
 10
192.589688
 20
23.954760
 30
0.0
  0
SPLINE
  5
2cc
100
AcDbEntity
  8
0
 62
7
100
AcDbSpline
 70
8
 71
3
 72
8
 73
4
 74
0
 40
0
 40
0
 40
0
 40
0
 40
1
 40
1
 40
1
 40
1
 10
192.589688
 20
23.954760
 30
0.0
 10
192.589688
 20
24.383479
 30
0.0
 10
192.818407
 20
24.779631
 30
0.0
 10
193.189688
 20
24.993990
 30
0.0
  0
SPLINE
  5
2cd
100
AcDbEntity
  8
0
 62
7
100
AcDbSpline
 70
8
 71
3
 72
8
 73
4
 74
0
 40
0
 40
0
 40
0
 40
0
 40
1
 40
1
 40
1
 40
1
 10
193.189688
 20
24.993990
 30
0.0
 10
193.560969
 20
25.208350
 30
0.0
 10
194.018407
 20
25.208350
 30
0.0
 10
194.389688
 20
24.993990
 30
0.0
  0
SPLINE
  5
2ce
100
AcDbEntity
  8
0
 62
7
100
AcDbSpline
 70
8
 71
3
 72
8
 73
4
 74
0
 40
0
 40
0
 40
0
 40
0
 40
1
 40
1
 40
1
 40
1
 10
194.389688
 20
24.993990
 30
0.0
 10
194.760969
 20
24.779631
 30
0.0
 10
194.989688
 20
24.383479
 30
0.0
 10
194.989688
 20
23.954760
 30
0.0
  0
LWPOLYLINE
  5
2cf
100
AcDbEntity
  8
0
 62
7
100
AcDbPolyline
 90
2
 70
1
 10
210.911696
 20
23.954760
 30
0.0
 10
210.911696
 20
23.954760
 30
0.0
  0
SPLINE
  5
2d0
100
AcDbEntity
  8
0
 62
7
100
AcDbSpline
 70
8
 71
3
 72
8
 73
4
 74
0
 40
0
 40
0
 40
0
 40
0
 40
1
 40
1
 40
1
 40
1
 10
178.780776
 20
7.889280
 30
0.0
 10
178.780776
 20
7.460561
 30
0.0
 10
178.552057
 20
7.064409
 30
0.0
 10
178.180776
 20
6.850050
 30
0.0
  0
SPLINE
  5
2d1
100
AcDbEntity
  8
0
 62
7
100
AcDbSpline
 70
8
 71
3
 72
8
 73
4
 74
0
 40
0
 40
0
 40
0
 40
0
 40
1
 40
1
 40
1
 40
1
 10
178.180776
 20
6.850050
 30
0.0
 10
177.809495
 20
6.635690
 30
0.0
 10
177.352057
 20
6.635690
 30
0.0
 10
176.980776
 20
6.850050
 30
0.0
  0
SPLINE
  5
2d2
100
AcDbEntity
  8
0
 62
7
100
AcDbSpline
 70
8
 71
3
 72
8
 73
4
 74
0
 40
0
 40
0
 40
0
 40
0
 40
1
 40
1
 40
1
 40
1
 10
176.980776
 20
6.850050
 30
0.0
 10
176.609495
 20
7.064409
 30
0.0
 10
176.380776
 20
7.460561
 30
0.0
 10
176.380776
 20
7.889280
 30
0.0
  0
SPLINE
  5
2d3
100
AcDbEntity
  8
0
 62
7
100
AcDbSpline
 70
8
 71
3
 72
8
 73
4
 74
0
 40
0
 40
0
 40
0
 40
0
 40
1
 40
1
 40
1
 40
1
 10
176.380776
 20
7.889280
 30
0.0
 10
176.380776
 20
8.317999
 30
0.0
 10
176.609495
 20
8.714151
 30
0.0
 10
176.980776
 20
8.928510
 30
0.0
  0
SPLINE
  5
2d4
100
AcDbEntity
  8
0
 62
7
100
AcDbSpline
 70
8
 71
3
 72
8
 73
4
 74
0
 40
0
 40
0
 40
0
 40
0
 40
1
 40
1
 40
1
 40
1
 10
176.980776
 20
8.928510
 30
0.0
 10
177.352057
 20
9.142870
 30
0.0
 10
177.809495
 20
9.142870
 30
0.0
 10
178.180776
 20
8.928510
 30
0.0
  0
SPLINE
  5
2d5
100
AcDbEntity
  8
0
 62
7
100
AcDbSpline
 70
8
 71
3
 72
8
 73
4
 74
0
 40
0
 40
0
 40
0
 40
0
 40
1
 40
1
 40
1
 40
1
 10
178.180776
 20
8.928510
 30
0.0
 10
178.552057
 20
8.714151
 30
0.0
 10
178.780776
 20
8.317999
 30
0.0
 10
178.780776
 20
7.889280
 30
0.0
  0
LWPOLYLINE
  5
2d6
100
AcDbEntity
  8
0
 62
7
100
AcDbPolyline
 90
2
 70
1
 10
194.989688
 20
23.954760
 30
0.0
 10
194.989688
 20
23.954760
 30
0.0
  0
SPLINE
  5
2d7
100
AcDbEntity
  8
0
 62
7
100
AcDbSpline
 70
8
 71
3
 72
8
 73
4
 74
0
 40
0
 40
0
 40
0
 40
0
 40
1
 40
1
 40
1
 40
1
 10
162.715304
 20
7.889280
 30
0.0
 10
162.715304
 20
7.460561
 30
0.0
 10
162.486585
 20
7.064409
 30
0.0
 10
162.115304
 20
6.850050
 30
0.0
  0
SPLINE
  5
2d8
100
AcDbEntity
  8
0
 62
7
100
AcDbSpline
 70
8
 71
3
 72
8
 73
4
 74
0
 40
0
 40
0
 40
0
 40
0
 40
1
 40
1
 40
1
 40
1
 10
162.115304
 20
6.850050
 30
0.0
 10
161.744023
 20
6.635690
 30
0.0
 10
161.286585
 20
6.635690
 30
0.0
 10
160.915304
 20
6.850050
 30
0.0
  0
SPLINE
  5
2d9
100
AcDbEntity
  8
0
 62
7
100
AcDbSpline
 70
8
 71
3
 72
8
 73
4
 74
0
 40
0
 40
0
 40
0
 40
0
 40
1
 40
1
 40
1
 40
1
 10
160.915304
 20
6.850050
 30
0.0
 10
160.544023
 20
7.064409
 30
0.0
 10
160.315304
 20
7.460561
 30
0.0
 10
160.315304
 20
7.889280
 30
0.0
  0
SPLINE
  5
2da
100
AcDbEntity
  8
0
 62
7
100
AcDbSpline
 70
8
 71
3
 72
8
 73
4
 74
0
 40
0
 40
0
 40
0
 40
0
 40
1
 40
1
 40
1
 40
1
 10
160.315304
 20
7.889280
 30
0.0
 10
160.315304
 20
8.317999
 30
0.0
 10
160.544023
 20
8.714151
 30
0.0
 10
160.915304
 20
8.928510
 30
0.0
  0
SPLINE
  5
2db
100
AcDbEntity
  8
0
 62
7
100
AcDbSpline
 70
8
 71
3
 72
8
 73
4
 74
0
 40
0
 40
0
 40
0
 40
0
 40
1
 40
1
 40
1
 40
1
 10
160.915304
 20
8.928510
 30
0.0
 10
161.286585
 20
9.142870
 30
0.0
 10
161.744023
 20
9.142870
 30
0.0
 10
162.115304
 20
8.928510
 30
0.0
  0
SPLINE
  5
2dc
100
AcDbEntity
  8
0
 62
7
100
AcDbSpline
 70
8
 71
3
 72
8
 73
4
 74
0
 40
0
 40
0
 40
0
 40
0
 40
1
 40
1
 40
1
 40
1
 10
162.115304
 20
8.928510
 30
0.0
 10
162.486585
 20
8.714151
 30
0.0
 10
162.715304
 20
8.317999
 30
0.0
 10
162.715304
 20
7.889280
 30
0.0
  0
LWPOLYLINE
  5
2dd
100
AcDbEntity
  8
0
 62
7
100
AcDbPolyline
 90
2
 70
1
 10
178.780776
 20
7.889280
 30
0.0
 10
178.780776
 20
7.889280
 30
0.0
  0
SPLINE
  5
2de
100
AcDbEntity
  8
0
 62
7
100
AcDbSpline
 70
8
 71
3
 72
8
 73
4
 74
0
 40
0
 40
0
 40
0
 40
0
 40
1
 40
1
 40
1
 40
1
 10
146.936728
 20
8.032736
 30
0.0
 10
146.936728
 20
7.604017
 30
0.0
 10
146.708009
 20
7.207865
 30
0.0
 10
146.336728
 20
6.993506
 30
0.0
  0
SPLINE
  5
2df
100
AcDbEntity
  8
0
 62
7
100
AcDbSpline
 70
8
 71
3
 72
8
 73
4
 74
0
 40
0
 40
0
 40
0
 40
0
 40
1
 40
1
 40
1
 40
1
 10
146.336728
 20
6.993506
 30
0.0
 10
145.965447
 20
6.779146
 30
0.0
 10
145.508009
 20
6.779146
 30
0.0
 10
145.136728
 20
6.993506
 30
0.0
  0
SPLINE
  5
2e0
100
AcDbEntity
  8
0
 62
7
100
AcDbSpline
 70
8
 71
3
 72
8
 73
4
 74
0
 40
0
 40
0
 40
0
 40
0
 40
1
 40
1
 40
1
 40
1
 10
145.136728
 20
6.993506
 30
0.0
 10
144.765447
 20
7.207865
 30
0.0
 10
144.536728
 20
7.604017
 30
0.0
 10
144.536728
 20
8.032736
 30
0.0
  0
SPLINE
  5
2e1
100
AcDbEntity
  8
0
 62
7
100
AcDbSpline
 70
8
 71
3
 72
8
 73
4
 74
0
 40
0
 40
0
 40
0
 40
0
 40
1
 40
1
 40
1
 40
1
 10
144.536728
 20
8.032736
 30
0.0
 10
144.536728
 20
8.461455
 30
0.0
 10
144.765447
 20
8.857607
 30
0.0
 10
145.136728
 20
9.071966
 30
0.0
  0
SPLINE
  5
2e2
100
AcDbEntity
  8
0
 62
7
100
AcDbSpline
 70
8
 71
3
 72
8
 73
4
 74
0
 40
0
 40
0
 40
0
 40
0
 40
1
 40
1
 40
1
 40
1
 10
145.136728
 20
9.071966
 30
0.0
 10
145.508009
 20
9.286326
 30
0.0
 10
145.965447
 20
9.286326
 30
0.0
 10
146.336728
 20
9.071966
 30
0.0
  0
SPLINE
  5
2e3
100
AcDbEntity
  8
0
 62
7
100
AcDbSpline
 70
8
 71
3
 72
8
 73
4
 74
0
 40
0
 40
0
 40
0
 40
0
 40
1
 40
1
 40
1
 40
1
 10
146.336728
 20
9.071966
 30
0.0
 10
146.708009
 20
8.857607
 30
0.0
 10
146.936728
 20
8.461455
 30
0.0
 10
146.936728
 20
8.032736
 30
0.0
  0
LWPOLYLINE
  5
2e4
100
AcDbEntity
  8
0
 62
7
100
AcDbPolyline
 90
2
 70
1
 10
162.715304
 20
7.889280
 30
0.0
 10
162.715304
 20
7.889280
 30
0.0
  0
SPLINE
  5
2e5
100
AcDbEntity
  8
0
 62
7
100
AcDbSpline
 70
8
 71
3
 72
8
 73
4
 74
0
 40
0
 40
0
 40
0
 40
0
 40
1
 40
1
 40
1
 40
1
 10
130.871256
 20
7.889280
 30
0.0
 10
130.871256
 20
7.460561
 30
0.0
 10
130.642537
 20
7.064409
 30
0.0
 10
130.271256
 20
6.850050
 30
0.0
  0
SPLINE
  5
2e6
100
AcDbEntity
  8
0
 62
7
100
AcDbSpline
 70
8
 71
3
 72
8
 73
4
 74
0
 40
0
 40
0
 40
0
 40
0
 40
1
 40
1
 40
1
 40
1
 10
130.271256
 20
6.850050
 30
0.0
 10
129.899975
 20
6.635690
 30
0.0
 10
129.442537
 20
6.635690
 30
0.0
 10
129.071256
 20
6.850050
 30
0.0
  0
SPLINE
  5
2e7
100
AcDbEntity
  8
0
 62
7
100
AcDbSpline
 70
8
 71
3
 72
8
 73
4
 74
0
 40
0
 40
0
 40
0
 40
0
 40
1
 40
1
 40
1
 40
1
 10
129.071256
 20
6.850050
 30
0.0
 10
128.699975
 20
7.064409
 30
0.0
 10
128.471256
 20
7.460561
 30
0.0
 10
128.471256
 20
7.889280
 30
0.0
  0
SPLINE
  5
2e8
100
AcDbEntity
  8
0
 62
7
100
AcDbSpline
 70
8
 71
3
 72
8
 73
4
 74
0
 40
0
 40
0
 40
0
 40
0
 40
1
 40
1
 40
1
 40
1
 10
128.471256
 20
7.889280
 30
0.0
 10
128.471256
 20
8.317999
 30
0.0
 10
128.699975
 20
8.714151
 30
0.0
 10
129.071256
 20
8.928510
 30
0.0
  0
SPLINE
  5
2e9
100
AcDbEntity
  8
0
 62
7
100
AcDbSpline
 70
8
 71
3
 72
8
 73
4
 74
0
 40
0
 40
0
 40
0
 40
0
 40
1
 40
1
 40
1
 40
1
 10
129.071256
 20
8.928510
 30
0.0
 10
129.442537
 20
9.142870
 30
0.0
 10
129.899975
 20
9.142870
 30
0.0
 10
130.271256
 20
8.928510
 30
0.0
  0
SPLINE
  5
2ea
100
AcDbEntity
  8
0
 62
7
100
AcDbSpline
 70
8
 71
3
 72
8
 73
4
 74
0
 40
0
 40
0
 40
0
 40
0
 40
1
 40
1
 40
1
 40
1
 10
130.271256
 20
8.928510
 30
0.0
 10
130.642537
 20
8.714151
 30
0.0
 10
130.871256
 20
8.317999
 30
0.0
 10
130.871256
 20
7.889280
 30
0.0
  0
LWPOLYLINE
  5
2eb
100
AcDbEntity
  8
0
 62
7
100
AcDbPolyline
 90
2
 70
1
 10
146.936728
 20
8.032736
 30
0.0
 10
146.936728
 20
8.032736
 30
0.0
  0
SPLINE
  5
2ec
100
AcDbEntity
  8
0
 62
7
100
AcDbSpline
 70
8
 71
3
 72
8
 73
4
 74
0
 40
0
 40
0
 40
0
 40
0
 40
1
 40
1
 40
1
 40
1
 10
298.984888
 20
23.954760
 30
0.0
 10
298.984888
 20
23.526041
 30
0.0
 10
298.756169
 20
23.129889
 30
0.0
 10
298.384888
 20
22.915530
 30
0.0
  0
SPLINE
  5
2ed
100
AcDbEntity
  8
0
 62
7
100
AcDbSpline
 70
8
 71
3
 72
8
 73
4
 74
0
 40
0
 40
0
 40
0
 40
0
 40
1
 40
1
 40
1
 40
1
 10
298.384888
 20
22.915530
 30
0.0
 10
298.013607
 20
22.701170
 30
0.0
 10
297.556169
 20
22.701170
 30
0.0
 10
297.184888
 20
22.915530
 30
0.0
  0
SPLINE
  5
2ee
100
AcDbEntity
  8
0
 62
7
100
AcDbSpline
 70
8
 71
3
 72
8
 73
4
 74
0
 40
0
 40
0
 40
0
 40
0
 40
1
 40
1
 40
1
 40
1
 10
297.184888
 20
22.915530
 30
0.0
 10
296.813607
 20
23.129889
 30
0.0
 10
296.584888
 20
23.526041
 30
0.0
 10
296.584888
 20
23.954760
 30
0.0
  0
SPLINE
  5
2ef
100
AcDbEntity
  8
0
 62
7
100
AcDbSpline
 70
8
 71
3
 72
8
 73
4
 74
0
 40
0
 40
0
 40
0
 40
0
 40
1
 40
1
 40
1
 40
1
 10
296.584888
 20
23.954760
 30
0.0
 10
296.584888
 20
24.383479
 30
0.0
 10
296.813607
 20
24.779631
 30
0.0
 10
297.184888
 20
24.993990
 30
0.0
  0
SPLINE
  5
2f0
100
AcDbEntity
  8
0
 62
7
100
AcDbSpline
 70
8
 71
3
 72
8
 73
4
 74
0
 40
0
 40
0
 40
0
 40
0
 40
1
 40
1
 40
1
 40
1
 10
297.184888
 20
24.993990
 30
0.0
 10
297.556169
 20
25.208350
 30
0.0
 10
298.013607
 20
25.208350
 30
0.0
 10
298.384888
 20
24.993990
 30
0.0
  0
SPLINE
  5
2f1
100
AcDbEntity
  8
0
 62
7
100
AcDbSpline
 70
8
 71
3
 72
8
 73
4
 74
0
 40
0
 40
0
 40
0
 40
0
 40
1
 40
1
 40
1
 40
1
 10
298.384888
 20
24.993990
 30
0.0
 10
298.756169
 20
24.779631
 30
0.0
 10
298.984888
 20
24.383479
 30
0.0
 10
298.984888
 20
23.954760
 30
0.0
  0
LWPOLYLINE
  5
2f2
100
AcDbEntity
  8
0
 62
7
100
AcDbPolyline
 90
2
 70
1
 10
130.871256
 20
7.889280
 30
0.0
 10
130.871256
 20
7.889280
 30
0.0
  0
SPLINE
  5
2f3
100
AcDbEntity
  8
0
 62
7
100
AcDbSpline
 70
8
 71
3
 72
8
 73
4
 74
0
 40
0
 40
0
 40
0
 40
0
 40
1
 40
1
 40
1
 40
1
 10
307.017624
 20
23.954760
 30
0.0
 10
307.017624
 20
23.526041
 30
0.0
 10
306.788905
 20
23.129889
 30
0.0
 10
306.417624
 20
22.915530
 30
0.0
  0
SPLINE
  5
2f4
100
AcDbEntity
  8
0
 62
7
100
AcDbSpline
 70
8
 71
3
 72
8
 73
4
 74
0
 40
0
 40
0
 40
0
 40
0
 40
1
 40
1
 40
1
 40
1
 10
306.417624
 20
22.915530
 30
0.0
 10
306.046343
 20
22.701170
 30
0.0
 10
305.588905
 20
22.701170
 30
0.0
 10
305.217624
 20
22.915530
 30
0.0
  0
SPLINE
  5
2f5
100
AcDbEntity
  8
0
 62
7
100
AcDbSpline
 70
8
 71
3
 72
8
 73
4
 74
0
 40
0
 40
0
 40
0
 40
0
 40
1
 40
1
 40
1
 40
1
 10
305.217624
 20
22.915530
 30
0.0
 10
304.846343
 20
23.129889
 30
0.0
 10
304.617624
 20
23.526041
 30
0.0
 10
304.617624
 20
23.954760
 30
0.0
  0
SPLINE
  5
2f6
100
AcDbEntity
  8
0
 62
7
100
AcDbSpline
 70
8
 71
3
 72
8
 73
4
 74
0
 40
0
 40
0
 40
0
 40
0
 40
1
 40
1
 40
1
 40
1
 10
304.617624
 20
23.954760
 30
0.0
 10
304.617624
 20
24.383479
 30
0.0
 10
304.846343
 20
24.779631
 30
0.0
 10
305.217624
 20
24.993990
 30
0.0
  0
SPLINE
  5
2f7
100
AcDbEntity
  8
0
 62
7
100
AcDbSpline
 70
8
 71
3
 72
8
 73
4
 74
0
 40
0
 40
0
 40
0
 40
0
 40
1
 40
1
 40
1
 40
1
 10
305.217624
 20
24.993990
 30
0.0
 10
305.588905
 20
25.208350
 30
0.0
 10
306.046343
 20
25.208350
 30
0.0
 10
306.417624
 20
24.993990
 30
0.0
  0
SPLINE
  5
2f8
100
AcDbEntity
  8
0
 62
7
100
AcDbSpline
 70
8
 71
3
 72
8
 73
4
 74
0
 40
0
 40
0
 40
0
 40
0
 40
1
 40
1
 40
1
 40
1
 10
306.417624
 20
24.993990
 30
0.0
 10
306.788905
 20
24.779631
 30
0.0
 10
307.017624
 20
24.383479
 30
0.0
 10
307.017624
 20
23.954760
 30
0.0
  0
LWPOLYLINE
  5
2f9
100
AcDbEntity
  8
0
 62
7
100
AcDbPolyline
 90
2
 70
1
 10
298.984888
 20
23.954760
 30
0.0
 10
298.984888
 20
23.954760
 30
0.0
  0
SPLINE
  5
2fa
100
AcDbEntity
  8
0
 62
7
100
AcDbSpline
 70
8
 71
3
 72
8
 73
4
 74
0
 40
0
 40
0
 40
0
 40
0
 40
1
 40
1
 40
1
 40
1
 10
314.906912
 20
23.954760
 30
0.0
 10
314.906912
 20
23.526041
 30
0.0
 10
314.678193
 20
23.129889
 30
0.0
 10
314.306912
 20
22.915530
 30
0.0
  0
SPLINE
  5
2fb
100
AcDbEntity
  8
0
 62
7
100
AcDbSpline
 70
8
 71
3
 72
8
 73
4
 74
0
 40
0
 40
0
 40
0
 40
0
 40
1
 40
1
 40
1
 40
1
 10
314.306912
 20
22.915530
 30
0.0
 10
313.935631
 20
22.701170
 30
0.0
 10
313.478193
 20
22.701170
 30
0.0
 10
313.106912
 20
22.915530
 30
0.0
  0
SPLINE
  5
2fc
100
AcDbEntity
  8
0
 62
7
100
AcDbSpline
 70
8
 71
3
 72
8
 73
4
 74
0
 40
0
 40
0
 40
0
 40
0
 40
1
 40
1
 40
1
 40
1
 10
313.106912
 20
22.915530
 30
0.0
 10
312.735631
 20
23.129889
 30
0.0
 10
312.506912
 20
23.526041
 30
0.0
 10
312.506912
 20
23.954760
 30
0.0
  0
SPLINE
  5
2fd
100
AcDbEntity
  8
0
 62
7
100
AcDbSpline
 70
8
 71
3
 72
8
 73
4
 74
0
 40
0
 40
0
 40
0
 40
0
 40
1
 40
1
 40
1
 40
1
 10
312.506912
 20
23.954760
 30
0.0
 10
312.506912
 20
24.383479
 30
0.0
 10
312.735631
 20
24.779631
 30
0.0
 10
313.106912
 20
24.993990
 30
0.0
  0
SPLINE
  5
2fe
100
AcDbEntity
  8
0
 62
7
100
AcDbSpline
 70
8
 71
3
 72
8
 73
4
 74
0
 40
0
 40
0
 40
0
 40
0
 40
1
 40
1
 40
1
 40
1
 10
313.106912
 20
24.993990
 30
0.0
 10
313.478193
 20
25.208350
 30
0.0
 10
313.935631
 20
25.208350
 30
0.0
 10
314.306912
 20
24.993990
 30
0.0
  0
SPLINE
  5
2ff
100
AcDbEntity
  8
0
 62
7
100
AcDbSpline
 70
8
 71
3
 72
8
 73
4
 74
0
 40
0
 40
0
 40
0
 40
0
 40
1
 40
1
 40
1
 40
1
 10
314.306912
 20
24.993990
 30
0.0
 10
314.678193
 20
24.779631
 30
0.0
 10
314.906912
 20
24.383479
 30
0.0
 10
314.906912
 20
23.954760
 30
0.0
  0
LWPOLYLINE
  5
300
100
AcDbEntity
  8
0
 62
7
100
AcDbPolyline
 90
2
 70
1
 10
307.017624
 20
23.954760
 30
0.0
 10
307.017624
 20
23.954760
 30
0.0
  0
SPLINE
  5
301
100
AcDbEntity
  8
0
 62
7
100
AcDbSpline
 70
8
 71
3
 72
8
 73
4
 74
0
 40
0
 40
0
 40
0
 40
0
 40
1
 40
1
 40
1
 40
1
 10
398.103080
 20
23.811312
 30
0.0
 10
398.103080
 20
23.382593
 30
0.0
 10
397.874361
 20
22.986441
 30
0.0
 10
397.503080
 20
22.772082
 30
0.0
  0
SPLINE
  5
302
100
AcDbEntity
  8
0
 62
7
100
AcDbSpline
 70
8
 71
3
 72
8
 73
4
 74
0
 40
0
 40
0
 40
0
 40
0
 40
1
 40
1
 40
1
 40
1
 10
397.503080
 20
22.772082
 30
0.0
 10
397.131799
 20
22.557722
 30
0.0
 10
396.674361
 20
22.557722
 30
0.0
 10
396.303080
 20
22.772082
 30
0.0
  0
SPLINE
  5
303
100
AcDbEntity
  8
0
 62
7
100
AcDbSpline
 70
8
 71
3
 72
8
 73
4
 74
0
 40
0
 40
0
 40
0
 40
0
 40
1
 40
1
 40
1
 40
1
 10
396.303080
 20
22.772082
 30
0.0
 10
395.931799
 20
22.986441
 30
0.0
 10
395.703080
 20
23.382593
 30
0.0
 10
395.703080
 20
23.811312
 30
0.0
  0
SPLINE
  5
304
100
AcDbEntity
  8
0
 62
7
100
AcDbSpline
 70
8
 71
3
 72
8
 73
4
 74
0
 40
0
 40
0
 40
0
 40
0
 40
1
 40
1
 40
1
 40
1
 10
395.703080
 20
23.811312
 30
0.0
 10
395.703080
 20
24.240031
 30
0.0
 10
395.931799
 20
24.636183
 30
0.0
 10
396.303080
 20
24.850542
 30
0.0
  0
SPLINE
  5
305
100
AcDbEntity
  8
0
 62
7
100
AcDbSpline
 70
8
 71
3
 72
8
 73
4
 74
0
 40
0
 40
0
 40
0
 40
0
 40
1
 40
1
 40
1
 40
1
 10
396.303080
 20
24.850542
 30
0.0
 10
396.674361
 20
25.064902
 30
0.0
 10
397.131799
 20
25.064902
 30
0.0
 10
397.503080
 20
24.850542
 30
0.0
  0
SPLINE
  5
306
100
AcDbEntity
  8
0
 62
7
100
AcDbSpline
 70
8
 71
3
 72
8
 73
4
 74
0
 40
0
 40
0
 40
0
 40
0
 40
1
 40
1
 40
1
 40
1
 10
397.503080
 20
24.850542
 30
0.0
 10
397.874361
 20
24.636183
 30
0.0
 10
398.103080
 20
24.240031
 30
0.0
 10
398.103080
 20
23.811312
 30
0.0
  0
LWPOLYLINE
  5
307
100
AcDbEntity
  8
0
 62
7
100
AcDbPolyline
 90
2
 70
1
 10
314.906912
 20
23.954760
 30
0.0
 10
314.906912
 20
23.954760
 30
0.0
  0
SPLINE
  5
308
100
AcDbEntity
  8
0
 62
7
100
AcDbSpline
 70
8
 71
3
 72
8
 73
4
 74
0
 40
0
 40
0
 40
0
 40
0
 40
1
 40
1
 40
1
 40
1
 10
398.246512
 20
40.163656
 30
0.0
 10
398.246512
 20
39.734937
 30
0.0
 10
398.017793
 20
39.338785
 30
0.0
 10
397.646512
 20
39.124426
 30
0.0
  0
SPLINE
  5
309
100
AcDbEntity
  8
0
 62
7
100
AcDbSpline
 70
8
 71
3
 72
8
 73
4
 74
0
 40
0
 40
0
 40
0
 40
0
 40
1
 40
1
 40
1
 40
1
 10
397.646512
 20
39.124426
 30
0.0
 10
397.275231
 20
38.910066
 30
0.0
 10
396.817793
 20
38.910066
 30
0.0
 10
396.446512
 20
39.124426
 30
0.0
  0
SPLINE
  5
30a
100
AcDbEntity
  8
0
 62
7
100
AcDbSpline
 70
8
 71
3
 72
8
 73
4
 74
0
 40
0
 40
0
 40
0
 40
0
 40
1
 40
1
 40
1
 40
1
 10
396.446512
 20
39.124426
 30
0.0
 10
396.075231
 20
39.338785
 30
0.0
 10
395.846512
 20
39.734937
 30
0.0
 10
395.846512
 20
40.163656
 30
0.0
  0
SPLINE
  5
30b
100
AcDbEntity
  8
0
 62
7
100
AcDbSpline
 70
8
 71
3
 72
8
 73
4
 74
0
 40
0
 40
0
 40
0
 40
0
 40
1
 40
1
 40
1
 40
1
 10
395.846512
 20
40.163656
 30
0.0
 10
395.846512
 20
40.592375
 30
0.0
 10
396.075231
 20
40.988527
 30
0.0
 10
396.446512
 20
41.202886
 30
0.0
  0
SPLINE
  5
30c
100
AcDbEntity
  8
0
 62
7
100
AcDbSpline
 70
8
 71
3
 72
8
 73
4
 74
0
 40
0
 40
0
 40
0
 40
0
 40
1
 40
1
 40
1
 40
1
 10
396.446512
 20
41.202886
 30
0.0
 10
396.817793
 20
41.417246
 30
0.0
 10
397.275231
 20
41.417246
 30
0.0
 10
397.646512
 20
41.202886
 30
0.0
  0
SPLINE
  5
30d
100
AcDbEntity
  8
0
 62
7
100
AcDbSpline
 70
8
 71
3
 72
8
 73
4
 74
0
 40
0
 40
0
 40
0
 40
0
 40
1
 40
1
 40
1
 40
1
 10
397.646512
 20
41.202886
 30
0.0
 10
398.017793
 20
40.988527
 30
0.0
 10
398.246512
 20
40.592375
 30
0.0
 10
398.246512
 20
40.163656
 30
0.0
  0
LWPOLYLINE
  5
30e
100
AcDbEntity
  8
0
 62
7
100
AcDbPolyline
 90
2
 70
1
 10
398.103080
 20
23.811312
 30
0.0
 10
398.103080
 20
23.811312
 30
0.0
  0
SPLINE
  5
30f
100
AcDbEntity
  8
0
 62
7
100
AcDbSpline
 70
8
 71
3
 72
8
 73
4
 74
0
 40
0
 40
0
 40
0
 40
0
 40
1
 40
1
 40
1
 40
1
 10
458.778904
 20
40.020224
 30
0.0
 10
458.778904
 20
39.591505
 30
0.0
 10
458.550185
 20
39.195353
 30
0.0
 10
458.178904
 20
38.980994
 30
0.0
  0
SPLINE
  5
310
100
AcDbEntity
  8
0
 62
7
100
AcDbSpline
 70
8
 71
3
 72
8
 73
4
 74
0
 40
0
 40
0
 40
0
 40
0
 40
1
 40
1
 40
1
 40
1
 10
458.178904
 20
38.980994
 30
0.0
 10
457.807623
 20
38.766634
 30
0.0
 10
457.350185
 20
38.766634
 30
0.0
 10
456.978904
 20
38.980994
 30
0.0
  0
SPLINE
  5
311
100
AcDbEntity
  8
0
 62
7
100
AcDbSpline
 70
8
 71
3
 72
8
 73
4
 74
0
 40
0
 40
0
 40
0
 40
0
 40
1
 40
1
 40
1
 40
1
 10
456.978904
 20
38.980994
 30
0.0
 10
456.607623
 20
39.195353
 30
0.0
 10
456.378904
 20
39.591505
 30
0.0
 10
456.378904
 20
40.020224
 30
0.0
  0
SPLINE
  5
312
100
AcDbEntity
  8
0
 62
7
100
AcDbSpline
 70
8
 71
3
 72
8
 73
4
 74
0
 40
0
 40
0
 40
0
 40
0
 40
1
 40
1
 40
1
 40
1
 10
456.378904
 20
40.020224
 30
0.0
 10
456.378904
 20
40.448943
 30
0.0
 10
456.607623
 20
40.845095
 30
0.0
 10
456.978904
 20
41.059454
 30
0.0
  0
SPLINE
  5
313
100
AcDbEntity
  8
0
 62
7
100
AcDbSpline
 70
8
 71
3
 72
8
 73
4
 74
0
 40
0
 40
0
 40
0
 40
0
 40
1
 40
1
 40
1
 40
1
 10
456.978904
 20
41.059454
 30
0.0
 10
457.350185
 20
41.273814
 30
0.0
 10
457.807623
 20
41.273814
 30
0.0
 10
458.178904
 20
41.059454
 30
0.0
  0
SPLINE
  5
314
100
AcDbEntity
  8
0
 62
7
100
AcDbSpline
 70
8
 71
3
 72
8
 73
4
 74
0
 40
0
 40
0
 40
0
 40
0
 40
1
 40
1
 40
1
 40
1
 10
458.178904
 20
41.059454
 30
0.0
 10
458.550185
 20
40.845095
 30
0.0
 10
458.778904
 20
40.448943
 30
0.0
 10
458.778904
 20
40.020224
 30
0.0
  0
LWPOLYLINE
  5
315
100
AcDbEntity
  8
0
 62
7
100
AcDbPolyline
 90
2
 70
1
 10
398.246512
 20
40.163656
 30
0.0
 10
398.246512
 20
40.163656
 30
0.0
  0
SPLINE
  5
316
100
AcDbEntity
  8
0
 62
7
100
AcDbSpline
 70
8
 71
3
 72
8
 73
4
 74
0
 40
0
 40
0
 40
0
 40
0
 40
1
 40
1
 40
1
 40
1
 10
458.922312
 20
24.098208
 30
0.0
 10
458.922312
 20
23.669489
 30
0.0
 10
458.693593
 20
23.273337
 30
0.0
 10
458.322312
 20
23.058978
 30
0.0
  0
SPLINE
  5
317
100
AcDbEntity
  8
0
 62
7
100
AcDbSpline
 70
8
 71
3
 72
8
 73
4
 74
0
 40
0
 40
0
 40
0
 40
0
 40
1
 40
1
 40
1
 40
1
 10
458.322312
 20
23.058978
 30
0.0
 10
457.951031
 20
22.844618
 30
0.0
 10
457.493593
 20
22.844618
 30
0.0
 10
457.122312
 20
23.058978
 30
0.0
  0
SPLINE
  5
318
100
AcDbEntity
  8
0
 62
7
100
AcDbSpline
 70
8
 71
3
 72
8
 73
4
 74
0
 40
0
 40
0
 40
0
 40
0
 40
1
 40
1
 40
1
 40
1
 10
457.122312
 20
23.058978
 30
0.0
 10
456.751031
 20
23.273337
 30
0.0
 10
456.522312
 20
23.669489
 30
0.0
 10
456.522312
 20
24.098208
 30
0.0
  0
SPLINE
  5
319
100
AcDbEntity
  8
0
 62
7
100
AcDbSpline
 70
8
 71
3
 72
8
 73
4
 74
0
 40
0
 40
0
 40
0
 40
0
 40
1
 40
1
 40
1
 40
1
 10
456.522312
 20
24.098208
 30
0.0
 10
456.522312
 20
24.526927
 30
0.0
 10
456.751031
 20
24.923079
 30
0.0
 10
457.122312
 20
25.137438
 30
0.0
  0
SPLINE
  5
31a
100
AcDbEntity
  8
0
 62
7
100
AcDbSpline
 70
8
 71
3
 72
8
 73
4
 74
0
 40
0
 40
0
 40
0
 40
0
 40
1
 40
1
 40
1
 40
1
 10
457.122312
 20
25.137438
 30
0.0
 10
457.493593
 20
25.351798
 30
0.0
 10
457.951031
 20
25.351798
 30
0.0
 10
458.322312
 20
25.137438
 30
0.0
  0
SPLINE
  5
31b
100
AcDbEntity
  8
0
 62
7
100
AcDbSpline
 70
8
 71
3
 72
8
 73
4
 74
0
 40
0
 40
0
 40
0
 40
0
 40
1
 40
1
 40
1
 40
1
 10
458.322312
 20
25.137438
 30
0.0
 10
458.693593
 20
24.923079
 30
0.0
 10
458.922312
 20
24.526927
 30
0.0
 10
458.922312
 20
24.098208
 30
0.0
  0
LWPOLYLINE
  5
31c
100
AcDbEntity
  8
0
 62
7
100
AcDbPolyline
 90
2
 70
1
 10
458.778904
 20
40.020224
 30
0.0
 10
458.778904
 20
40.020224
 30
0.0
  0
SPLINE
  5
31d
100
AcDbEntity
  8
0
 62
7
100
AcDbSpline
 70
8
 71
3
 72
8
 73
4
 74
0
 40
0
 40
0
 40
0
 40
0
 40
1
 40
1
 40
1
 40
1
 10
371.136032
 20
56.085696
 30
0.0
 10
371.136032
 20
55.656977
 30
0.0
 10
370.907313
 20
55.260825
 30
0.0
 10
370.536032
 20
55.046466
 30
0.0
  0
SPLINE
  5
31e
100
AcDbEntity
  8
0
 62
7
100
AcDbSpline
 70
8
 71
3
 72
8
 73
4
 74
0
 40
0
 40
0
 40
0
 40
0
 40
1
 40
1
 40
1
 40
1
 10
370.536032
 20
55.046466
 30
0.0
 10
370.164751
 20
54.832106
 30
0.0
 10
369.707313
 20
54.832106
 30
0.0
 10
369.336032
 20
55.046466
 30
0.0
  0
SPLINE
  5
31f
100
AcDbEntity
  8
0
 62
7
100
AcDbSpline
 70
8
 71
3
 72
8
 73
4
 74
0
 40
0
 40
0
 40
0
 40
0
 40
1
 40
1
 40
1
 40
1
 10
369.336032
 20
55.046466
 30
0.0
 10
368.964751
 20
55.260825
 30
0.0
 10
368.736032
 20
55.656977
 30
0.0
 10
368.736032
 20
56.085696
 30
0.0
  0
SPLINE
  5
320
100
AcDbEntity
  8
0
 62
7
100
AcDbSpline
 70
8
 71
3
 72
8
 73
4
 74
0
 40
0
 40
0
 40
0
 40
0
 40
1
 40
1
 40
1
 40
1
 10
368.736032
 20
56.085696
 30
0.0
 10
368.736032
 20
56.514415
 30
0.0
 10
368.964751
 20
56.910567
 30
0.0
 10
369.336032
 20
57.124926
 30
0.0
  0
SPLINE
  5
321
100
AcDbEntity
  8
0
 62
7
100
AcDbSpline
 70
8
 71
3
 72
8
 73
4
 74
0
 40
0
 40
0
 40
0
 40
0
 40
1
 40
1
 40
1
 40
1
 10
369.336032
 20
57.124926
 30
0.0
 10
369.707313
 20
57.339286
 30
0.0
 10
370.164751
 20
57.339286
 30
0.0
 10
370.536032
 20
57.124926
 30
0.0
  0
SPLINE
  5
322
100
AcDbEntity
  8
0
 62
7
100
AcDbSpline
 70
8
 71
3
 72
8
 73
4
 74
0
 40
0
 40
0
 40
0
 40
0
 40
1
 40
1
 40
1
 40
1
 10
370.536032
 20
57.124926
 30
0.0
 10
370.907313
 20
56.910567
 30
0.0
 10
371.136032
 20
56.514415
 30
0.0
 10
371.136032
 20
56.085696
 30
0.0
  0
LWPOLYLINE
  5
323
100
AcDbEntity
  8
0
 62
7
100
AcDbPolyline
 90
2
 70
1
 10
458.922312
 20
24.098208
 30
0.0
 10
458.922312
 20
24.098208
 30
0.0
  0
SPLINE
  5
324
100
AcDbEntity
  8
0
 62
7
100
AcDbSpline
 70
8
 71
3
 72
8
 73
4
 74
0
 40
0
 40
0
 40
0
 40
0
 40
1
 40
1
 40
1
 40
1
 10
370.992600
 20
72.007712
 30
0.0
 10
370.992600
 20
71.578993
 30
0.0
 10
370.763881
 20
71.182841
 30
0.0
 10
370.392600
 20
70.968482
 30
0.0
  0
SPLINE
  5
325
100
AcDbEntity
  8
0
 62
7
100
AcDbSpline
 70
8
 71
3
 72
8
 73
4
 74
0
 40
0
 40
0
 40
0
 40
0
 40
1
 40
1
 40
1
 40
1
 10
370.392600
 20
70.968482
 30
0.0
 10
370.021319
 20
70.754122
 30
0.0
 10
369.563881
 20
70.754122
 30
0.0
 10
369.192600
 20
70.968482
 30
0.0
  0
SPLINE
  5
326
100
AcDbEntity
  8
0
 62
7
100
AcDbSpline
 70
8
 71
3
 72
8
 73
4
 74
0
 40
0
 40
0
 40
0
 40
0
 40
1
 40
1
 40
1
 40
1
 10
369.192600
 20
70.968482
 30
0.0
 10
368.821319
 20
71.182841
 30
0.0
 10
368.592600
 20
71.578993
 30
0.0
 10
368.592600
 20
72.007712
 30
0.0
  0
SPLINE
  5
327
100
AcDbEntity
  8
0
 62
7
100
AcDbSpline
 70
8
 71
3
 72
8
 73
4
 74
0
 40
0
 40
0
 40
0
 40
0
 40
1
 40
1
 40
1
 40
1
 10
368.592600
 20
72.007712
 30
0.0
 10
368.592600
 20
72.436431
 30
0.0
 10
368.821319
 20
72.832583
 30
0.0
 10
369.192600
 20
73.046942
 30
0.0
  0
SPLINE
  5
328
100
AcDbEntity
  8
0
 62
7
100
AcDbSpline
 70
8
 71
3
 72
8
 73
4
 74
0
 40
0
 40
0
 40
0
 40
0
 40
1
 40
1
 40
1
 40
1
 10
369.192600
 20
73.046942
 30
0.0
 10
369.563881
 20
73.261302
 30
0.0
 10
370.021319
 20
73.261302
 30
0.0
 10
370.392600
 20
73.046942
 30
0.0
  0
SPLINE
  5
329
100
AcDbEntity
  8
0
 62
7
100
AcDbSpline
 70
8
 71
3
 72
8
 73
4
 74
0
 40
0
 40
0
 40
0
 40
0
 40
1
 40
1
 40
1
 40
1
 10
370.392600
 20
73.046942
 30
0.0
 10
370.763881
 20
72.832583
 30
0.0
 10
370.992600
 20
72.436431
 30
0.0
 10
370.992600
 20
72.007712
 30
0.0
  0
LWPOLYLINE
  5
32a
100
AcDbEntity
  8
0
 62
7
100
AcDbPolyline
 90
2
 70
1
 10
371.136032
 20
56.085696
 30
0.0
 10
371.136032
 20
56.085696
 30
0.0
  0
SPLINE
  5
32b
100
AcDbEntity
  8
0
 62
7
100
AcDbSpline
 70
8
 71
3
 72
8
 73
4
 74
0
 40
0
 40
0
 40
0
 40
0
 40
1
 40
1
 40
1
 40
1
 10
459.065768
 20
152.191598
 30
0.0
 10
459.065768
 20
151.762880
 30
0.0
 10
458.837049
 20
151.366727
 30
0.0
 10
458.465768
 20
151.152368
 30
0.0
  0
SPLINE
  5
32c
100
AcDbEntity
  8
0
 62
7
100
AcDbSpline
 70
8
 71
3
 72
8
 73
4
 74
0
 40
0
 40
0
 40
0
 40
0
 40
1
 40
1
 40
1
 40
1
 10
458.465768
 20
151.152368
 30
0.0
 10
458.094487
 20
150.938009
 30
0.0
 10
457.637049
 20
150.938009
 30
0.0
 10
457.265768
 20
151.152368
 30
0.0
  0
SPLINE
  5
32d
100
AcDbEntity
  8
0
 62
7
100
AcDbSpline
 70
8
 71
3
 72
8
 73
4
 74
0
 40
0
 40
0
 40
0
 40
0
 40
1
 40
1
 40
1
 40
1
 10
457.265768
 20
151.152368
 30
0.0
 10
456.894487
 20
151.366727
 30
0.0
 10
456.665768
 20
151.762880
 30
0.0
 10
456.665768
 20
152.191598
 30
0.0
  0
SPLINE
  5
32e
100
AcDbEntity
  8
0
 62
7
100
AcDbSpline
 70
8
 71
3
 72
8
 73
4
 74
0
 40
0
 40
0
 40
0
 40
0
 40
1
 40
1
 40
1
 40
1
 10
456.665768
 20
152.191598
 30
0.0
 10
456.665768
 20
152.620317
 30
0.0
 10
456.894487
 20
153.016470
 30
0.0
 10
457.265768
 20
153.230829
 30
0.0
  0
SPLINE
  5
32f
100
AcDbEntity
  8
0
 62
7
100
AcDbSpline
 70
8
 71
3
 72
8
 73
4
 74
0
 40
0
 40
0
 40
0
 40
0
 40
1
 40
1
 40
1
 40
1
 10
457.265768
 20
153.230829
 30
0.0
 10
457.637049
 20
153.445188
 30
0.0
 10
458.094487
 20
153.445188
 30
0.0
 10
458.465768
 20
153.230829
 30
0.0
  0
SPLINE
  5
330
100
AcDbEntity
  8
0
 62
7
100
AcDbSpline
 70
8
 71
3
 72
8
 73
4
 74
0
 40
0
 40
0
 40
0
 40
0
 40
1
 40
1
 40
1
 40
1
 10
458.465768
 20
153.230829
 30
0.0
 10
458.837049
 20
153.016470
 30
0.0
 10
459.065768
 20
152.620317
 30
0.0
 10
459.065768
 20
152.191598
 30
0.0
  0
LWPOLYLINE
  5
331
100
AcDbEntity
  8
0
 62
7
100
AcDbPolyline
 90
2
 70
1
 10
370.992600
 20
72.007712
 30
0.0
 10
370.992600
 20
72.007712
 30
0.0
  0
SPLINE
  5
332
100
AcDbEntity
  8
0
 62
7
100
AcDbSpline
 70
8
 71
3
 72
8
 73
4
 74
0
 40
0
 40
0
 40
0
 40
0
 40
1
 40
1
 40
1
 40
1
 10
459.065768
 20
135.839249
 30
0.0
 10
459.065768
 20
135.410530
 30
0.0
 10
458.837049
 20
135.014378
 30
0.0
 10
458.465768
 20
134.800018
 30
0.0
  0
SPLINE
  5
333
100
AcDbEntity
  8
0
 62
7
100
AcDbSpline
 70
8
 71
3
 72
8
 73
4
 74
0
 40
0
 40
0
 40
0
 40
0
 40
1
 40
1
 40
1
 40
1
 10
458.465768
 20
134.800018
 30
0.0
 10
458.094487
 20
134.585659
 30
0.0
 10
457.637049
 20
134.585659
 30
0.0
 10
457.265768
 20
134.800018
 30
0.0
  0
SPLINE
  5
334
100
AcDbEntity
  8
0
 62
7
100
AcDbSpline
 70
8
 71
3
 72
8
 73
4
 74
0
 40
0
 40
0
 40
0
 40
0
 40
1
 40
1
 40
1
 40
1
 10
457.265768
 20
134.800018
 30
0.0
 10
456.894487
 20
135.014378
 30
0.0
 10
456.665768
 20
135.410530
 30
0.0
 10
456.665768
 20
135.839249
 30
0.0
  0
SPLINE
  5
335
100
AcDbEntity
  8
0
 62
7
100
AcDbSpline
 70
8
 71
3
 72
8
 73
4
 74
0
 40
0
 40
0
 40
0
 40
0
 40
1
 40
1
 40
1
 40
1
 10
456.665768
 20
135.839249
 30
0.0
 10
456.665768
 20
136.267968
 30
0.0
 10
456.894487
 20
136.664120
 30
0.0
 10
457.265768
 20
136.878479
 30
0.0
  0
SPLINE
  5
336
100
AcDbEntity
  8
0
 62
7
100
AcDbSpline
 70
8
 71
3
 72
8
 73
4
 74
0
 40
0
 40
0
 40
0
 40
0
 40
1
 40
1
 40
1
 40
1
 10
457.265768
 20
136.878479
 30
0.0
 10
457.637049
 20
137.092839
 30
0.0
 10
458.094487
 20
137.092839
 30
0.0
 10
458.465768
 20
136.878479
 30
0.0
  0
SPLINE
  5
337
100
AcDbEntity
  8
0
 62
7
100
AcDbSpline
 70
8
 71
3
 72
8
 73
4
 74
0
 40
0
 40
0
 40
0
 40
0
 40
1
 40
1
 40
1
 40
1
 10
458.465768
 20
136.878479
 30
0.0
 10
458.837049
 20
136.664120
 30
0.0
 10
459.065768
 20
136.267968
 30
0.0
 10
459.065768
 20
135.839249
 30
0.0
  0
LWPOLYLINE
  5
338
100
AcDbEntity
  8
0
 62
7
100
AcDbPolyline
 90
2
 70
1
 10
459.065768
 20
152.191598
 30
0.0
 10
459.065768
 20
152.191598
 30
0.0
  0
SPLINE
  5
339
100
AcDbEntity
  8
0
 62
7
100
AcDbSpline
 70
8
 71
3
 72
8
 73
4
 74
0
 40
0
 40
0
 40
0
 40
0
 40
1
 40
1
 40
1
 40
1
 10
397.959616
 20
136.126132
 30
0.0
 10
397.959616
 20
135.697413
 30
0.0
 10
397.730897
 20
135.301261
 30
0.0
 10
397.359616
 20
135.086902
 30
0.0
  0
SPLINE
  5
33a
100
AcDbEntity
  8
0
 62
7
100
AcDbSpline
 70
8
 71
3
 72
8
 73
4
 74
0
 40
0
 40
0
 40
0
 40
0
 40
1
 40
1
 40
1
 40
1
 10
397.359616
 20
135.086902
 30
0.0
 10
396.988335
 20
134.872542
 30
0.0
 10
396.530897
 20
134.872542
 30
0.0
 10
396.159616
 20
135.086902
 30
0.0
  0
SPLINE
  5
33b
100
AcDbEntity
  8
0
 62
7
100
AcDbSpline
 70
8
 71
3
 72
8
 73
4
 74
0
 40
0
 40
0
 40
0
 40
0
 40
1
 40
1
 40
1
 40
1
 10
396.159616
 20
135.086902
 30
0.0
 10
395.788335
 20
135.301261
 30
0.0
 10
395.559616
 20
135.697413
 30
0.0
 10
395.559616
 20
136.126132
 30
0.0
  0
SPLINE
  5
33c
100
AcDbEntity
  8
0
 62
7
100
AcDbSpline
 70
8
 71
3
 72
8
 73
4
 74
0
 40
0
 40
0
 40
0
 40
0
 40
1
 40
1
 40
1
 40
1
 10
395.559616
 20
136.126132
 30
0.0
 10
395.559616
 20
136.554851
 30
0.0
 10
395.788335
 20
136.951003
 30
0.0
 10
396.159616
 20
137.165362
 30
0.0
  0
SPLINE
  5
33d
100
AcDbEntity
  8
0
 62
7
100
AcDbSpline
 70
8
 71
3
 72
8
 73
4
 74
0
 40
0
 40
0
 40
0
 40
0
 40
1
 40
1
 40
1
 40
1
 10
396.159616
 20
137.165362
 30
0.0
 10
396.530897
 20
137.379722
 30
0.0
 10
396.988335
 20
137.379722
 30
0.0
 10
397.359616
 20
137.165362
 30
0.0
  0
SPLINE
  5
33e
100
AcDbEntity
  8
0
 62
7
100
AcDbSpline
 70
8
 71
3
 72
8
 73
4
 74
0
 40
0
 40
0
 40
0
 40
0
 40
1
 40
1
 40
1
 40
1
 10
397.359616
 20
137.165362
 30
0.0
 10
397.730897
 20
136.951003
 30
0.0
 10
397.959616
 20
136.554851
 30
0.0
 10
397.959616
 20
136.126132
 30
0.0
  0
LWPOLYLINE
  5
33f
100
AcDbEntity
  8
0
 62
7
100
AcDbPolyline
 90
2
 70
1
 10
459.065768
 20
135.839249
 30
0.0
 10
459.065768
 20
135.839249
 30
0.0
  0
SPLINE
  5
340
100
AcDbEntity
  8
0
 62
7
100
AcDbSpline
 70
8
 71
3
 72
8
 73
4
 74
0
 40
0
 40
0
 40
0
 40
0
 40
1
 40
1
 40
1
 40
1
 10
398.246512
 20
151.904715
 30
0.0
 10
398.246512
 20
151.475996
 30
0.0
 10
398.017793
 20
151.079844
 30
0.0
 10
397.646512
 20
150.865485
 30
0.0
  0
SPLINE
  5
341
100
AcDbEntity
  8
0
 62
7
100
AcDbSpline
 70
8
 71
3
 72
8
 73
4
 74
0
 40
0
 40
0
 40
0
 40
0
 40
1
 40
1
 40
1
 40
1
 10
397.646512
 20
150.865485
 30
0.0
 10
397.275231
 20
150.651125
 30
0.0
 10
396.817793
 20
150.651125
 30
0.0
 10
396.446512
 20
150.865485
 30
0.0
  0
SPLINE
  5
342
100
AcDbEntity
  8
0
 62
7
100
AcDbSpline
 70
8
 71
3
 72
8
 73
4
 74
0
 40
0
 40
0
 40
0
 40
0
 40
1
 40
1
 40
1
 40
1
 10
396.446512
 20
150.865485
 30
0.0
 10
396.075231
 20
151.079844
 30
0.0
 10
395.846512
 20
151.475996
 30
0.0
 10
395.846512
 20
151.904715
 30
0.0
  0
SPLINE
  5
343
100
AcDbEntity
  8
0
 62
7
100
AcDbSpline
 70
8
 71
3
 72
8
 73
4
 74
0
 40
0
 40
0
 40
0
 40
0
 40
1
 40
1
 40
1
 40
1
 10
395.846512
 20
151.904715
 30
0.0
 10
395.846512
 20
152.333434
 30
0.0
 10
396.075231
 20
152.729586
 30
0.0
 10
396.446512
 20
152.943946
 30
0.0
  0
SPLINE
  5
344
100
AcDbEntity
  8
0
 62
7
100
AcDbSpline
 70
8
 71
3
 72
8
 73
4
 74
0
 40
0
 40
0
 40
0
 40
0
 40
1
 40
1
 40
1
 40
1
 10
396.446512
 20
152.943946
 30
0.0
 10
396.817793
 20
153.158305
 30
0.0
 10
397.275231
 20
153.158305
 30
0.0
 10
397.646512
 20
152.943946
 30
0.0
  0
SPLINE
  5
345
100
AcDbEntity
  8
0
 62
7
100
AcDbSpline
 70
8
 71
3
 72
8
 73
4
 74
0
 40
0
 40
0
 40
0
 40
0
 40
1
 40
1
 40
1
 40
1
 10
397.646512
 20
152.943946
 30
0.0
 10
398.017793
 20
152.729586
 30
0.0
 10
398.246512
 20
152.333434
 30
0.0
 10
398.246512
 20
151.904715
 30
0.0
  0
LWPOLYLINE
  5
346
100
AcDbEntity
  8
0
 62
7
100
AcDbPolyline
 90
2
 70
1
 10
397.959616
 20
136.126132
 30
0.0
 10
397.959616
 20
136.126132
 30
0.0
  0
SPLINE
  5
347
100
AcDbEntity
  8
0
 62
7
100
AcDbSpline
 70
8
 71
3
 72
8
 73
4
 74
0
 40
0
 40
0
 40
0
 40
0
 40
1
 40
1
 40
1
 40
1
 10
370.992600
 20
120.060669
 30
0.0
 10
370.992600
 20
119.631950
 30
0.0
 10
370.763881
 20
119.235798
 30
0.0
 10
370.392600
 20
119.021438
 30
0.0
  0
SPLINE
  5
348
100
AcDbEntity
  8
0
 62
7
100
AcDbSpline
 70
8
 71
3
 72
8
 73
4
 74
0
 40
0
 40
0
 40
0
 40
0
 40
1
 40
1
 40
1
 40
1
 10
370.392600
 20
119.021438
 30
0.0
 10
370.021319
 20
118.807079
 30
0.0
 10
369.563881
 20
118.807079
 30
0.0
 10
369.192600
 20
119.021438
 30
0.0
  0
SPLINE
  5
349
100
AcDbEntity
  8
0
 62
7
100
AcDbSpline
 70
8
 71
3
 72
8
 73
4
 74
0
 40
0
 40
0
 40
0
 40
0
 40
1
 40
1
 40
1
 40
1
 10
369.192600
 20
119.021438
 30
0.0
 10
368.821319
 20
119.235798
 30
0.0
 10
368.592600
 20
119.631950
 30
0.0
 10
368.592600
 20
120.060669
 30
0.0
  0
SPLINE
  5
34a
100
AcDbEntity
  8
0
 62
7
100
AcDbSpline
 70
8
 71
3
 72
8
 73
4
 74
0
 40
0
 40
0
 40
0
 40
0
 40
1
 40
1
 40
1
 40
1
 10
368.592600
 20
120.060669
 30
0.0
 10
368.592600
 20
120.489388
 30
0.0
 10
368.821319
 20
120.885540
 30
0.0
 10
369.192600
 20
121.099899
 30
0.0
  0
SPLINE
  5
34b
100
AcDbEntity
  8
0
 62
7
100
AcDbSpline
 70
8
 71
3
 72
8
 73
4
 74
0
 40
0
 40
0
 40
0
 40
0
 40
1
 40
1
 40
1
 40
1
 10
369.192600
 20
121.099899
 30
0.0
 10
369.563881
 20
121.314259
 30
0.0
 10
370.021319
 20
121.314259
 30
0.0
 10
370.392600
 20
121.099899
 30
0.0
  0
SPLINE
  5
34c
100
AcDbEntity
  8
0
 62
7
100
AcDbSpline
 70
8
 71
3
 72
8
 73
4
 74
0
 40
0
 40
0
 40
0
 40
0
 40
1
 40
1
 40
1
 40
1
 10
370.392600
 20
121.099899
 30
0.0
 10
370.763881
 20
120.885540
 30
0.0
 10
370.992600
 20
120.489388
 30
0.0
 10
370.992600
 20
120.060669
 30
0.0
  0
LWPOLYLINE
  5
34d
100
AcDbEntity
  8
0
 62
7
100
AcDbPolyline
 90
2
 70
1
 10
398.246512
 20
151.904715
 30
0.0
 10
398.246512
 20
151.904715
 30
0.0
  0
SPLINE
  5
34e
100
AcDbEntity
  8
0
 62
7
100
AcDbSpline
 70
8
 71
3
 72
8
 73
4
 74
0
 40
0
 40
0
 40
0
 40
0
 40
1
 40
1
 40
1
 40
1
 10
370.992600
 20
103.851758
 30
0.0
 10
370.992600
 20
103.423039
 30
0.0
 10
370.763881
 20
103.026886
 30
0.0
 10
370.392600
 20
102.812527
 30
0.0
  0
SPLINE
  5
34f
100
AcDbEntity
  8
0
 62
7
100
AcDbSpline
 70
8
 71
3
 72
8
 73
4
 74
0
 40
0
 40
0
 40
0
 40
0
 40
1
 40
1
 40
1
 40
1
 10
370.392600
 20
102.812527
 30
0.0
 10
370.021319
 20
102.598168
 30
0.0
 10
369.563881
 20
102.598168
 30
0.0
 10
369.192600
 20
102.812527
 30
0.0
  0
SPLINE
  5
350
100
AcDbEntity
  8
0
 62
7
100
AcDbSpline
 70
8
 71
3
 72
8
 73
4
 74
0
 40
0
 40
0
 40
0
 40
0
 40
1
 40
1
 40
1
 40
1
 10
369.192600
 20
102.812527
 30
0.0
 10
368.821319
 20
103.026886
 30
0.0
 10
368.592600
 20
103.423039
 30
0.0
 10
368.592600
 20
103.851758
 30
0.0
  0
SPLINE
  5
351
100
AcDbEntity
  8
0
 62
7
100
AcDbSpline
 70
8
 71
3
 72
8
 73
4
 74
0
 40
0
 40
0
 40
0
 40
0
 40
1
 40
1
 40
1
 40
1
 10
368.592600
 20
103.851758
 30
0.0
 10
368.592600
 20
104.280476
 30
0.0
 10
368.821319
 20
104.676629
 30
0.0
 10
369.192600
 20
104.890988
 30
0.0
  0
SPLINE
  5
352
100
AcDbEntity
  8
0
 62
7
100
AcDbSpline
 70
8
 71
3
 72
8
 73
4
 74
0
 40
0
 40
0
 40
0
 40
0
 40
1
 40
1
 40
1
 40
1
 10
369.192600
 20
104.890988
 30
0.0
 10
369.563881
 20
105.105347
 30
0.0
 10
370.021319
 20
105.105347
 30
0.0
 10
370.392600
 20
104.890988
 30
0.0
  0
SPLINE
  5
353
100
AcDbEntity
  8
0
 62
7
100
AcDbSpline
 70
8
 71
3
 72
8
 73
4
 74
0
 40
0
 40
0
 40
0
 40
0
 40
1
 40
1
 40
1
 40
1
 10
370.392600
 20
104.890988
 30
0.0
 10
370.763881
 20
104.676629
 30
0.0
 10
370.992600
 20
104.280476
 30
0.0
 10
370.992600
 20
103.851758
 30
0.0
  0
LWPOLYLINE
  5
354
100
AcDbEntity
  8
0
 62
7
100
AcDbPolyline
 90
2
 70
1
 10
370.992600
 20
120.060669
 30
0.0
 10
370.992600
 20
120.060669
 30
0.0
  0
SPLINE
  5
355
100
AcDbEntity
  8
0
 62
7
100
AcDbSpline
 70
8
 71
3
 72
8
 73
4
 74
0
 40
0
 40
0
 40
0
 40
0
 40
1
 40
1
 40
1
 40
1
 10
498.799120
 20
88.073176
 30
0.0
 10
498.799120
 20
87.644457
 30
0.0
 10
498.570401
 20
87.248305
 30
0.0
 10
498.199120
 20
87.033946
 30
0.0
  0
SPLINE
  5
356
100
AcDbEntity
  8
0
 62
7
100
AcDbSpline
 70
8
 71
3
 72
8
 73
4
 74
0
 40
0
 40
0
 40
0
 40
0
 40
1
 40
1
 40
1
 40
1
 10
498.199120
 20
87.033946
 30
0.0
 10
497.827839
 20
86.819586
 30
0.0
 10
497.370401
 20
86.819586
 30
0.0
 10
496.999120
 20
87.033946
 30
0.0
  0
SPLINE
  5
357
100
AcDbEntity
  8
0
 62
7
100
AcDbSpline
 70
8
 71
3
 72
8
 73
4
 74
0
 40
0
 40
0
 40
0
 40
0
 40
1
 40
1
 40
1
 40
1
 10
496.999120
 20
87.033946
 30
0.0
 10
496.627839
 20
87.248305
 30
0.0
 10
496.399120
 20
87.644457
 30
0.0
 10
496.399120
 20
88.073176
 30
0.0
  0
SPLINE
  5
358
100
AcDbEntity
  8
0
 62
7
100
AcDbSpline
 70
8
 71
3
 72
8
 73
4
 74
0
 40
0
 40
0
 40
0
 40
0
 40
1
 40
1
 40
1
 40
1
 10
496.399120
 20
88.073176
 30
0.0
 10
496.399120
 20
88.501895
 30
0.0
 10
496.627839
 20
88.898047
 30
0.0
 10
496.999120
 20
89.112406
 30
0.0
  0
SPLINE
  5
359
100
AcDbEntity
  8
0
 62
7
100
AcDbSpline
 70
8
 71
3
 72
8
 73
4
 74
0
 40
0
 40
0
 40
0
 40
0
 40
1
 40
1
 40
1
 40
1
 10
496.999120
 20
89.112406
 30
0.0
 10
497.370401
 20
89.326766
 30
0.0
 10
497.827839
 20
89.326766
 30
0.0
 10
498.199120
 20
89.112406
 30
0.0
  0
SPLINE
  5
35a
100
AcDbEntity
  8
0
 62
7
100
AcDbSpline
 70
8
 71
3
 72
8
 73
4
 74
0
 40
0
 40
0
 40
0
 40
0
 40
1
 40
1
 40
1
 40
1
 10
498.199120
 20
89.112406
 30
0.0
 10
498.570401
 20
88.898047
 30
0.0
 10
498.799120
 20
88.501895
 30
0.0
 10
498.799120
 20
88.073176
 30
0.0
  0
LWPOLYLINE
  5
35b
100
AcDbEntity
  8
0
 62
7
100
AcDbPolyline
 90
2
 70
1
 10
370.992600
 20
103.851758
 30
0.0
 10
370.992600
 20
103.851758
 30
0.0
  0
SPLINE
  5
35c
100
AcDbEntity
  8
0
 62
7
100
AcDbSpline
 70
8
 71
3
 72
8
 73
4
 74
0
 40
0
 40
0
 40
0
 40
0
 40
1
 40
1
 40
1
 40
1
 10
499.085984
 20
103.995202
 30
0.0
 10
499.085984
 20
103.566484
 30
0.0
 10
498.857265
 20
103.170331
 30
0.0
 10
498.485984
 20
102.955972
 30
0.0
  0
SPLINE
  5
35d
100
AcDbEntity
  8
0
 62
7
100
AcDbSpline
 70
8
 71
3
 72
8
 73
4
 74
0
 40
0
 40
0
 40
0
 40
0
 40
1
 40
1
 40
1
 40
1
 10
498.485984
 20
102.955972
 30
0.0
 10
498.114703
 20
102.741613
 30
0.0
 10
497.657265
 20
102.741613
 30
0.0
 10
497.285984
 20
102.955972
 30
0.0
  0
SPLINE
  5
35e
100
AcDbEntity
  8
0
 62
7
100
AcDbSpline
 70
8
 71
3
 72
8
 73
4
 74
0
 40
0
 40
0
 40
0
 40
0
 40
1
 40
1
 40
1
 40
1
 10
497.285984
 20
102.955972
 30
0.0
 10
496.914703
 20
103.170331
 30
0.0
 10
496.685984
 20
103.566484
 30
0.0
 10
496.685984
 20
103.995202
 30
0.0
  0
SPLINE
  5
35f
100
AcDbEntity
  8
0
 62
7
100
AcDbSpline
 70
8
 71
3
 72
8
 73
4
 74
0
 40
0
 40
0
 40
0
 40
0
 40
1
 40
1
 40
1
 40
1
 10
496.685984
 20
103.995202
 30
0.0
 10
496.685984
 20
104.423921
 30
0.0
 10
496.914703
 20
104.820074
 30
0.0
 10
497.285984
 20
105.034433
 30
0.0
  0
SPLINE
  5
360
100
AcDbEntity
  8
0
 62
7
100
AcDbSpline
 70
8
 71
3
 72
8
 73
4
 74
0
 40
0
 40
0
 40
0
 40
0
 40
1
 40
1
 40
1
 40
1
 10
497.285984
 20
105.034433
 30
0.0
 10
497.657265
 20
105.248792
 30
0.0
 10
498.114703
 20
105.248792
 30
0.0
 10
498.485984
 20
105.034433
 30
0.0
  0
SPLINE
  5
361
100
AcDbEntity
  8
0
 62
7
100
AcDbSpline
 70
8
 71
3
 72
8
 73
4
 74
0
 40
0
 40
0
 40
0
 40
0
 40
1
 40
1
 40
1
 40
1
 10
498.485984
 20
105.034433
 30
0.0
 10
498.857265
 20
104.820074
 30
0.0
 10
499.085984
 20
104.423921
 30
0.0
 10
499.085984
 20
103.995202
 30
0.0
  0
LWPOLYLINE
  5
362
100
AcDbEntity
  8
0
 62
7
100
AcDbPolyline
 90
2
 70
1
 10
498.799120
 20
88.073176
 30
0.0
 10
498.799120
 20
88.073176
 30
0.0
  0
SPLINE
  5
363
100
AcDbEntity
  8
0
 62
7
100
AcDbSpline
 70
8
 71
3
 72
8
 73
4
 74
0
 40
0
 40
0
 40
0
 40
0
 40
1
 40
1
 40
1
 40
1
 10
515.008008
 20
120.060669
 30
0.0
 10
515.008008
 20
119.631950
 30
0.0
 10
514.779289
 20
119.235798
 30
0.0
 10
514.408008
 20
119.021438
 30
0.0
  0
SPLINE
  5
364
100
AcDbEntity
  8
0
 62
7
100
AcDbSpline
 70
8
 71
3
 72
8
 73
4
 74
0
 40
0
 40
0
 40
0
 40
0
 40
1
 40
1
 40
1
 40
1
 10
514.408008
 20
119.021438
 30
0.0
 10
514.036727
 20
118.807079
 30
0.0
 10
513.579289
 20
118.807079
 30
0.0
 10
513.208008
 20
119.021438
 30
0.0
  0
SPLINE
  5
365
100
AcDbEntity
  8
0
 62
7
100
AcDbSpline
 70
8
 71
3
 72
8
 73
4
 74
0
 40
0
 40
0
 40
0
 40
0
 40
1
 40
1
 40
1
 40
1
 10
513.208008
 20
119.021438
 30
0.0
 10
512.836727
 20
119.235798
 30
0.0
 10
512.608008
 20
119.631950
 30
0.0
 10
512.608008
 20
120.060669
 30
0.0
  0
SPLINE
  5
366
100
AcDbEntity
  8
0
 62
7
100
AcDbSpline
 70
8
 71
3
 72
8
 73
4
 74
0
 40
0
 40
0
 40
0
 40
0
 40
1
 40
1
 40
1
 40
1
 10
512.608008
 20
120.060669
 30
0.0
 10
512.608008
 20
120.489388
 30
0.0
 10
512.836727
 20
120.885540
 30
0.0
 10
513.208008
 20
121.099899
 30
0.0
  0
SPLINE
  5
367
100
AcDbEntity
  8
0
 62
7
100
AcDbSpline
 70
8
 71
3
 72
8
 73
4
 74
0
 40
0
 40
0
 40
0
 40
0
 40
1
 40
1
 40
1
 40
1
 10
513.208008
 20
121.099899
 30
0.0
 10
513.579289
 20
121.314259
 30
0.0
 10
514.036727
 20
121.314259
 30
0.0
 10
514.408008
 20
121.099899
 30
0.0
  0
SPLINE
  5
368
100
AcDbEntity
  8
0
 62
7
100
AcDbSpline
 70
8
 71
3
 72
8
 73
4
 74
0
 40
0
 40
0
 40
0
 40
0
 40
1
 40
1
 40
1
 40
1
 10
514.408008
 20
121.099899
 30
0.0
 10
514.779289
 20
120.885540
 30
0.0
 10
515.008008
 20
120.489388
 30
0.0
 10
515.008008
 20
120.060669
 30
0.0
  0
LWPOLYLINE
  5
369
100
AcDbEntity
  8
0
 62
7
100
AcDbPolyline
 90
2
 70
1
 10
499.085984
 20
103.995202
 30
0.0
 10
499.085984
 20
103.995202
 30
0.0
  0
SPLINE
  5
36a
100
AcDbEntity
  8
0
 62
7
100
AcDbSpline
 70
8
 71
3
 72
8
 73
4
 74
0
 40
0
 40
0
 40
0
 40
0
 40
1
 40
1
 40
1
 40
1
 10
530.930032
 20
119.917224
 30
0.0
 10
530.930032
 20
119.488505
 30
0.0
 10
530.701313
 20
119.092353
 30
0.0
 10
530.330032
 20
118.877994
 30
0.0
  0
SPLINE
  5
36b
100
AcDbEntity
  8
0
 62
7
100
AcDbSpline
 70
8
 71
3
 72
8
 73
4
 74
0
 40
0
 40
0
 40
0
 40
0
 40
1
 40
1
 40
1
 40
1
 10
530.330032
 20
118.877994
 30
0.0
 10
529.958751
 20
118.663634
 30
0.0
 10
529.501313
 20
118.663634
 30
0.0
 10
529.130032
 20
118.877994
 30
0.0
  0
SPLINE
  5
36c
100
AcDbEntity
  8
0
 62
7
100
AcDbSpline
 70
8
 71
3
 72
8
 73
4
 74
0
 40
0
 40
0
 40
0
 40
0
 40
1
 40
1
 40
1
 40
1
 10
529.130032
 20
118.877994
 30
0.0
 10
528.758751
 20
119.092353
 30
0.0
 10
528.530032
 20
119.488505
 30
0.0
 10
528.530032
 20
119.917224
 30
0.0
  0
SPLINE
  5
36d
100
AcDbEntity
  8
0
 62
7
100
AcDbSpline
 70
8
 71
3
 72
8
 73
4
 74
0
 40
0
 40
0
 40
0
 40
0
 40
1
 40
1
 40
1
 40
1
 10
528.530032
 20
119.917224
 30
0.0
 10
528.530032
 20
120.345943
 30
0.0
 10
528.758751
 20
120.742095
 30
0.0
 10
529.130032
 20
120.956454
 30
0.0
  0
SPLINE
  5
36e
100
AcDbEntity
  8
0
 62
7
100
AcDbSpline
 70
8
 71
3
 72
8
 73
4
 74
0
 40
0
 40
0
 40
0
 40
0
 40
1
 40
1
 40
1
 40
1
 10
529.130032
 20
120.956454
 30
0.0
 10
529.501313
 20
121.170814
 30
0.0
 10
529.958751
 20
121.170814
 30
0.0
 10
530.330032
 20
120.956454
 30
0.0
  0
SPLINE
  5
36f
100
AcDbEntity
  8
0
 62
7
100
AcDbSpline
 70
8
 71
3
 72
8
 73
4
 74
0
 40
0
 40
0
 40
0
 40
0
 40
1
 40
1
 40
1
 40
1
 10
530.330032
 20
120.956454
 30
0.0
 10
530.701313
 20
120.742095
 30
0.0
 10
530.930032
 20
120.345943
 30
0.0
 10
530.930032
 20
119.917224
 30
0.0
  0
LWPOLYLINE
  5
370
100
AcDbEntity
  8
0
 62
7
100
AcDbPolyline
 90
2
 70
1
 10
515.008008
 20
120.060669
 30
0.0
 10
515.008008
 20
120.060669
 30
0.0
  0
SPLINE
  5
371
100
AcDbEntity
  8
0
 62
7
100
AcDbSpline
 70
8
 71
3
 72
8
 73
4
 74
0
 40
0
 40
0
 40
0
 40
0
 40
1
 40
1
 40
1
 40
1
 10
530.930032
 20
151.761273
 30
0.0
 10
530.930032
 20
151.332554
 30
0.0
 10
530.701313
 20
150.936402
 30
0.0
 10
530.330032
 20
150.722042
 30
0.0
  0
SPLINE
  5
372
100
AcDbEntity
  8
0
 62
7
100
AcDbSpline
 70
8
 71
3
 72
8
 73
4
 74
0
 40
0
 40
0
 40
0
 40
0
 40
1
 40
1
 40
1
 40
1
 10
530.330032
 20
150.722042
 30
0.0
 10
529.958751
 20
150.507683
 30
0.0
 10
529.501313
 20
150.507683
 30
0.0
 10
529.130032
 20
150.722042
 30
0.0
  0
SPLINE
  5
373
100
AcDbEntity
  8
0
 62
7
100
AcDbSpline
 70
8
 71
3
 72
8
 73
4
 74
0
 40
0
 40
0
 40
0
 40
0
 40
1
 40
1
 40
1
 40
1
 10
529.130032
 20
150.722042
 30
0.0
 10
528.758751
 20
150.936402
 30
0.0
 10
528.530032
 20
151.332554
 30
0.0
 10
528.530032
 20
151.761273
 30
0.0
  0
SPLINE
  5
374
100
AcDbEntity
  8
0
 62
7
100
AcDbSpline
 70
8
 71
3
 72
8
 73
4
 74
0
 40
0
 40
0
 40
0
 40
0
 40
1
 40
1
 40
1
 40
1
 10
528.530032
 20
151.761273
 30
0.0
 10
528.530032
 20
152.189992
 30
0.0
 10
528.758751
 20
152.586144
 30
0.0
 10
529.130032
 20
152.800503
 30
0.0
  0
SPLINE
  5
375
100
AcDbEntity
  8
0
 62
7
100
AcDbSpline
 70
8
 71
3
 72
8
 73
4
 74
0
 40
0
 40
0
 40
0
 40
0
 40
1
 40
1
 40
1
 40
1
 10
529.130032
 20
152.800503
 30
0.0
 10
529.501313
 20
153.014863
 30
0.0
 10
529.958751
 20
153.014863
 30
0.0
 10
530.330032
 20
152.800503
 30
0.0
  0
SPLINE
  5
376
100
AcDbEntity
  8
0
 62
7
100
AcDbSpline
 70
8
 71
3
 72
8
 73
4
 74
0
 40
0
 40
0
 40
0
 40
0
 40
1
 40
1
 40
1
 40
1
 10
530.330032
 20
152.800503
 30
0.0
 10
530.701313
 20
152.586144
 30
0.0
 10
530.930032
 20
152.189992
 30
0.0
 10
530.930032
 20
151.761273
 30
0.0
  0
LWPOLYLINE
  5
377
100
AcDbEntity
  8
0
 62
7
100
AcDbPolyline
 90
2
 70
1
 10
530.930032
 20
119.917224
 30
0.0
 10
530.930032
 20
119.917224
 30
0.0
  0
SPLINE
  5
378
100
AcDbEntity
  8
0
 62
7
100
AcDbSpline
 70
8
 71
3
 72
8
 73
4
 74
0
 40
0
 40
0
 40
0
 40
0
 40
1
 40
1
 40
1
 40
1
 10
514.721144
 20
152.048157
 30
0.0
 10
514.721144
 20
151.619438
 30
0.0
 10
514.492425
 20
151.223286
 30
0.0
 10
514.121144
 20
151.008926
 30
0.0
  0
SPLINE
  5
379
100
AcDbEntity
  8
0
 62
7
100
AcDbSpline
 70
8
 71
3
 72
8
 73
4
 74
0
 40
0
 40
0
 40
0
 40
0
 40
1
 40
1
 40
1
 40
1
 10
514.121144
 20
151.008926
 30
0.0
 10
513.749863
 20
150.794567
 30
0.0
 10
513.292425
 20
150.794567
 30
0.0
 10
512.921144
 20
151.008926
 30
0.0
  0
SPLINE
  5
37a
100
AcDbEntity
  8
0
 62
7
100
AcDbSpline
 70
8
 71
3
 72
8
 73
4
 74
0
 40
0
 40
0
 40
0
 40
0
 40
1
 40
1
 40
1
 40
1
 10
512.921144
 20
151.008926
 30
0.0
 10
512.549863
 20
151.223286
 30
0.0
 10
512.321144
 20
151.619438
 30
0.0
 10
512.321144
 20
152.048157
 30
0.0
  0
SPLINE
  5
37b
100
AcDbEntity
  8
0
 62
7
100
AcDbSpline
 70
8
 71
3
 72
8
 73
4
 74
0
 40
0
 40
0
 40
0
 40
0
 40
1
 40
1
 40
1
 40
1
 10
512.321144
 20
152.048157
 30
0.0
 10
512.321144
 20
152.476876
 30
0.0
 10
512.549863
 20
152.873028
 30
0.0
 10
512.921144
 20
153.087387
 30
0.0
  0
SPLINE
  5
37c
100
AcDbEntity
  8
0
 62
7
100
AcDbSpline
 70
8
 71
3
 72
8
 73
4
 74
0
 40
0
 40
0
 40
0
 40
0
 40
1
 40
1
 40
1
 40
1
 10
512.921144
 20
153.087387
 30
0.0
 10
513.292425
 20
153.301747
 30
0.0
 10
513.749863
 20
153.301747
 30
0.0
 10
514.121144
 20
153.087387
 30
0.0
  0
SPLINE
  5
37d
100
AcDbEntity
  8
0
 62
7
100
AcDbSpline
 70
8
 71
3
 72
8
 73
4
 74
0
 40
0
 40
0
 40
0
 40
0
 40
1
 40
1
 40
1
 40
1
 10
514.121144
 20
153.087387
 30
0.0
 10
514.492425
 20
152.873028
 30
0.0
 10
514.721144
 20
152.476876
 30
0.0
 10
514.721144
 20
152.048157
 30
0.0
  0
LWPOLYLINE
  5
37e
100
AcDbEntity
  8
0
 62
7
100
AcDbPolyline
 90
2
 70
1
 10
530.930032
 20
151.761273
 30
0.0
 10
530.930032
 20
151.761273
 30
0.0
  0
SPLINE
  5
37f
100
AcDbEntity
  8
0
 62
7
100
AcDbSpline
 70
8
 71
3
 72
8
 73
4
 74
0
 40
0
 40
0
 40
0
 40
0
 40
1
 40
1
 40
1
 40
1
 10
530.930032
 20
40.020224
 30
0.0
 10
530.930032
 20
39.591505
 30
0.0
 10
530.701313
 20
39.195353
 30
0.0
 10
530.330032
 20
38.980994
 30
0.0
  0
SPLINE
  5
380
100
AcDbEntity
  8
0
 62
7
100
AcDbSpline
 70
8
 71
3
 72
8
 73
4
 74
0
 40
0
 40
0
 40
0
 40
0
 40
1
 40
1
 40
1
 40
1
 10
530.330032
 20
38.980994
 30
0.0
 10
529.958751
 20
38.766634
 30
0.0
 10
529.501313
 20
38.766634
 30
0.0
 10
529.130032
 20
38.980994
 30
0.0
  0
SPLINE
  5
381
100
AcDbEntity
  8
0
 62
7
100
AcDbSpline
 70
8
 71
3
 72
8
 73
4
 74
0
 40
0
 40
0
 40
0
 40
0
 40
1
 40
1
 40
1
 40
1
 10
529.130032
 20
38.980994
 30
0.0
 10
528.758751
 20
39.195353
 30
0.0
 10
528.530032
 20
39.591505
 30
0.0
 10
528.530032
 20
40.020224
 30
0.0
  0
SPLINE
  5
382
100
AcDbEntity
  8
0
 62
7
100
AcDbSpline
 70
8
 71
3
 72
8
 73
4
 74
0
 40
0
 40
0
 40
0
 40
0
 40
1
 40
1
 40
1
 40
1
 10
528.530032
 20
40.020224
 30
0.0
 10
528.530032
 20
40.448943
 30
0.0
 10
528.758751
 20
40.845095
 30
0.0
 10
529.130032
 20
41.059454
 30
0.0
  0
SPLINE
  5
383
100
AcDbEntity
  8
0
 62
7
100
AcDbSpline
 70
8
 71
3
 72
8
 73
4
 74
0
 40
0
 40
0
 40
0
 40
0
 40
1
 40
1
 40
1
 40
1
 10
529.130032
 20
41.059454
 30
0.0
 10
529.501313
 20
41.273814
 30
0.0
 10
529.958751
 20
41.273814
 30
0.0
 10
530.330032
 20
41.059454
 30
0.0
  0
SPLINE
  5
384
100
AcDbEntity
  8
0
 62
7
100
AcDbSpline
 70
8
 71
3
 72
8
 73
4
 74
0
 40
0
 40
0
 40
0
 40
0
 40
1
 40
1
 40
1
 40
1
 10
530.330032
 20
41.059454
 30
0.0
 10
530.701313
 20
40.845095
 30
0.0
 10
530.930032
 20
40.448943
 30
0.0
 10
530.930032
 20
40.020224
 30
0.0
  0
LWPOLYLINE
  5
385
100
AcDbEntity
  8
0
 62
7
100
AcDbPolyline
 90
2
 70
1
 10
514.721144
 20
152.048157
 30
0.0
 10
514.721144
 20
152.048157
 30
0.0
  0
SPLINE
  5
386
100
AcDbEntity
  8
0
 62
7
100
AcDbSpline
 70
8
 71
3
 72
8
 73
4
 74
0
 40
0
 40
0
 40
0
 40
0
 40
1
 40
1
 40
1
 40
1
 10
515.008008
 20
40.020224
 30
0.0
 10
515.008008
 20
39.591505
 30
0.0
 10
514.779289
 20
39.195353
 30
0.0
 10
514.408008
 20
38.980994
 30
0.0
  0
SPLINE
  5
387
100
AcDbEntity
  8
0
 62
7
100
AcDbSpline
 70
8
 71
3
 72
8
 73
4
 74
0
 40
0
 40
0
 40
0
 40
0
 40
1
 40
1
 40
1
 40
1
 10
514.408008
 20
38.980994
 30
0.0
 10
514.036727
 20
38.766634
 30
0.0
 10
513.579289
 20
38.766634
 30
0.0
 10
513.208008
 20
38.980994
 30
0.0
  0
SPLINE
  5
388
100
AcDbEntity
  8
0
 62
7
100
AcDbSpline
 70
8
 71
3
 72
8
 73
4
 74
0
 40
0
 40
0
 40
0
 40
0
 40
1
 40
1
 40
1
 40
1
 10
513.208008
 20
38.980994
 30
0.0
 10
512.836727
 20
39.195353
 30
0.0
 10
512.608008
 20
39.591505
 30
0.0
 10
512.608008
 20
40.020224
 30
0.0
  0
SPLINE
  5
389
100
AcDbEntity
  8
0
 62
7
100
AcDbSpline
 70
8
 71
3
 72
8
 73
4
 74
0
 40
0
 40
0
 40
0
 40
0
 40
1
 40
1
 40
1
 40
1
 10
512.608008
 20
40.020224
 30
0.0
 10
512.608008
 20
40.448943
 30
0.0
 10
512.836727
 20
40.845095
 30
0.0
 10
513.208008
 20
41.059454
 30
0.0
  0
SPLINE
  5
38a
100
AcDbEntity
  8
0
 62
7
100
AcDbSpline
 70
8
 71
3
 72
8
 73
4
 74
0
 40
0
 40
0
 40
0
 40
0
 40
1
 40
1
 40
1
 40
1
 10
513.208008
 20
41.059454
 30
0.0
 10
513.579289
 20
41.273814
 30
0.0
 10
514.036727
 20
41.273814
 30
0.0
 10
514.408008
 20
41.059454
 30
0.0
  0
SPLINE
  5
38b
100
AcDbEntity
  8
0
 62
7
100
AcDbSpline
 70
8
 71
3
 72
8
 73
4
 74
0
 40
0
 40
0
 40
0
 40
0
 40
1
 40
1
 40
1
 40
1
 10
514.408008
 20
41.059454
 30
0.0
 10
514.779289
 20
40.845095
 30
0.0
 10
515.008008
 20
40.448943
 30
0.0
 10
515.008008
 20
40.020224
 30
0.0
  0
LWPOLYLINE
  5
38c
100
AcDbEntity
  8
0
 62
7
100
AcDbPolyline
 90
2
 70
1
 10
530.930032
 20
40.020224
 30
0.0
 10
530.930032
 20
40.020224
 30
0.0
  0
SPLINE
  5
38d
100
AcDbEntity
  8
0
 62
7
100
AcDbSpline
 70
8
 71
3
 72
8
 73
4
 74
0
 40
0
 40
0
 40
0
 40
0
 40
1
 40
1
 40
1
 40
1
 10
498.942528
 20
55.942248
 30
0.0
 10
498.942528
 20
55.513529
 30
0.0
 10
498.713809
 20
55.117377
 30
0.0
 10
498.342528
 20
54.903018
 30
0.0
  0
SPLINE
  5
38e
100
AcDbEntity
  8
0
 62
7
100
AcDbSpline
 70
8
 71
3
 72
8
 73
4
 74
0
 40
0
 40
0
 40
0
 40
0
 40
1
 40
1
 40
1
 40
1
 10
498.342528
 20
54.903018
 30
0.0
 10
497.971247
 20
54.688658
 30
0.0
 10
497.513809
 20
54.688658
 30
0.0
 10
497.142528
 20
54.903018
 30
0.0
  0
SPLINE
  5
38f
100
AcDbEntity
  8
0
 62
7
100
AcDbSpline
 70
8
 71
3
 72
8
 73
4
 74
0
 40
0
 40
0
 40
0
 40
0
 40
1
 40
1
 40
1
 40
1
 10
497.142528
 20
54.903018
 30
0.0
 10
496.771247
 20
55.117377
 30
0.0
 10
496.542528
 20
55.513529
 30
0.0
 10
496.542528
 20
55.942248
 30
0.0
  0
SPLINE
  5
390
100
AcDbEntity
  8
0
 62
7
100
AcDbSpline
 70
8
 71
3
 72
8
 73
4
 74
0
 40
0
 40
0
 40
0
 40
0
 40
1
 40
1
 40
1
 40
1
 10
496.542528
 20
55.942248
 30
0.0
 10
496.542528
 20
56.370967
 30
0.0
 10
496.771247
 20
56.767119
 30
0.0
 10
497.142528
 20
56.981478
 30
0.0
  0
SPLINE
  5
391
100
AcDbEntity
  8
0
 62
7
100
AcDbSpline
 70
8
 71
3
 72
8
 73
4
 74
0
 40
0
 40
0
 40
0
 40
0
 40
1
 40
1
 40
1
 40
1
 10
497.142528
 20
56.981478
 30
0.0
 10
497.513809
 20
57.195838
 30
0.0
 10
497.971247
 20
57.195838
 30
0.0
 10
498.342528
 20
56.981478
 30
0.0
  0
SPLINE
  5
392
100
AcDbEntity
  8
0
 62
7
100
AcDbSpline
 70
8
 71
3
 72
8
 73
4
 74
0
 40
0
 40
0
 40
0
 40
0
 40
1
 40
1
 40
1
 40
1
 10
498.342528
 20
56.981478
 30
0.0
 10
498.713809
 20
56.767119
 30
0.0
 10
498.942528
 20
56.370967
 30
0.0
 10
498.942528
 20
55.942248
 30
0.0
  0
LWPOLYLINE
  5
393
100
AcDbEntity
  8
0
 62
7
100
AcDbPolyline
 90
2
 70
1
 10
515.008008
 20
40.020224
 30
0.0
 10
515.008008
 20
40.020224
 30
0.0
  0
SPLINE
  5
394
100
AcDbEntity
  8
0
 62
7
100
AcDbSpline
 70
8
 71
3
 72
8
 73
4
 74
0
 40
0
 40
0
 40
0
 40
0
 40
1
 40
1
 40
1
 40
1
 10
498.942528
 20
72.007712
 30
0.0
 10
498.942528
 20
71.578993
 30
0.0
 10
498.713809
 20
71.182841
 30
0.0
 10
498.342528
 20
70.968482
 30
0.0
  0
SPLINE
  5
395
100
AcDbEntity
  8
0
 62
7
100
AcDbSpline
 70
8
 71
3
 72
8
 73
4
 74
0
 40
0
 40
0
 40
0
 40
0
 40
1
 40
1
 40
1
 40
1
 10
498.342528
 20
70.968482
 30
0.0
 10
497.971247
 20
70.754122
 30
0.0
 10
497.513809
 20
70.754122
 30
0.0
 10
497.142528
 20
70.968482
 30
0.0
  0
SPLINE
  5
396
100
AcDbEntity
  8
0
 62
7
100
AcDbSpline
 70
8
 71
3
 72
8
 73
4
 74
0
 40
0
 40
0
 40
0
 40
0
 40
1
 40
1
 40
1
 40
1
 10
497.142528
 20
70.968482
 30
0.0
 10
496.771247
 20
71.182841
 30
0.0
 10
496.542528
 20
71.578993
 30
0.0
 10
496.542528
 20
72.007712
 30
0.0
  0
SPLINE
  5
397
100
AcDbEntity
  8
0
 62
7
100
AcDbSpline
 70
8
 71
3
 72
8
 73
4
 74
0
 40
0
 40
0
 40
0
 40
0
 40
1
 40
1
 40
1
 40
1
 10
496.542528
 20
72.007712
 30
0.0
 10
496.542528
 20
72.436431
 30
0.0
 10
496.771247
 20
72.832583
 30
0.0
 10
497.142528
 20
73.046942
 30
0.0
  0
SPLINE
  5
398
100
AcDbEntity
  8
0
 62
7
100
AcDbSpline
 70
8
 71
3
 72
8
 73
4
 74
0
 40
0
 40
0
 40
0
 40
0
 40
1
 40
1
 40
1
 40
1
 10
497.142528
 20
73.046942
 30
0.0
 10
497.513809
 20
73.261302
 30
0.0
 10
497.971247
 20
73.261302
 30
0.0
 10
498.342528
 20
73.046942
 30
0.0
  0
SPLINE
  5
399
100
AcDbEntity
  8
0
 62
7
100
AcDbSpline
 70
8
 71
3
 72
8
 73
4
 74
0
 40
0
 40
0
 40
0
 40
0
 40
1
 40
1
 40
1
 40
1
 10
498.342528
 20
73.046942
 30
0.0
 10
498.713809
 20
72.832583
 30
0.0
 10
498.942528
 20
72.436431
 30
0.0
 10
498.942528
 20
72.007712
 30
0.0
  0
LWPOLYLINE
  5
39a
100
AcDbEntity
  8
0
 62
7
100
AcDbPolyline
 90
2
 70
1
 10
498.942528
 20
55.942248
 30
0.0
 10
498.942528
 20
55.942248
 30
0.0
  0
SPLINE
  5
39b
100
AcDbEntity
  8
0
 62
7
100
AcDbSpline
 70
8
 71
3
 72
8
 73
4
 74
0
 40
0
 40
0
 40
0
 40
0
 40
1
 40
1
 40
1
 40
1
 10
515.008008
 20
8.032736
 30
0.0
 10
515.008008
 20
7.604017
 30
0.0
 10
514.779289
 20
7.207865
 30
0.0
 10
514.408008
 20
6.993506
 30
0.0
  0
SPLINE
  5
39c
100
AcDbEntity
  8
0
 62
7
100
AcDbSpline
 70
8
 71
3
 72
8
 73
4
 74
0
 40
0
 40
0
 40
0
 40
0
 40
1
 40
1
 40
1
 40
1
 10
514.408008
 20
6.993506
 30
0.0
 10
514.036727
 20
6.779146
 30
0.0
 10
513.579289
 20
6.779146
 30
0.0
 10
513.208008
 20
6.993506
 30
0.0
  0
SPLINE
  5
39d
100
AcDbEntity
  8
0
 62
7
100
AcDbSpline
 70
8
 71
3
 72
8
 73
4
 74
0
 40
0
 40
0
 40
0
 40
0
 40
1
 40
1
 40
1
 40
1
 10
513.208008
 20
6.993506
 30
0.0
 10
512.836727
 20
7.207865
 30
0.0
 10
512.608008
 20
7.604017
 30
0.0
 10
512.608008
 20
8.032736
 30
0.0
  0
SPLINE
  5
39e
100
AcDbEntity
  8
0
 62
7
100
AcDbSpline
 70
8
 71
3
 72
8
 73
4
 74
0
 40
0
 40
0
 40
0
 40
0
 40
1
 40
1
 40
1
 40
1
 10
512.608008
 20
8.032736
 30
0.0
 10
512.608008
 20
8.461455
 30
0.0
 10
512.836727
 20
8.857607
 30
0.0
 10
513.208008
 20
9.071966
 30
0.0
  0
SPLINE
  5
39f
100
AcDbEntity
  8
0
 62
7
100
AcDbSpline
 70
8
 71
3
 72
8
 73
4
 74
0
 40
0
 40
0
 40
0
 40
0
 40
1
 40
1
 40
1
 40
1
 10
513.208008
 20
9.071966
 30
0.0
 10
513.579289
 20
9.286326
 30
0.0
 10
514.036727
 20
9.286326
 30
0.0
 10
514.408008
 20
9.071966
 30
0.0
  0
SPLINE
  5
3a0
100
AcDbEntity
  8
0
 62
7
100
AcDbSpline
 70
8
 71
3
 72
8
 73
4
 74
0
 40
0
 40
0
 40
0
 40
0
 40
1
 40
1
 40
1
 40
1
 10
514.408008
 20
9.071966
 30
0.0
 10
514.779289
 20
8.857607
 30
0.0
 10
515.008008
 20
8.461455
 30
0.0
 10
515.008008
 20
8.032736
 30
0.0
  0
LWPOLYLINE
  5
3a1
100
AcDbEntity
  8
0
 62
7
100
AcDbPolyline
 90
2
 70
1
 10
498.942528
 20
72.007712
 30
0.0
 10
498.942528
 20
72.007712
 30
0.0
  0
SPLINE
  5
3a2
100
AcDbEntity
  8
0
 62
7
100
AcDbSpline
 70
8
 71
3
 72
8
 73
4
 74
0
 40
0
 40
0
 40
0
 40
0
 40
1
 40
1
 40
1
 40
1
 10
530.930032
 20
7.745848
 30
0.0
 10
530.930032
 20
7.317129
 30
0.0
 10
530.701313
 20
6.920977
 30
0.0
 10
530.330032
 20
6.706618
 30
0.0
  0
SPLINE
  5
3a3
100
AcDbEntity
  8
0
 62
7
100
AcDbSpline
 70
8
 71
3
 72
8
 73
4
 74
0
 40
0
 40
0
 40
0
 40
0
 40
1
 40
1
 40
1
 40
1
 10
530.330032
 20
6.706618
 30
0.0
 10
529.958751
 20
6.492258
 30
0.0
 10
529.501313
 20
6.492258
 30
0.0
 10
529.130032
 20
6.706618
 30
0.0
  0
SPLINE
  5
3a4
100
AcDbEntity
  8
0
 62
7
100
AcDbSpline
 70
8
 71
3
 72
8
 73
4
 74
0
 40
0
 40
0
 40
0
 40
0
 40
1
 40
1
 40
1
 40
1
 10
529.130032
 20
6.706618
 30
0.0
 10
528.758751
 20
6.920977
 30
0.0
 10
528.530032
 20
7.317129
 30
0.0
 10
528.530032
 20
7.745848
 30
0.0
  0
SPLINE
  5
3a5
100
AcDbEntity
  8
0
 62
7
100
AcDbSpline
 70
8
 71
3
 72
8
 73
4
 74
0
 40
0
 40
0
 40
0
 40
0
 40
1
 40
1
 40
1
 40
1
 10
528.530032
 20
7.745848
 30
0.0
 10
528.530032
 20
8.174567
 30
0.0
 10
528.758751
 20
8.570719
 30
0.0
 10
529.130032
 20
8.785078
 30
0.0
  0
SPLINE
  5
3a6
100
AcDbEntity
  8
0
 62
7
100
AcDbSpline
 70
8
 71
3
 72
8
 73
4
 74
0
 40
0
 40
0
 40
0
 40
0
 40
1
 40
1
 40
1
 40
1
 10
529.130032
 20
8.785078
 30
0.0
 10
529.501313
 20
8.999438
 30
0.0
 10
529.958751
 20
8.999438
 30
0.0
 10
530.330032
 20
8.785078
 30
0.0
  0
SPLINE
  5
3a7
100
AcDbEntity
  8
0
 62
7
100
AcDbSpline
 70
8
 71
3
 72
8
 73
4
 74
0
 40
0
 40
0
 40
0
 40
0
 40
1
 40
1
 40
1
 40
1
 10
530.330032
 20
8.785078
 30
0.0
 10
530.701313
 20
8.570719
 30
0.0
 10
530.930032
 20
8.174567
 30
0.0
 10
530.930032
 20
7.745848
 30
0.0
  0
LWPOLYLINE
  5
3a8
100
AcDbEntity
  8
0
 62
7
100
AcDbPolyline
 90
2
 70
1
 10
515.008008
 20
8.032736
 30
0.0
 10
515.008008
 20
8.032736
 30
0.0
  0
SPLINE
  5
3a9
100
AcDbEntity
  8
0
 62
7
100
AcDbSpline
 70
8
 71
3
 72
8
 73
4
 74
0
 40
0
 40
0
 40
0
 40
0
 40
1
 40
1
 40
1
 40
1
 10
194.989688
 20
103.851758
 30
0.0
 10
194.989688
 20
103.423039
 30
0.0
 10
194.760969
 20
103.026886
 30
0.0
 10
194.389688
 20
102.812527
 30
0.0
  0
SPLINE
  5
3aa
100
AcDbEntity
  8
0
 62
7
100
AcDbSpline
 70
8
 71
3
 72
8
 73
4
 74
0
 40
0
 40
0
 40
0
 40
0
 40
1
 40
1
 40
1
 40
1
 10
194.389688
 20
102.812527
 30
0.0
 10
194.018407
 20
102.598168
 30
0.0
 10
193.560969
 20
102.598168
 30
0.0
 10
193.189688
 20
102.812527
 30
0.0
  0
SPLINE
  5
3ab
100
AcDbEntity
  8
0
 62
7
100
AcDbSpline
 70
8
 71
3
 72
8
 73
4
 74
0
 40
0
 40
0
 40
0
 40
0
 40
1
 40
1
 40
1
 40
1
 10
193.189688
 20
102.812527
 30
0.0
 10
192.818407
 20
103.026886
 30
0.0
 10
192.589688
 20
103.423039
 30
0.0
 10
192.589688
 20
103.851758
 30
0.0
  0
SPLINE
  5
3ac
100
AcDbEntity
  8
0
 62
7
100
AcDbSpline
 70
8
 71
3
 72
8
 73
4
 74
0
 40
0
 40
0
 40
0
 40
0
 40
1
 40
1
 40
1
 40
1
 10
192.589688
 20
103.851758
 30
0.0
 10
192.589688
 20
104.280476
 30
0.0
 10
192.818407
 20
104.676629
 30
0.0
 10
193.189688
 20
104.890988
 30
0.0
  0
SPLINE
  5
3ad
100
AcDbEntity
  8
0
 62
7
100
AcDbSpline
 70
8
 71
3
 72
8
 73
4
 74
0
 40
0
 40
0
 40
0
 40
0
 40
1
 40
1
 40
1
 40
1
 10
193.189688
 20
104.890988
 30
0.0
 10
193.560969
 20
105.105347
 30
0.0
 10
194.018407
 20
105.105347
 30
0.0
 10
194.389688
 20
104.890988
 30
0.0
  0
SPLINE
  5
3ae
100
AcDbEntity
  8
0
 62
7
100
AcDbSpline
 70
8
 71
3
 72
8
 73
4
 74
0
 40
0
 40
0
 40
0
 40
0
 40
1
 40
1
 40
1
 40
1
 10
194.389688
 20
104.890988
 30
0.0
 10
194.760969
 20
104.676629
 30
0.0
 10
194.989688
 20
104.280476
 30
0.0
 10
194.989688
 20
103.851758
 30
0.0
  0
LWPOLYLINE
  5
3af
100
AcDbEntity
  8
0
 62
7
100
AcDbPolyline
 90
2
 70
1
 10
530.930032
 20
7.745848
 30
0.0
 10
530.930032
 20
7.745848
 30
0.0
  0
SPLINE
  5
3b0
100
AcDbEntity
  8
0
 62
7
100
AcDbSpline
 70
8
 71
3
 72
8
 73
4
 74
0
 40
0
 40
0
 40
0
 40
0
 40
1
 40
1
 40
1
 40
1
 10
298.984888
 20
152.048157
 30
0.0
 10
298.984888
 20
151.619438
 30
0.0
 10
298.756169
 20
151.223286
 30
0.0
 10
298.384888
 20
151.008926
 30
0.0
  0
SPLINE
  5
3b1
100
AcDbEntity
  8
0
 62
7
100
AcDbSpline
 70
8
 71
3
 72
8
 73
4
 74
0
 40
0
 40
0
 40
0
 40
0
 40
1
 40
1
 40
1
 40
1
 10
298.384888
 20
151.008926
 30
0.0
 10
298.013607
 20
150.794567
 30
0.0
 10
297.556169
 20
150.794567
 30
0.0
 10
297.184888
 20
151.008926
 30
0.0
  0
SPLINE
  5
3b2
100
AcDbEntity
  8
0
 62
7
100
AcDbSpline
 70
8
 71
3
 72
8
 73
4
 74
0
 40
0
 40
0
 40
0
 40
0
 40
1
 40
1
 40
1
 40
1
 10
297.184888
 20
151.008926
 30
0.0
 10
296.813607
 20
151.223286
 30
0.0
 10
296.584888
 20
151.619438
 30
0.0
 10
296.584888
 20
152.048157
 30
0.0
  0
SPLINE
  5
3b3
100
AcDbEntity
  8
0
 62
7
100
AcDbSpline
 70
8
 71
3
 72
8
 73
4
 74
0
 40
0
 40
0
 40
0
 40
0
 40
1
 40
1
 40
1
 40
1
 10
296.584888
 20
152.048157
 30
0.0
 10
296.584888
 20
152.476876
 30
0.0
 10
296.813607
 20
152.873028
 30
0.0
 10
297.184888
 20
153.087387
 30
0.0
  0
SPLINE
  5
3b4
100
AcDbEntity
  8
0
 62
7
100
AcDbSpline
 70
8
 71
3
 72
8
 73
4
 74
0
 40
0
 40
0
 40
0
 40
0
 40
1
 40
1
 40
1
 40
1
 10
297.184888
 20
153.087387
 30
0.0
 10
297.556169
 20
153.301747
 30
0.0
 10
298.013607
 20
153.301747
 30
0.0
 10
298.384888
 20
153.087387
 30
0.0
  0
SPLINE
  5
3b5
100
AcDbEntity
  8
0
 62
7
100
AcDbSpline
 70
8
 71
3
 72
8
 73
4
 74
0
 40
0
 40
0
 40
0
 40
0
 40
1
 40
1
 40
1
 40
1
 10
298.384888
 20
153.087387
 30
0.0
 10
298.756169
 20
152.873028
 30
0.0
 10
298.984888
 20
152.476876
 30
0.0
 10
298.984888
 20
152.048157
 30
0.0
  0
LWPOLYLINE
  5
3b6
100
AcDbEntity
  8
0
 62
7
100
AcDbPolyline
 90
2
 70
1
 10
194.989688
 20
103.851758
 30
0.0
 10
194.989688
 20
103.851758
 30
0.0
  0
SPLINE
  5
3b7
100
AcDbEntity
  8
0
 62
7
100
AcDbSpline
 70
8
 71
3
 72
8
 73
4
 74
0
 40
0
 40
0
 40
0
 40
0
 40
1
 40
1
 40
1
 40
1
 10
307.017624
 20
152.048157
 30
0.0
 10
307.017624
 20
151.619438
 30
0.0
 10
306.788905
 20
151.223286
 30
0.0
 10
306.417624
 20
151.008926
 30
0.0
  0
SPLINE
  5
3b8
100
AcDbEntity
  8
0
 62
7
100
AcDbSpline
 70
8
 71
3
 72
8
 73
4
 74
0
 40
0
 40
0
 40
0
 40
0
 40
1
 40
1
 40
1
 40
1
 10
306.417624
 20
151.008926
 30
0.0
 10
306.046343
 20
150.794567
 30
0.0
 10
305.588905
 20
150.794567
 30
0.0
 10
305.217624
 20
151.008926
 30
0.0
  0
SPLINE
  5
3b9
100
AcDbEntity
  8
0
 62
7
100
AcDbSpline
 70
8
 71
3
 72
8
 73
4
 74
0
 40
0
 40
0
 40
0
 40
0
 40
1
 40
1
 40
1
 40
1
 10
305.217624
 20
151.008926
 30
0.0
 10
304.846343
 20
151.223286
 30
0.0
 10
304.617624
 20
151.619438
 30
0.0
 10
304.617624
 20
152.048157
 30
0.0
  0
SPLINE
  5
3ba
100
AcDbEntity
  8
0
 62
7
100
AcDbSpline
 70
8
 71
3
 72
8
 73
4
 74
0
 40
0
 40
0
 40
0
 40
0
 40
1
 40
1
 40
1
 40
1
 10
304.617624
 20
152.048157
 30
0.0
 10
304.617624
 20
152.476876
 30
0.0
 10
304.846343
 20
152.873028
 30
0.0
 10
305.217624
 20
153.087387
 30
0.0
  0
SPLINE
  5
3bb
100
AcDbEntity
  8
0
 62
7
100
AcDbSpline
 70
8
 71
3
 72
8
 73
4
 74
0
 40
0
 40
0
 40
0
 40
0
 40
1
 40
1
 40
1
 40
1
 10
305.217624
 20
153.087387
 30
0.0
 10
305.588905
 20
153.301747
 30
0.0
 10
306.046343
 20
153.301747
 30
0.0
 10
306.417624
 20
153.087387
 30
0.0
  0
SPLINE
  5
3bc
100
AcDbEntity
  8
0
 62
7
100
AcDbSpline
 70
8
 71
3
 72
8
 73
4
 74
0
 40
0
 40
0
 40
0
 40
0
 40
1
 40
1
 40
1
 40
1
 10
306.417624
 20
153.087387
 30
0.0
 10
306.788905
 20
152.873028
 30
0.0
 10
307.017624
 20
152.476876
 30
0.0
 10
307.017624
 20
152.048157
 30
0.0
  0
LWPOLYLINE
  5
3bd
100
AcDbEntity
  8
0
 62
7
100
AcDbPolyline
 90
2
 70
1
 10
298.984888
 20
152.048157
 30
0.0
 10
298.984888
 20
152.048157
 30
0.0
  0
SPLINE
  5
3be
100
AcDbEntity
  8
0
 62
7
100
AcDbSpline
 70
8
 71
3
 72
8
 73
4
 74
0
 40
0
 40
0
 40
0
 40
0
 40
1
 40
1
 40
1
 40
1
 10
315.050344
 20
152.048157
 30
0.0
 10
315.050344
 20
151.619438
 30
0.0
 10
314.821625
 20
151.223286
 30
0.0
 10
314.450344
 20
151.008926
 30
0.0
  0
SPLINE
  5
3bf
100
AcDbEntity
  8
0
 62
7
100
AcDbSpline
 70
8
 71
3
 72
8
 73
4
 74
0
 40
0
 40
0
 40
0
 40
0
 40
1
 40
1
 40
1
 40
1
 10
314.450344
 20
151.008926
 30
0.0
 10
314.079063
 20
150.794567
 30
0.0
 10
313.621625
 20
150.794567
 30
0.0
 10
313.250344
 20
151.008926
 30
0.0
  0
SPLINE
  5
3c0
100
AcDbEntity
  8
0
 62
7
100
AcDbSpline
 70
8
 71
3
 72
8
 73
4
 74
0
 40
0
 40
0
 40
0
 40
0
 40
1
 40
1
 40
1
 40
1
 10
313.250344
 20
151.008926
 30
0.0
 10
312.879063
 20
151.223286
 30
0.0
 10
312.650344
 20
151.619438
 30
0.0
 10
312.650344
 20
152.048157
 30
0.0
  0
SPLINE
  5
3c1
100
AcDbEntity
  8
0
 62
7
100
AcDbSpline
 70
8
 71
3
 72
8
 73
4
 74
0
 40
0
 40
0
 40
0
 40
0
 40
1
 40
1
 40
1
 40
1
 10
312.650344
 20
152.048157
 30
0.0
 10
312.650344
 20
152.476876
 30
0.0
 10
312.879063
 20
152.873028
 30
0.0
 10
313.250344
 20
153.087387
 30
0.0
  0
SPLINE
  5
3c2
100
AcDbEntity
  8
0
 62
7
100
AcDbSpline
 70
8
 71
3
 72
8
 73
4
 74
0
 40
0
 40
0
 40
0
 40
0
 40
1
 40
1
 40
1
 40
1
 10
313.250344
 20
153.087387
 30
0.0
 10
313.621625
 20
153.301747
 30
0.0
 10
314.079063
 20
153.301747
 30
0.0
 10
314.450344
 20
153.087387
 30
0.0
  0
SPLINE
  5
3c3
100
AcDbEntity
  8
0
 62
7
100
AcDbSpline
 70
8
 71
3
 72
8
 73
4
 74
0
 40
0
 40
0
 40
0
 40
0
 40
1
 40
1
 40
1
 40
1
 10
314.450344
 20
153.087387
 30
0.0
 10
314.821625
 20
152.873028
 30
0.0
 10
315.050344
 20
152.476876
 30
0.0
 10
315.050344
 20
152.048157
 30
0.0
  0
LWPOLYLINE
  5
3c4
100
AcDbEntity
  8
0
 62
7
100
AcDbPolyline
 90
2
 70
1
 10
307.017624
 20
152.048157
 30
0.0
 10
307.017624
 20
152.048157
 30
0.0
  0
LWPOLYLINE
  5
3c5
100
AcDbEntity
  8
0
 62
7
100
AcDbPolyline
 90
2
 70
1
 10
315.050344
 20
152.048157
 30
0.0
 10
315.050344
 20
152.048157
 30
0.0
  0
ENDSEC
  0
SECTION
  2
OBJECTS
  0
DICTIONARY
  5
C
330
0
100
AcDbDictionary
  3
ACAD_GROUP
350
D
  3
ACAD_MLINESTYLE
350
17
  0
DICTIONARY
  5
D
330
C
100
AcDbDictionary
  0
DICTIONARY
  5
1A
330
C
100
AcDbDictionary
  0
DICTIONARY
  5
17
330
C
100
AcDbDictionary
  3
STANDARD
350
18
  0
DICTIONARY
  5
19
330
C
100
AcDbDictionary
  0
ENDSEC
  0
EOF
